<svg xmlns="http://www.w3.org/2000/svg" width="33" height="39" fill="none" viewBox="0 0 33 39"><path fill="#000" d="M15.1688.15313c-1.8191.4419-3.3298 1.67514-4.2033 3.43249-.7399 1.50044-.9147 2.28148-.98659 4.52186l-.06166 1.90122-3.25779.0514-3.24752.0514-.2672.2466c-.14387.1336-.3083.3905-.35969.5653-.06166.1747-.31858 2.0759-.57551 4.2238-.25692 2.1479-.70911 5.7756-.98658 8.0674C.30831 30.6654 0 33.4093 0 34.0773c0 2.0965 1.62376 3.9361 3.77164 4.2444.94548.1336 24.39746.1336 25.36346 0 1.0277-.1542 1.8602-.5858 2.6001-1.3771 1.151-1.2333 1.4285-2.2507 1.1818-4.3575-.2055-1.7573-1.5929-12.99-2.1889-17.6763-.2775-2.2095-.555-4.1108-.6064-4.2135-.0514-.0925-.1953-.2672-.3186-.3803-.2158-.1952-.4111-.2055-3.1755-.2569l-2.9393-.0514-.0719-1.56209c-.1028-2.42535-.3494-3.59692-1.0688-4.96376-.8838-1.69569-2.3534-2.86726-4.2033-3.34-.7605-.19526-2.3534-.18499-3.1755.01028Zm2.3945 2.35341c.7091.0925 1.521.54468 2.0759 1.1613 1.038 1.14074 1.4182 2.33286 1.5005 4.7685l.0616 1.62376h-8.869V8.62132c0-1.72652.185-2.73366.6783-3.77163.4316-.90437 1.1305-1.64431 1.9218-2.02456.5549-.27748 1.521-.47274 1.9732-.41108.113.01028.411.05139.6577.09249ZM28.0047 12.6499c.0308.1336.2055 1.5518.411 3.1653.1953 1.6135.6783 5.5598 1.0791 8.7868.4008 3.2269.8222 6.6491.9352 7.6255.2056 1.6751.2056 1.7779.0411 2.2814-.1747.5447-.5755.9661-1.151 1.2127-.2775.1131-2.5795.1336-12.8667.1336-8.63265 0-12.6201-.0308-12.82564-.113-.668-.2467-1.16129-1.0175-1.16129-1.8191 0-.5138.24664-2.5897 1.74708-14.6343.45218-3.6586.82215-6.7006.82215-6.7622 0-.072 3.78191-.1028 11.4588-.1028h11.4588l.0514.2261Z"/></svg>
