<svg xmlns="http://www.w3.org/2000/svg" width="17" height="18" fill="none" viewBox="0 0 17 18"><path fill="#000" d="M2.16861 3.61757c.24223-.24591.23925-.64163-.00666-.88386-.24591-.24223-.64162-.23925-.88386.00666l.89052.8772ZM5.125 2.10591l-.44527-.43859c-.23965.24329-.23964.6339.00001.87719l.44526-.4386Zm1.01342 1.9194c.24223.24591.63795.24889.88386.00666.2459-.24224.24888-.63795.00665-.88386l-.89051.8772Zm.89052-2.96172c.24223-.24592.23924-.64164-.00668-.88386C6.77635-.0625 6.38063-.0595 6.1384.1864l.89054.87718ZM8.125 16.6665c-1.7857 0-3.06115-.0014-4.03025-.1336-.95014-.1297-1.51206-.3746-1.92614-.795l-.89052.8772c.68426.6946 1.5554 1.0072 2.64762 1.1563 1.07326.1465 2.44945.1451 4.19929.1451v-1.25ZM0 9.67775C0 11.4549-.00129 12.8497.1427 13.937c.14625 1.1042.45242 1.9847 1.13539 2.6781l.89052-.8772c-.41538-.4217-.65839-.996-.78673-1.965-.13059-.9861-.13188-2.2832-.13188-4.09515H0Zm15 0c0 1.81195-.0013 3.10905-.1319 4.09515-.1283.969-.3713 1.5433-.7867 1.965l.8905.8772c.683-.6934.9891-1.5739 1.1354-2.6781.144-1.0873.1427-2.4821.1427-4.25925H15ZM8.125 17.9165c1.7498 0 3.126.0014 4.1993-.1451 1.0922-.1491 1.9633-.4617 2.6476-1.1563l-.8905-.8772c-.4141.4204-.976.6653-1.9262.795-.969.1322-2.2445.1336-4.0302.1336v1.25Zm0-15.22755c1.7857 0 3.0612.00137 4.0302.13364.9502.12968 1.5121.37461 1.9262.79498l.8905-.8772c-.6843-.69465-1.5554-1.00723-2.6476-1.1563-1.0733-.14648-2.4495-.14512-4.1993-.14512v1.25Zm8.125 6.9888c0-1.77718.0013-3.17201-.1427-4.25926-.1463-1.10428-.4524-1.98479-1.1354-2.67812l-.8905.8772c.4154.42168.6584.99597.7867 1.96503.1306.9861.1319 2.28315.1319 4.09515h1.25Zm-15 0c0-1.812.00129-3.10905.13188-4.09515.12834-.96906.37135-1.54335.78673-1.96503l-.89052-.8772C.59512 3.4337.28895 4.31421.1427 5.41849-.00129 6.50574 0 7.90057 0 9.67775h1.25Zm6.875-8.2388c-1.17936 0-2.18331-.00017-3.03159.04275l.06318 1.24841c.80983-.04098 1.77834-.04116 2.96841-.04116v-1.25ZM4.67974 2.54451l1.45868 1.4808.89051-.8772L5.57026 1.6673l-.89052.87721Zm.89053-.00002 1.45867-1.4809L6.1384.18641 4.67973 1.66732l.89054.87717Z"/><path stroke="#000" stroke-linecap="round" stroke-linejoin="round" stroke-width="1.25" d="m5.20703 10.211 1.66666 1.6666 4.16661-4.16666"/></svg>
