<svg xmlns="http://www.w3.org/2000/svg" width="40" height="40" fill="none" viewBox="0 0 40 40"><rect width="40" height="40" fill="#EEE8E4" rx="12"/><g clip-path="url(#clip0_107_506)"><path fill="#E40022" d="M20 12c-4.4182 0-8 3.5818-8 8 0 3.7517 2.583 6.8998 6.0675 7.7645v-5.3197h-1.6496V20h1.6496v-1.0534c0-2.7229 1.2323-3.985 3.9056-3.985.5069 0 1.3815.0995 1.7392.1987v2.216c-.1888-.0198-.5168-.0297-.9241-.0297-1.3117 0-1.8186.4969-1.8186 1.7888V20h2.6131l-.4489 2.4448h-2.1642v5.4966c3.9613-.4784 7.0307-3.8512 7.0307-7.9414C28 15.5818 24.4182 12 20 12Z"/></g><defs><clipPath id="clip0_107_506"><path fill="#fff" d="M12 12h16v16H12z"/></clipPath></defs></svg>
