<svg xmlns="http://www.w3.org/2000/svg" xmlns:xlink="http://www.w3.org/1999/xlink" width="135" height="63" fill="none" viewBox="0 0 135 63"><defs><path id="reuse-0" fill="#fff" d="M73.8541 27.497c0-2.6841.048-5.1831.1918-7.497l-7.3372 1.3421v.6478l.7194.0926c.5275.0463.8632.2314 1.055.509.1918.324.3357.7868.4316 1.4809.0959 1.3421.1918 4.3964.1439 9.2093 0 4.7666-.048 7.7746-.1439 8.9316 2.6375.5553 4.6996.7867 6.2342.7867 2.8773 0 5.1313-.7867 6.7618-2.4064 1.6304-1.5735 2.4936-3.7948 2.4936-6.5252 0-2.175-.6234-3.9799-1.8702-5.4145-1.2469-1.4346-2.8294-2.1287-4.6997-2.1287-1.2468 0-2.5416.3239-3.9803.9718Zm.1439 14.2535c-.0959-1.4809-.1918-5.9235-.1918-13.1891.4316-.1389 1.007-.2314 1.7264-.2314 1.1509 0 2.062.5553 2.7334 1.7123.6714 1.1569 1.0071 2.5452 1.0071 4.3038 0 2.175-.3837 3.9336-1.1509 5.4145-.7673 1.4346-1.7264 2.175-2.9253 2.175-.3837-.0925-.7673-.1388-1.1989-.1851ZM39.1822 20.4628H20v.9255l1.0071.0926c.7673.1388 1.2948.4165 1.6305.833.3356.4628.5275 1.2032.5754 2.2213.3837 4.998.3837 9.672 0 13.9759-.0959 1.0181-.2877 1.7585-.5754 2.2213-.3357.4628-.8632.7404-1.6305.833L20 41.7042v.9256h12.3725v-.9256l-1.2948-.0925c-.3159-.0255-.6233-.1125-.9035-.2557-.2802-.1431-.5275-.3395-.727-.5773-.3356-.4628-.5275-1.2032-.5754-2.2214-.1439-1.8511-.2398-3.9798-.2398-6.34l2.5896.0463c1.3907.0463 2.3498 1.0644 2.8294 3.1006h.9591v-7.5433h-.9591c-.4796 1.99-1.3907 3.0081-2.8294 3.0544l-2.5896.0462c0-4.165.0959-7.1267.2398-8.9316h3.7885c2.6855 0 4.5078 1.666 5.5628 4.998l1.151-.3239-.1919-6.2012Zm-2.2539 14.2535c0 2.4064.7194 4.3964 2.1101 5.9698C40.4291 42.2596 42.4912 43 45.0808 43s4.6996-.7867 6.2342-2.4064c1.5346-1.5735 2.2539-3.5634 2.2539-5.9699 0-2.4064-.7193-4.3963-2.11-5.9698-1.3908-1.5734-3.4528-2.3139-6.0424-2.3139s-4.6997.7868-6.2343 2.4065c-1.5345 1.5734-2.2539 3.5634-2.2539 5.9698Zm10.6941-5.2757c.5755 1.3421.8153 3.1006.8153 5.2294 0 4.9055-1.0551 7.3119-3.1172 7.3119-1.055 0-1.8702-.6942-2.4457-2.0825-.5755-1.3883-.8152-3.1469-.8152-5.2294 0-4.8591 1.055-7.2656 3.1171-7.2656 1.055-.0463 1.8702.6479 2.4457 2.0362Zm40.5225 11.2455C89.7274 42.2133 91.7415 43 94.1393 43c1.4866 0 2.7814-.2777 3.9324-.8793 1.1509-.5553 2.0623-1.2495 2.6853-2.0825l-.479-.5553c-1.0554.7867-2.2543 1.1569-3.645 1.1569-1.9182 0-3.4048-.6016-4.4119-1.8511-1.055-1.2495-1.5346-2.8229-1.4387-4.8591h10.2626c0-2.2214-.576-4.0262-1.7744-5.4608-1.1989-1.3883-2.8774-2.0825-5.0354-2.0825-2.6855 0-4.7476.833-6.2342 2.4527-1.4866 1.6198-2.2059 3.6097-2.2059 5.9699 0 2.4064.7672 4.3501 2.3498 5.8772Zm3.5487-11.6157c.5275-1.1106 1.1989-1.666 2.11-1.666 1.4387 0 2.158 1.7586 2.158 5.322l-5.0833.0925c.048-1.3883.2878-2.6378.8153-3.7485Zm22.2514-1.8511c-1.295-.5553-2.925-.8793-4.891-.8793-2.015 0-3.597.5091-4.796 1.4809-1.199.9719-1.822 2.1751-1.822 3.6097 0 1.2495.383 2.2213 1.103 2.9155.719.6941 1.87 1.2958 3.357 1.8048 1.342.4628 2.301.9256 2.781 1.3421.479.4627.767.9718.767 1.666 0 .6478-.24 1.2494-.767 1.7122-.48.5091-1.151.7405-2.014.7405-2.11 0-3.693-1.4809-4.796-4.4427l-.815.2314.192 4.6278c1.726.6479 3.644.9718 5.754.9718 2.206 0 3.885-.4628 5.132-1.4346 1.247-.9256 1.87-2.2676 1.87-3.9336 0-1.1107-.288-2.0362-.911-2.7304-.624-.6942-1.631-1.2958-3.069-1.8511-1.583-.5553-2.686-1.0644-3.261-1.5272-.576-.4627-.863-1.0181-.863-1.7122 0-.6942.191-1.2495.623-1.7123.432-.4628.959-.6479 1.63-.6479 1.919 0 3.309 1.3421 4.173 3.9799l.815-.2314-.192-3.9799Zm-46.1333-.4165c-.6714-.3239-1.3907-.4628-2.2059-.4628-.8153 0-1.6305.324-2.5417.9719-.9111.6479-1.5825 1.5271-2.11 2.7304l.0479-3.7023-7.2892 1.3884v.6479l.7193.0462c.9112.0926 1.4387.7868 1.5346 2.0363.2877 2.8692.2877 5.9235 0 9.1629-.0959 1.2495-.6234 1.8974-1.5346 2.0362l-.7193.0926v.8793h10.1666v-.8793l-1.2948-.0926c-.9112-.0925-1.4387-.7867-1.5346-2.0362-.2878-2.6841-.3357-5.5533-.0959-8.5151.2877-.4627.9111-.7404 1.8702-.833.9591-.0925 2.0621.1852 3.2131.833l1.7743-4.3038Z"/></defs><g filter="url(#filter0_f_1_373)"><use xlink:href="#reuse-0"/></g><use xlink:href="#reuse-0"/><defs><filter id="filter0_f_1_373" width="135" height="63" x="0" y="0" color-interpolation-filters="sRGB" filterUnits="userSpaceOnUse"><feFlood flood-opacity="0" result="BackgroundImageFix"/><feBlend in="SourceGraphic" in2="BackgroundImageFix" result="shape"/><feGaussianBlur result="effect1_foregroundBlur_1_373" stdDeviation="10"/></filter></defs></svg>
