<svg xmlns="http://www.w3.org/2000/svg" width="40" height="40" fill="none" viewBox="0 0 40 40"><rect width="40" height="40" fill="#EEE8E4" rx="12"/><g fill="#E40022" clip-path="url(#clip0_107_500)"><path d="M20 13.4406c2.1375 0 2.3906.0094 3.2313.0469.7812.0344 1.2031.1656 1.4843.275.3719.1438.6407.3188.9188.5969.2812.2812.4531.5469.5969.9187.1093.2813.2406.7063.275 1.4844.0375.8437.0468 1.0969.0468 3.2313 0 2.1375-.0093 2.3906-.0468 3.2312-.0344.7813-.1657 1.2031-.275 1.4844-.1438.3719-.3188.6406-.5969.9187-.2813.2813-.5469.4532-.9188.5969-.2812.1094-.7062.2406-1.4843.275-.8438.0375-1.0969.0469-3.2313.0469-2.1375 0-2.3906-.0094-3.2312-.0469-.7813-.0344-1.2032-.1656-1.4844-.275-.3719-.1437-.6406-.3187-.9188-.5969-.2812-.2812-.4531-.5468-.5968-.9187-.1094-.2813-.2407-.7063-.275-1.4844-.0375-.8437-.0469-1.0969-.0469-3.2312 0-2.1375.0094-2.3907.0469-3.2313.0343-.7813.1656-1.2031.275-1.4844.1437-.3718.3187-.6406.5968-.9187.2813-.2813.5469-.4531.9188-.5969.2812-.1094.7062-.2406 1.4844-.275.8406-.0375 1.0937-.0469 3.2312-.0469ZM20 12c-2.1719 0-2.4437.0094-3.2969.0469-.85.0375-1.4343.175-1.9406.3718-.5281.2063-.975.4782-1.4187.9251-.4469.4437-.7188.8906-.925 1.4156-.1969.5094-.3344 1.0906-.3719 1.9406C12.0094 17.5563 12 17.8281 12 20s.0094 2.4438.0469 3.2969c.0375.85.175 1.4344.3719 1.9406.2062.5281.4781.975.925 1.4187.4437.4438.8906.7188 1.4156.9219.5094.1969 1.0906.3344 1.9406.3719.8531.0375 1.125.0469 3.2969.0469s2.4437-.0094 3.2969-.0469c.85-.0375 1.4343-.175 1.9406-.3719.525-.2031.9719-.4781 1.4156-.9219.4438-.4437.7188-.8906.9219-1.4156.1969-.5093.3344-1.0906.3719-1.9406.0375-.8531.0468-1.125.0468-3.2969 0-2.1718-.0093-2.4437-.0468-3.2968-.0375-.85-.175-1.4344-.3719-1.9407-.1969-.5312-.4688-.9781-.9156-1.4218-.4438-.4438-.8907-.7188-1.4157-.9219-.5093-.1969-1.0906-.3344-1.9406-.3719-.8562-.0406-1.1281-.05-3.3-.05Z"/><path d="M20 15.8906c-2.2687 0-4.1094 1.8407-4.1094 4.1094 0 2.2688 1.8407 4.1094 4.1094 4.1094 2.2688 0 4.1094-1.8406 4.1094-4.1094 0-2.2687-1.8406-4.1094-4.1094-4.1094Zm0 6.775c-1.4719 0-2.6656-1.1937-2.6656-2.6656S18.5281 17.3344 20 17.3344 22.6656 18.5281 22.6656 20 21.4719 22.6656 20 22.6656ZM25.2312 15.7279c0 .5313-.4312.9594-.9593.9594-.5313 0-.9594-.4312-.9594-.9594 0-.5312.4313-.9593.9594-.9593s.9593.4312.9593.9593Z"/></g><defs><clipPath id="clip0_107_500"><path fill="#fff" d="M12 12h16v16H12z"/></clipPath></defs></svg>
