<svg xmlns="http://www.w3.org/2000/svg" width="263" height="24" fill="none" viewBox="0 0 263 24"><mask id="mask0_119_79" width="263" height="24" x="0" y="0" maskUnits="userSpaceOnUse" style="mask-type:luminance"><path fill="#fff" d="M263 0H.86658v24H263V0Z"/></mask><g mask="url(#mask0_119_79)"><path fill="#F8F7F2" d="M1.53617 23.5384h3.78231c.17724 0 .34725-.0692.47277-.1925.12551-.1233.19629-.2906.19683-.4652v-7.3198a.30458.30458 0 0 1 .01936-.1292.3077.3077 0 0 1 .07182-.1098.31365.31365 0 0 1 .11145-.0708.31823.31823 0 0 1 .13116-.0191h2.57784c4.42379 0 7.46409-3.0329 7.46409-7.3852 0-4.35229-3.0464-7.38522-7.46409-7.38522H1.53617c-.17742.00052-.34743.07019-.47289.19379-.12545.1236-.19617.29109-.1967.46588V22.8807c.00053.1746.07131.3419.19683.4652.12551.1233.29552.1925.47276.1925ZM5.98808 9.95658V5.74494a.30669.30669 0 0 1 .01938-.12947.31057.31057 0 0 1 .07174-.11015.31625.31625 0 0 1 .11137-.07133.32017.32017 0 0 1 .1313-.01988h2.44311c1.37342 0 2.34462 1.05589 2.34462 2.44062s-.9712 2.43867-2.34462 2.43867H6.32187a.31986.31986 0 0 1-.13325-.0196.3139.3139 0 0 1-.11262-.0729.30779.30779 0 0 1-.07123-.1126.30469.30469 0 0 1-.01669-.13172ZM18.8733 23.5384h3.7823c.1772 0 .3472-.0692.4727-.1925s.1963-.2906.1969-.4652v-7.4506a.3094.3094 0 0 1 .02-.1291.31172.31172 0 0 1 .0718-.1098.31925.31925 0 0 1 .111-.0714.32287.32287 0 0 1 .131-.0205h1.0054a.45606.45606 0 0 1 .272.0418c.084.0416.1527.108.1965.19l3.2072 7.6487c.1327.2951.368.5586.7018.5586h4.0839a.62281.62281 0 0 0 .2972-.0709.61114.61114 0 0 0 .2258-.203.6006.6006 0 0 0 .0988-.2851.59854.59854 0 0 0-.0528-.2968l-3.4404-7.9122c-.1348-.2971-.1348-.5943.1327-.7924 2.0751-1.5848 3.3138-3.6252 3.3138-6.1312 0-4.35823-3.0464-7.38522-7.4641-7.38522h-7.3635c-.1775.00052-.3475.07019-.4729.19379-.1255.1236-.1962.29109-.1967.46588V22.8807c.0005.1746.0713.3419.1968.4652.1255.1233.2955.1925.4728.1925Zm4.4519-13.58182V5.74494a.30927.30927 0 0 1 .02-.12911.31226.31226 0 0 1 .0718-.1098.31809.31809 0 0 1 .111-.07139.32239.32239 0 0 1 .131-.02053h2.4451c1.3713 0 2.3426 1.05589 2.3426 2.44062s-.9713 2.43867-2.3426 2.43867H23.659a.32004.32004 0 0 1-.1329-.0203.31502.31502 0 0 1-.1122-.0729.30904.30904 0 0 1-.0713-.1123.30569.30569 0 0 1-.0174-.13132ZM36.2445 23.5384h12.1493c.1772 0 .3472-.0692.4727-.1925s.1963-.2906.1969-.4652v-3.6272c-.0006-.1748-.0713-.3423-.1968-.4659-.1254-.1236-.2954-.1933-.4728-.1938h-7.3636a.31785.31785 0 0 1-.1311-.0191.31437.31437 0 0 1-.1115-.0707.309.309 0 0 1-.0718-.1098.30625.30625 0 0 1-.0194-.1292v-3.4946a.30717.30717 0 0 1 .0194-.1294.31166.31166 0 0 1 .0717-.1102.31636.31636 0 0 1 .1114-.0713.321.321 0 0 1 .1313-.0199h7.0378c.1774-.0005.3474-.0702.4729-.1938s.1962-.2911.1967-.4659v-3.6252c-.0005-.17481-.0712-.3423-.1967-.4659-.1255-.1236-.2955-.19327-.4729-.19379h-7.0378a.32038.32038 0 0 1-.1308-.01974.31681.31681 0 0 1-.1111-.07082.31031.31031 0 0 1-.0718-.10944.30653.30653 0 0 1-.0201-.12885V5.74494a.30749.30749 0 0 1 .0194-.12947.31129.31129 0 0 1 .0717-.11015.317.317 0 0 1 .1114-.07133.32033.32033 0 0 1 .1313-.01988h7.3636c.1774-.00052.3474-.07019.4728-.19379.1255-.1236.1962-.29109.1968-.46588V1.12125c-.0006-.1748-.0713-.34228-.1968-.46588-.1254-.1236-.2954-.19327-.4728-.1938H36.2445c-.1767.00157-.3457.0717-.4703.19519-.1246.12348-.1947.29038-.1952.46449V22.8807c.0005.174.0707.3406.1954.4638.1246.1232.2936.1929.4701.1939ZM58.5644 24c4.486 0 7.9326-2.8665 7.9326-7.4169 0-3.6273-1.9083-5.745-5.5559-6.82462l-2.5396-.75873c-1.6086-.46157-2.3768-1.15295-2.3768-2.2742 0-1.18861.9049-2.01073 2.4773-2.01073 1.5403 0 2.6141.65967 2.6141 2.01073v.23177c.0005.17462.0713.3419.1968.46519.1255.12328.2955.19251.4728.19251h3.8486c.1773 0 .3473-.06923.4728-.19251.1255-.12329.1963-.29057.1968-.46519v-.22187C66.2999 2.73578 63.1872 0 58.7695 0c-4.7515 0-7.999 2.97152-7.999 6.98902 0 3.36768 2.1757 5.77068 5.4895 6.66018l2.4773.6597c1.673.4615 2.4753 1.252 2.4753 2.506 0 1.4501-1.0698 2.4723-2.7106 2.4723-1.4719 0-2.614-.9569-2.614-2.4723v-.3309c-.0005-.1748-.0713-.3423-.1967-.4659-.1255-.1236-.2955-.1932-.4729-.1938H51.239c-.1774.0006-.3474.0702-.4729.1938-.1254.1236-.1961.2911-.1967.4659v.1565c0 4.4256 3.5471 7.3595 7.999 7.3595h-.004Zm10.5104-.4616H81.224c.1773 0 .3473-.0692.4728-.1925s.1963-.2906.1968-.4652v-3.6272c-.0005-.1748-.0712-.3423-.1967-.4659-.1254-.1236-.2954-.1933-.4729-.1938h-7.3595a.31785.31785 0 0 1-.1311-.0191.31437.31437 0 0 1-.1115-.0707.309.309 0 0 1-.0718-.1098.30625.30625 0 0 1-.0194-.1292v-3.4946a.30717.30717 0 0 1 .0194-.1294.31166.31166 0 0 1 .0717-.1102.31636.31636 0 0 1 .1114-.0713.32076.32076 0 0 1 .1313-.0199h7.0378c.1772-.0005.347-.0702.4722-.1939.1251-.1237.1954-.2911.1954-.4658v-3.6252c0-.17463-.0703-.34212-.1954-.46578-.1252-.12366-.295-.19339-.4722-.19391h-7.0378a.32038.32038 0 0 1-.1308-.01974.31681.31681 0 0 1-.1111-.07082.31031.31031 0 0 1-.0718-.10944.30653.30653 0 0 1-.0201-.12885V5.74494a.30749.30749 0 0 1 .0194-.12947.31129.31129 0 0 1 .0717-.11015.317.317 0 0 1 .1114-.07133.32007.32007 0 0 1 .1313-.01988h7.3595a.68046.68046 0 0 0 .2572-.0496.6716.6716 0 0 0 .2183-.14279.65883.65883 0 0 0 .1462-.21423.6519.6519 0 0 0 .0519-.25305V1.12125a.65194.65194 0 0 0-.0519-.25305.65882.65882 0 0 0-.1462-.21423.67166.67166 0 0 0-.2183-.14279.68062.68062 0 0 0-.2572-.0496H69.0788c-.1774.00052-.3474.07019-.4729.19379-.1254.1236-.1961.29109-.1967.46588V22.8807c.0006.1746.0713.3419.1968.4652.1256.1233.2956.1925.4728.1925h-.004Zm15.4972 0h3.7803c.1772 0 .3473-.0692.4728-.1925s.1963-.2906.1968-.4652v-10.749c0-.5606.4685-.5943.6696-.099l4.2508 10.8797c.0456.1707.1444.323.2826.4353.1382.1124.3088.1791.4875.1907h4.1845c.1773 0 .3473-.0692.4728-.1925s.1963-.2906.1968-.4652V1.12125c-.0005-.1748-.0712-.34228-.1967-.46588-.1255-.1236-.2955-.19327-.4729-.1938h-3.7783c-.1774.00053-.3474.0702-.4729.1938-.1254.1236-.1961.29109-.1967.46588V11.8683c0 .5606-.4685.5943-.6696.099L89.5286 1.08758c-.0458-.17057-.1448-.32269-.2829-.43497-.1381-.1123-.3085-.1791-.4872-.19103H84.576c-.1774.00052-.3474.07019-.4729.19379-.1254.1236-.1961.29109-.1967.46588V22.8807c.0006.1746.0713.3419.1969.4652.1255.1233.2955.1925.4727.1925h-.004Zm23.16 0h3.821c.177 0 .347-.0692.473-.1925.125-.1233.196-.2906.196-.4652V5.74494a.3188.3188 0 0 1 .021-.1296c.016-.04132.04-.07884.072-.11009a.32128.32128 0 0 1 .112-.07124.31909.31909 0 0 1 .131-.0199h4.659c.176-.0026.344-.07325.467-.19668.124-.12343.193-.28974.193-.46299V1.12125a.65994.65994 0 0 0-.193-.46243c-.124-.12332-.291-.19413-.467-.19724H102.08c-.177.00052-.347.07019-.473.19379-.125.1236-.196.29109-.197.46588v3.63319c.001.17479.072.34228.197.46588.126.1236.296.19327.473.19379h4.653c.045-.0023.089.0047.131.02053.042.01584.079.04017.111.07139.031.03122.056.06864.072.1098.016.04117.022.08517.02.12911V22.8807c0 .1746.071.3419.197.4652.125.1233.295.1925.472.1925h-.004Zm19.346 0h3.783c.177 0 .347-.0692.472-.1925.126-.1233.197-.2906.197-.4652v-7.3198c-.003-.044.004-.088.019-.1292.016-.0413.041-.0787.072-.1098.032-.0312.07-.0553.112-.0708a.3169.3169 0 0 1 .131-.0191h2.578c4.424 0 7.464-3.0329 7.464-7.3852 0-4.35229-3.047-7.38522-7.464-7.38522h-7.372c-.177.00052-.347.07019-.473.19379-.125.1236-.196.29109-.196.46588V22.8807c.002.1762.075.3444.202.4677.128.1233.3.1916.479.19h-.004Zm4.448-13.58182V5.74494c-.003-.04412.004-.08829.02-.1296.016-.04132.041-.07884.073-.11009.031-.03125.069-.05553.111-.07124a.32382.32382 0 0 1 .132-.0199h2.447c1.371 0 2.343 1.05589 2.343 2.44062s-.972 2.43067-2.343 2.43067h-2.443c-.045.0029-.09-.0036-.131-.0191-.042-.0154-.081-.0395-.112-.0706-.032-.0311-.057-.0685-.073-.1098-.016-.0412-.023-.0853-.02-.12932h-.004Zm12.887 13.58182h12.15c.177 0 .347-.0692.472-.1925.126-.1233.197-.2906.197-.4652v-3.6272c0-.1748-.071-.3423-.197-.4659-.125-.1236-.295-.1933-.472-.1938h-7.36a.3169.3169 0 0 1-.131-.0191.31905.31905 0 0 1-.112-.0707c-.032-.0311-.057-.0685-.073-.1097-.016-.0412-.022-.0853-.02-.1293v-3.4946c-.002-.0441.004-.0882.02-.1296.016-.0413.041-.0788.073-.11.031-.0313.07-.0556.111-.0713a.32382.32382 0 0 1 .132-.0199h6.258c.177-.0005.347-.0702.473-.1938.125-.1236.196-.2911.196-.4659v-3.6252c0-.17481-.071-.3423-.196-.4659-.126-.1236-.296-.19327-.473-.19379h-6.258a.3215.3215 0 0 1-.131-.01976c-.042-.01559-.08-.03969-.111-.07072-.032-.03104-.057-.06831-.073-.10938a.31573.31573 0 0 1-.021-.12899V5.74494c-.002-.04412.004-.08829.02-.1296.016-.04132.041-.07884.073-.11009.031-.03125.07-.05553.111-.07124a.32382.32382 0 0 1 .132-.0199h7.364c.176-.00156.345-.07169.47-.19518.124-.12348.195-.29038.195-.46449V1.12125c0-.1748-.071-.34228-.197-.46588-.125-.1236-.295-.19327-.472-.1938h-12.146c-.177.00053-.347.0702-.473.1938-.125.1236-.196.29109-.196.46588V22.8807c0 .1746.071.3419.197.4652.125.1233.295.1925.472.1925h-.004Zm15.495 0h3.783c.177 0 .347-.0692.473-.1925.125-.1233.196-.2906.196-.4652v-7.4506c-.002-.0439.005-.0879.02-.1291.016-.0412.041-.0786.072-.1098.032-.0312.07-.0555.111-.0714a.32555.32555 0 0 1 .131-.0205h1.006c.092-.0144.188.0002.272.0418.084.0416.152.108.196.19l3.217 7.6487c.133.2951.368.5586.702.5586h4.084c.104.0014.206-.023.297-.0709.092-.0478.169-.1177.226-.203a.59767.59767 0 0 0 .099-.2851.59537.59537 0 0 0-.053-.2968l-3.448-7.9122c-.133-.2971-.133-.5943.134-.7924 2.075-1.5848 3.314-3.6252 3.314-6.1312 0-4.35823-3.046-7.38522-7.464-7.38522h-7.363c-.178.00052-.348.07019-.473.19379-.126.1236-.197.29109-.197.46588V22.8807c0 .1746.071.3419.197.4652.125.1233.295.1925.473.1925h-.005Zm4.452-13.58182V5.74494a.33358.33358 0 0 1 .02-.12911c.016-.04116.041-.07858.072-.1098a.32943.32943 0 0 1 .111-.07139.32506.32506 0 0 1 .131-.02053h2.443c1.374 0 2.345 1.05589 2.345 2.44062s-.971 2.43867-2.345 2.43867h-2.439c-.045.0027-.09-.0042-.133-.0203a.32048.32048 0 0 1-.112-.0729.3006.3006 0 0 1-.071-.1123.32562.32562 0 0 1-.018-.13132h-.004Zm12.92 13.58182h3.782c.177 0 .347-.0692.473-.1925.125-.1233.196-.2906.197-.4652v-8.1103c-.003-.044.003-.0881.019-.1294.016-.0413.04-.0789.072-.1102.031-.0313.069-.0556.111-.0713a.32163.32163 0 0 1 .131-.0199h6.493c.178-.0005.348-.0702.473-.1938.126-.1236.196-.2911.197-.4659v-3.6252c-.001-.17481-.071-.3423-.197-.4659-.125-.1236-.295-.19327-.473-.19379h-6.493c-.044.00259-.089-.00414-.13-.01974-.042-.01561-.08-.03975-.111-.07082-.032-.03107-.056-.06837-.072-.10944-.016-.04108-.023-.08499-.02-.12885V5.74494c-.003-.04402.003-.08815.019-.12947.016-.04131.04-.07886.072-.11015.031-.03129.069-.0556.111-.07133a.32094.32094 0 0 1 .131-.01988h6.837c.178-.00052.348-.07019.473-.19379.126-.1236.196-.29109.197-.46588V1.12125c-.001-.1748-.071-.34228-.197-.46588-.125-.1236-.295-.19327-.473-.1938h-11.614c-.178.00053-.348.0702-.473.1938-.126.1236-.196.29109-.197.46588V22.8807c.001.174.071.3406.196.4638.124.1232.293.1929.47.1939h-.004Zm14.96 0h12.149c.178 0 .348-.0692.473-.1925.126-.1233.196-.2906.197-.4652v-3.6272c-.001-.1748-.071-.3423-.197-.4659-.125-.1236-.295-.1933-.473-.1938h-7.361a.3216.3216 0 0 1-.132-.0191c-.042-.0155-.08-.0396-.111-.0707-.032-.0311-.057-.0685-.073-.1097-.016-.0412-.023-.0853-.02-.1293v-3.4946c-.003-.0441.004-.0882.02-.1296.016-.0413.041-.0788.073-.11.031-.0313.069-.0556.111-.0713a.32382.32382 0 0 1 .132-.0199h6.257c.178-.0005.348-.0702.473-.1938.126-.1236.196-.2911.197-.4659v-3.6252c-.001-.17481-.071-.3423-.197-.4659-.125-.1236-.295-.19327-.473-.19379h-6.257a.3215.3215 0 0 1-.131-.01976.3214.3214 0 0 1-.112-.07072c-.031-.03104-.056-.06831-.072-.10938a.31573.31573 0 0 1-.021-.12899V5.74494c-.003-.04412.004-.08829.02-.1296.016-.04132.041-.07884.073-.11009.031-.03125.069-.05553.111-.07124a.32382.32382 0 0 1 .132-.0199h7.361c.178 0 .348-.0695.474-.19321.125-.12371.196-.29151.196-.46646V1.12125c-.001-.1748-.071-.34228-.197-.46588-.125-.1236-.295-.19327-.473-.1938H192.24c-.177.00053-.347.0702-.473.1938-.125.1236-.196.29109-.197.46588V22.8807c.001.0868.018.1727.052.2528.034.08.084.1527.147.2138.062.0611.137.1094.218.1422a.6806.6806 0 0 0 .257.0489h-.004ZM214.741 24c4.585 0 7.864-2.504 8.043-7.6804 0-.1748-.071-.3423-.197-.4659-.125-.1236-.295-.1933-.472-.1938h-3.918c-.177.0005-.347.0702-.472.1938-.126.1236-.197.2911-.197.4659-.133 1.8126-1.207 2.6367-2.777 2.6367-1.239 0-2.142-.4615-2.644-1.4837-.535-1.1193-.535-3.0984-.535-5.4716 0-2.37327 0-4.35824.535-5.47355.468-1.02221 1.407-1.48379 2.644-1.48379 1.538 0 2.614.92316 2.777 2.63872.014.176.093.34067.223.46216.13.12149.302.19116.481.19553h3.883c.177 0 .347-.06922.472-.19251.126-.12329.197-.29057.197-.46518C222.601 2.47231 219.189 0 214.741 0c-3.081 0-5.289 1.08758-6.594 2.93388-1.506 1.91168-1.841 4.95254-1.841 9.06712 0 4.1146.402 7.1198 1.841 9.0651C209.483 22.8807 211.656 24 214.741 24Zm15.328-.4616h3.821c.177 0 .347-.0692.472-.1925.126-.1233.197-.2906.197-.4652V5.74494c-.003-.04402.004-.08815.02-.12947.015-.04131.04-.07886.071-.11015a.32123.32123 0 0 1 .112-.07133.3184.3184 0 0 1 .131-.01988h4.452c.177-.00052.347-.07019.473-.19379.125-.1236.196-.29109.197-.46588V1.12125c-.001-.1748-.072-.34228-.197-.46588-.126-.1236-.296-.19327-.473-.1938h-14.727c-.177.00053-.348.0702-.473.1938s-.196.29109-.197.46588v3.63319c.001.17479.072.34228.197.46588.125.1236.296.19327.473.19379h4.452a.3184.3184 0 0 1 .131.01988c.042.01573.08.04004.111.07133.032.03129.057.06884.072.11015.016.04132.023.08545.02.12947V22.8807c0 .1733.07.3394.194.4624.123.1231.291.1932.467.1953h.004Zm16.101-13.3183h2.141c.036.0033.072-.0012.106-.0132a.25341.25341 0 0 0 .091-.0565c.025-.0252.045-.0556.057-.0891.012-.0335.017-.06928.014-.10472V3.23104c.002-.03444.017-.06687.042-.09128.024-.0244.057-.03913.092-.04145h2.108a.24751.24751 0 0 0 .106-.01318c.034-.01205.065-.03135.09-.05652.026-.02518.045-.0556.058-.0891.012-.03349.016-.06924.013-.10468V.72505c.003-.03544-.001-.07118-.013-.10468-.013-.0335-.032-.06392-.058-.0891-.025-.02516-.056-.04446-.09-.05651a.24753.24753 0 0 0-.106-.01318h-7.038a.24753.24753 0 0 0-.106.01318.2518.2518 0 0 0-.091.05652c-.025.02517-.045.0556-.057.08909-.012.0335-.017.06924-.014.10468v2.10978c-.003.03544.002.07119.014.10468.012.0335.032.06392.057.0891a.25182.25182 0 0 0 .091.05652c.034.01205.07.01655.106.01318h1.974c.035.00277.067.0177.092.04206.024.02437.039.05654.041.09067v6.73545c-.002.03531.005.07051.018.10321.014.0328.034.0622.06.0864.027.0241.058.0423.092.0533.034.0111.07.0147.106.0107h.004Zm6.525 0h2.143c.036.0033.072-.0012.106-.0132a.25341.25341 0 0 0 .091-.0565c.025-.0252.045-.0556.057-.0891.012-.0335.017-.06928.014-.10472V5.24177c0-.29716.333-.29716.402-.03368l1.236 4.78217a.28161.28161 0 0 0 .094.16144c.049.0417.111.0658.176.0684h1.407c.065-.003.126-.0273.175-.069.048-.0418.081-.0984.093-.16084l1.238-4.78217c.067-.26348.403-.26348.403.03368v4.71481c-.003.03554.001.07132.014.10482.012.0335.032.0639.058.089a.2518.2518 0 0 0 .091.0564c.034.0121.07.0166.106.0133h2.142c.036.0033.072-.0012.106-.0132.034-.0121.065-.0314.09-.0565.026-.0252.045-.0556.058-.0891.012-.0335.016-.06928.013-.10472V.72505c.003-.03544-.001-.07118-.013-.10468-.013-.0335-.032-.06392-.058-.0891-.025-.02516-.056-.04446-.09-.05651a.24753.24753 0 0 0-.106-.01318h-3.159c-.07-.00294-.139.01852-.194.06058a.29313.29313 0 0 0-.108.16921l-1.367 5.64788c-.067.26347-.336.26347-.402 0L256.103.66958a.33302.33302 0 0 0-.135-.15163.33936.33936 0 0 0-.199-.04647h-3.08a.2521.2521 0 0 0-.107.01318c-.034.01205-.064.03135-.09.05652-.026.02518-.045.0556-.057.0891-.013.0335-.017.06924-.014.10468v9.23153c-.002.03481.004.06961.017.10211.013.0324.033.0617.059.0857.025.0241.056.0425.089.0538.034.0114.069.0154.105.012h.004Z"/></g></svg>
