<svg xmlns="http://www.w3.org/2000/svg" width="228" height="18" fill="none" viewBox="0 0 228 18"><g clip-path="url(#clip0_1_222)"><mask id="mask0_1_222" width="19" height="18" x="0" y="0" maskUnits="userSpaceOnUse" style="mask-type:luminance"><path fill="#fff" d="M18.6385 0H0v18h18.6385V0Z"/></mask><g fill="#000" mask="url(#mask0_1_222)"><path d="M9.32 13.2233c.8662 0 1.713-.2482 2.4332-.7131.7202-.4649 1.2813-1.1256 1.6126-1.8986.3312-.77301.4175-1.62352.2481-2.44392-.1695-.82041-.5871-1.57384-1.2-2.16497-.613-.59112-1.3937-.99338-2.2435-1.15586-.84972-.16249-1.73028-.0779-2.53023.24305-.79995.32096-1.48335.86386-1.96372 1.56001-.48037.69615-.73613 1.51427-.73491 2.35083.00163 1.12046.46365 2.19446 1.2846 2.98616.82094.7917 1.93369 1.2364 3.09386 1.2364ZM9.32 15.1355c2.6154 0 4.7477.3432 4.7477 1.1351S11.9415 18 9.32 18c-2.62153 0-4.74769-.939-4.74769-1.7294 0-.7905 2.12462-1.1351 4.74769-1.1351ZM9.32 0c2.6154 0 4.7477.939 4.7477 1.73091S11.9415 2.86455 9.32 2.86455c-2.62153 0-4.74769-.33876-4.74769-1.13364S6.69693 0 9.32 0ZM2.96615 9.00074c0 2.52576-.35538 4.58506-1.17384 4.58506S0 11.5325 0 9.00074C0 6.469.9723 4.41568 1.79231 4.41568c.82 0 1.17384 2.05184 1.17384 4.58506ZM18.6385 9.00074c0 2.52576-.9723 4.58506-1.7908 4.58506-.8185 0-1.1754-2.0533-1.1754-4.58506 0-2.53174.3554-4.58506 1.1754-4.58506.82 0 1.7908 2.05184 1.7908 4.58506Z"/></g><mask id="mask1_1_222" width="201" height="18" x="27" y="0" maskUnits="userSpaceOnUse" style="mask-type:luminance"><path fill="#fff" d="M228 0H27.4415v18H228V0Z"/></mask><g mask="url(#mask1_1_222)"><path fill="#000" d="M27.9538 17.6538h2.8939c.1356 0 .2657-.0519.3617-.1444.096-.0924.1502-.2179.1506-.3489v-5.4898a.22499.22499 0 0 1 .0148-.097c.012-.0309.0308-.0589.055-.0823a.23937.23937 0 0 1 .0852-.0531.24822.24822 0 0 1 .1004-.0143h1.9723c3.3846 0 5.7108-2.27468 5.7108-5.5389S36.9677.34618 33.5877.34618h-5.6339c-.1357.0004-.2658.05265-.3618.14535-.096.0927-.1501.21831-.1505.34941V17.1605c.0004.131.0546.2565.1506.3489.0961.0925.2261.1444.3617.1444ZM31.36 7.46744V4.30871a.22686.22686 0 0 1 .0148-.0971.23435.23435 0 0 1 .0549-.08262.24308.24308 0 0 1 .0852-.0535.24955.24955 0 0 1 .1005-.0149h1.8692c1.0508 0 1.7939.79191 1.7939 1.83045 0 1.03855-.7431 1.82898-1.7939 1.82898h-1.8692a.24822.24822 0 0 1-.102-.01468.24151.24151 0 0 1-.0861-.05463.2304.2304 0 0 1-.0545-.08449.22466.22466 0 0 1-.0128-.09878Zm9.8585 10.18636h2.8938c.1356 0 .2657-.0519.3617-.1444.0961-.0924.1502-.2179.1506-.3489v-5.5879a.22556.22556 0 0 1 .0154-.0968.23368.23368 0 0 1 .0549-.0824.24286.24286 0 0 1 .0849-.0535.2495.2495 0 0 1 .1002-.0154h.7692a.35562.35562 0 0 1 .2081.0313c.0643.0312.1169.081.1504.1425l2.4538 5.7365c.1016.2214.2816.419.537.419h3.1246a.48394.48394 0 0 0 .2274-.0531c.0699-.036.1294-.0883.1728-.1523.0434-.0641.0694-.1376.0755-.2139a.44045.44045 0 0 0-.0403-.2225l-2.6324-5.9342c-.103-.2228-.103-.4457.1016-.5943 1.5877-1.18858 2.5354-2.71891 2.5354-4.5984 0-3.26867-2.3308-5.53892-5.7108-5.53892h-5.6338c-.1358.0004-.2659.05265-.3619.14535-.0959.0927-.15.21831-.1504.34941V17.1605c.0004.131.0545.2565.1505.3489.0961.0925.2262.1444.3618.1444Zm3.4061-10.18636V4.30871a.22596.22596 0 0 1 .0154-.09683.23389.23389 0 0 1 .0549-.08236.24383.24383 0 0 1 .0849-.05354.25107.25107 0 0 1 .1002-.01539h1.8708c1.0492 0 1.7923.79191 1.7923 1.83045 0 1.03855-.7431 1.82898-1.7923 1.82898H44.88a.2491.2491 0 0 1-.1016-.0152.24186.24186 0 0 1-.0859-.05467.23138.23138 0 0 1-.0546-.08421.22655.22655 0 0 1-.0133-.0985Zm9.8846 10.18636h9.2954c.1356 0 .2657-.0519.3617-.1444.0961-.0924.1502-.2179.1506-.3489v-2.7204c-.0004-.1311-.0545-.2567-.1505-.3494s-.226-.145-.3618-.1453h-5.6338a.24804.24804 0 0 1-.1004-.0144.24182.24182 0 0 1-.0853-.053c-.0241-.0234-.0429-.0514-.0549-.0824a.22431.22431 0 0 1-.0148-.0969v-2.6209a.22544.22544 0 0 1 .0148-.0971.23178.23178 0 0 1 .0549-.0826.24318.24318 0 0 1 .0852-.0535.24886.24886 0 0 1 .1005-.0149h5.3846c.1357-.0004.2658-.0526.3618-.1453.096-.0927.1501-.2183.1505-.3494V7.61601c-.0004-.13109-.0545-.25671-.1505-.34941s-.2261-.14495-.3618-.14535h-5.3846a.24929.24929 0 0 1-.1001-.0148.24244.24244 0 0 1-.085-.05311.23272.23272 0 0 1-.055-.08208.22656.22656 0 0 1-.0153-.09664V4.30871a.22535.22535 0 0 1 .0148-.0971.23168.23168 0 0 1 .0549-.08262.24218.24218 0 0 1 .0852-.0535.24955.24955 0 0 1 .1005-.0149h5.6338c.1358-.0004.2658-.05265.3618-.14535.096-.0927.1501-.21832.1505-.34941V.84094c-.0004-.1311-.0545-.25671-.1505-.34941s-.226-.14496-.3618-.14535h-9.2954c-.1352.00118-.2645.05377-.3598.14639-.0953.09261-.149.21778-.1494.34837V17.1605c.0004.1305.0541.2555.1495.3479.0954.0924.2247.1446.3597.1454ZM71.5861 18c3.4324 0 6.0693-2.1499 6.0693-5.5627 0-2.72042-1.46-4.3087-4.2508-5.11844l-1.9431-.56905c-1.2307-.34618-1.8184-.86471-1.8184-1.70565 0-.89146.6923-1.50805 1.8954-1.50805 1.1784 0 2 .49476 2 1.50805v.17383c.0004.13096.0545.25643.1505.34889.0961.09247.2262.14439.3618.14439h2.9446c.1356 0 .2657-.05192.3617-.14439.096-.09246.1502-.21793.1506-.34889v-.1664C77.5046 2.05184 75.1231 0 71.7431 0c-3.6354 0-6.12 2.22864-6.12 5.24177 0 2.52579 1.6646 4.32802 4.2 4.99513l1.8954.4948c1.28.3461 1.8938.939 1.8938 1.8794 0 1.0876-.8185 1.8543-2.0738 1.8543-1.1262 0-2-.7176-2-1.8543v-.2481c-.0004-.1311-.0546-.2567-.1505-.3494-.096-.0927-.2261-.1449-.3618-.1453h-3.0447c-.1357.0004-.2658.0526-.3618.1453-.096.0927-.1501.2183-.1505.3494v.1174c0 3.3192 2.7139 5.5196 6.12 5.5196h-.0031Zm8.0416-.3462h9.2954c.1356 0 .2657-.0519.3617-.1444.096-.0924.1502-.2179.1506-.3489v-2.7204c-.0004-.1311-.0545-.2567-.1505-.3494s-.2261-.145-.3618-.1453h-5.6308a.2478.2478 0 0 1-.1003-.0144.24094.24094 0 0 1-.0853-.053.23173.23173 0 0 1-.055-.0824.22431.22431 0 0 1-.0148-.0969v-2.6209a.22551.22551 0 0 1 .0149-.0971.23285.23285 0 0 1 .0548-.0826.24409.24409 0 0 1 .0852-.0535.24911.24911 0 0 1 .1005-.0149h5.3846c.1356-.0004.2655-.0527.3613-.1454.0957-.0928.1495-.2184.1495-.3493V7.61601c0-.13096-.0538-.25658-.1495-.34932-.0958-.09274-.2257-.14504-.3613-.14544h-5.3846a.24929.24929 0 0 1-.1001-.0148.24335.24335 0 0 1-.085-.05311.23406.23406 0 0 1-.055-.08208.22656.22656 0 0 1-.0153-.09664V4.30871a.22542.22542 0 0 1 .0149-.0971.23275.23275 0 0 1 .0548-.08262.24308.24308 0 0 1 .0852-.0535.2498.2498 0 0 1 .1005-.0149h5.6308a.5294.5294 0 0 0 .1967-.03721.51552.51552 0 0 0 .1671-.10709.49793.49793 0 0 0 .1119-.16067.4817.4817 0 0 0 .0397-.18979V.84094a.48173.48173 0 0 0-.0397-.1898.49793.49793 0 0 0-.1119-.16066.51544.51544 0 0 0-.1671-.1071.52931.52931 0 0 0-.1967-.0372h-9.2923c-.1358.0004-.2659.05265-.3618.14535-.096.0927-.1501.21831-.1505.34941V17.1605c.0004.131.0545.2565.1505.3489.0961.0925.2262.1444.3618.1444h-.0031Zm11.8569 0h2.8923c.1356 0 .2657-.0519.3617-.1444.0961-.0924.1502-.2179.1506-.3489V9.0988c0-.42047.3585-.44573.5123-.07428l3.2523 8.15978c.0349.128.1105.2423.2163.3265.1057.0843.2362.1343.373.143h3.2019c.135 0 .265-.0519.361-.1444.096-.0924.151-.2179.151-.3489V.84094c0-.1311-.055-.25671-.151-.34941s-.226-.14496-.361-.14535h-2.8912c-.1357.0004-.2658.05265-.3618.14535-.096.0927-.1501.21831-.1505.34941V8.9012c0 .42047-.3584.44572-.5123.07428L95.2769.81568c-.0351-.12792-.1108-.24201-.2164-.32623-.1057-.08421-.2361-.13432-.3728-.14327h-3.2c-.1358.0004-.2658.05265-.3618.14535-.096.0927-.1501.21831-.1505.34941V17.1605c.0004.131.0545.2565.1506.3489.096.0925.2261.1444.3617.1444h-.0031Zm17.7204 0h2.923c.135 0 .265-.0519.361-.1444.096-.0924.151-.2179.151-.3489V4.30871a.23046.23046 0 0 1 .015-.09721.25126.25126 0 0 1 .056-.08256.24045.24045 0 0 1 .085-.05343.25302.25302 0 0 1 .101-.01492h3.565c.134-.00196.262-.05494.357-.14752.094-.09257.147-.2173.147-.34724V.84094c0-.12982-.053-.25433-.148-.34683-.094-.09249-.222-.1456-.356-.14793H104.88c-.136.0004-.266.05265-.362.14535-.096.0927-.15.21831-.15.34941v2.72489c0 .13109.054.25671.15.34941s.226.14495.362.14535h3.56a.25064.25064 0 0 1 .1.01539.24242.24242 0 0 1 .085.05354c.024.02342.043.05148.055.08236a.22875.22875 0 0 1 .015.09683V17.1605c.001.131.055.2565.151.3489.096.0925.226.1444.362.1444h-.003Zm14.801 0h2.894c.136 0 .266-.0519.362-.1444.096-.0924.15-.2179.15-.3489v-5.4898c-.002-.033.003-.066.015-.097.012-.0309.031-.0589.055-.0823a.2377.2377 0 0 1 .085-.0531.25136.25136 0 0 1 .101-.0143h1.972c3.385 0 5.711-2.27468 5.711-5.5389S133.02.34618 129.64.34618H124c-.136.0004-.266.05265-.362.14535-.096.0927-.15.21831-.15.34941V17.1605c.001.1322.057.2583.155.3508.098.0925.229.1437.366.1425h-.003Zm3.403-10.18636V4.30871c-.002-.03309.003-.06622.016-.09721.012-.03098.031-.05912.055-.08256a.24045.24045 0 0 1 .085-.05343c.033-.01178.067-.01687.101-.01492h1.872c1.05 0 1.793.79191 1.793 1.83045 0 1.03855-.743 1.82303-1.793 1.82303h-1.869a.2469.2469 0 0 1-.1-.01432c-.032-.01161-.062-.02968-.086-.053-.024-.02333-.043-.05138-.055-.0823-.012-.03091-.018-.06398-.016-.09701h-.003Zm9.86 10.18636h9.296c.135 0 .265-.0519.361-.1444.096-.0924.151-.2179.151-.3489v-2.7204c0-.1311-.055-.2567-.151-.3494s-.226-.145-.361-.1453h-5.631a.25319.25319 0 0 1-.101-.0144c-.032-.0116-.061-.0296-.085-.053-.025-.0233-.043-.0513-.056-.0823a.2295.2295 0 0 1-.015-.097v-2.6209a.23041.23041 0 0 1 .015-.0972c.013-.031.031-.0591.056-.0825a.24005.24005 0 0 1 .085-.0535.25533.25533 0 0 1 .101-.0149h4.788c.135-.0004.265-.0526.361-.1453.096-.0927.15-.2183.151-.3494V7.61601c-.001-.13109-.055-.25671-.151-.34941s-.226-.14495-.361-.14535h-4.788a.25003.25003 0 0 1-.1-.01481c-.032-.01169-.061-.02977-.086-.05304-.024-.02328-.043-.05123-.055-.08204-.012-.03081-.018-.06377-.016-.09674V4.30871a.23046.23046 0 0 1 .015-.09721c.013-.03098.031-.05912.056-.08256a.24045.24045 0 0 1 .085-.05343.25302.25302 0 0 1 .101-.01492h5.634c.135-.00118.264-.05377.36-.14639.095-.09262.149-.21779.149-.34837V.84094c0-.1311-.055-.25671-.151-.34941s-.226-.14496-.361-.14535h-9.293c-.135.0004-.266.05265-.362.14535-.095.0927-.15.21831-.15.34941V17.1605c0 .131.055.2565.151.3489.096.0925.226.1444.361.1444h-.003Zm11.856 0h2.893c.136 0 .266-.0519.362-.1444.096-.0924.15-.2179.151-.3489v-5.5879c-.002-.033.003-.066.015-.0968.012-.0309.031-.059.055-.0824a.24147.24147 0 0 1 .085-.0535.24907.24907 0 0 1 .1-.0154h.769c.071-.0108.144.0002.208.0313.065.0312.117.081.151.1425l2.461 5.7365c.102.2214.282.419.537.419h3.125c.079.0011.157-.0172.227-.0531.07-.036.13-.0883.173-.1523.044-.0641.07-.1376.076-.2139a.43882.43882 0 0 0-.041-.2225l-2.638-5.9342c-.102-.2228-.102-.4457.103-.5943 1.588-1.18858 2.535-2.71891 2.535-4.5984 0-3.26867-2.33-5.53892-5.71-5.53892h-5.634c-.136.0004-.266.05265-.362.14535-.096.0927-.15.21831-.151.34941V17.1605c.001.131.055.2565.151.3489.096.0925.226.1444.362.1444h-.003Zm3.406-10.18636V4.30871a.22875.22875 0 0 1 .015-.09683c.012-.03088.031-.05894.055-.08236a.24242.24242 0 0 1 .085-.05354.25064.25064 0 0 1 .1-.01539h1.869c1.051 0 1.794.79191 1.794 1.83045 0 1.03855-.743 1.82898-1.794 1.82898h-1.866a.24702.24702 0 0 1-.101-.0152.23542.23542 0 0 1-.086-.05467c-.025-.02396-.043-.05269-.055-.08421-.012-.03153-.016-.06513-.013-.0985h-.003Zm9.884 10.18636h2.894c.136 0 .266-.0519.362-.1444.096-.0924.15-.2179.151-.3489v-6.0827c-.003-.033.002-.0661.014-.0971s.031-.0591.055-.0826a.24147.24147 0 0 1 .085-.0535.25178.25178 0 0 1 .101-.0149h4.968c.135-.0004.265-.0526.361-.1453.096-.0927.151-.2183.151-.3494V7.61601c0-.13109-.055-.25671-.151-.34941s-.226-.14495-.361-.14535h-4.968a.24932.24932 0 0 1-.1-.0148.24066.24066 0 0 1-.085-.05311c-.024-.0233-.043-.05128-.055-.08208a.22788.22788 0 0 1-.015-.09664V4.30871c-.003-.03302.002-.06612.014-.0971.012-.03099.031-.05915.055-.08262a.24048.24048 0 0 1 .085-.0535.25248.25248 0 0 1 .101-.0149h5.231c.135-.0004.266-.05265.362-.14535.095-.0927.15-.21832.15-.34941V.84094c0-.1311-.055-.25671-.15-.34941-.096-.0927-.227-.14496-.362-.14535h-8.886c-.136.0004-.266.05265-.362.14535-.096.0927-.15.21831-.151.34941V17.1605c.001.1305.054.2555.15.3479.095.0924.224.1446.359.1454h-.003Zm11.447 0h9.295c.136 0 .266-.0519.362-.1444.096-.0924.15-.2179.15-.3489v-2.7204c0-.1311-.054-.2567-.15-.3494s-.226-.145-.362-.1453h-5.632c-.035.0021-.069-.0028-.101-.0144s-.061-.0296-.085-.053c-.025-.0233-.044-.0513-.056-.0823a.2295.2295 0 0 1-.015-.097v-2.6209a.23041.23041 0 0 1 .015-.0972c.012-.031.031-.0591.055-.0825.025-.0235.054-.0417.086-.0535a.25268.25268 0 0 1 .101-.0149h4.787c.136-.0004.266-.0526.362-.1453.096-.0927.15-.2183.151-.3494V7.61601c-.001-.13109-.055-.25671-.151-.34941s-.226-.14495-.362-.14535h-4.787a.25228.25228 0 0 1-.101-.01481.24063.24063 0 0 1-.085-.05304c-.024-.02328-.043-.05123-.055-.08204-.013-.03081-.018-.06377-.016-.09674V4.30871a.23046.23046 0 0 1 .015-.09721c.012-.03098.031-.05912.055-.08256.025-.02344.054-.04165.086-.05343a.25043.25043 0 0 1 .101-.01492h5.632c.136 0 .266-.05213.362-.14492.096-.09278.15-.21862.15-.34984V.84094c0-.1311-.054-.25671-.15-.34941s-.226-.14496-.362-.14535h-9.295c-.136.0004-.266.05265-.362.14535-.096.0927-.15.21831-.151.34941V17.1605c0 .0651.014.1296.04.1896.026.0601.064.1146.112.1604.048.0458.105.0821.167.1067.062.0245.129.037.197.0366h-.003ZM191.077 18c3.508 0 6.017-1.878 6.154-5.7603-.001-.1311-.055-.2567-.151-.3494s-.226-.145-.362-.1454h-2.996c-.136.0004-.266.0527-.362.1454-.096.0927-.15.2183-.151.3494-.101 1.3595-.923 1.9776-2.124 1.9776-.948 0-1.639-.3462-2.023-1.1129-.41-.8394-.41-2.3237-.41-4.10366 0-1.77994 0-3.26867.41-4.10516.358-.76665 1.076-1.11283 2.023-1.11283 1.177 0 2 .69236 2.124 1.97903.011.132.072.25551.171.34663.1.09111.231.14337.368.14665h2.97c.136 0 .266-.05193.362-.14439.096-.09246.15-.21793.151-.34889C197.091 1.85423 194.48 0 191.077 0c-2.357 0-4.046.81568-5.045 2.20041-1.152 1.43376-1.409 3.71441-1.409 6.80033 0 3.08596.308 5.33986 1.409 6.79886C187.054 17.1605 188.717 18 191.077 18Zm11.728-.3462h2.923c.135 0 .265-.0519.361-.1444.096-.0924.151-.2179.151-.3489V4.30871a.2301.2301 0 0 1 .015-.0971c.012-.03099.031-.05915.055-.08262a.24048.24048 0 0 1 .085-.0535.24766.24766 0 0 1 .1-.0149h3.407c.135-.0004.265-.05265.361-.14535.096-.0927.15-.21832.151-.34941V.84094c-.001-.1311-.055-.25671-.151-.34941s-.226-.14496-.361-.14535h-11.268c-.136.0004-.266.05265-.362.14535-.096.0927-.15.21831-.15.34941v2.72489c0 .13109.054.25671.15.34941s.226.14495.362.14535h3.406a.24766.24766 0 0 1 .1.0149c.032.0118.061.03003.086.0535.024.02347.043.05163.055.08262.012.03098.017.06408.014.0971V17.1605c.001.13.054.2546.149.3469.094.0922.223.1449.358.1464h.003Zm12.318-9.98876h1.639a.19358.19358 0 0 0 .081-.00988c.026-.00904.049-.02351.069-.04239.02-.01888.035-.0417.044-.06682.009-.02513.013-.05193.01-.07851V2.42328c.002-.02583.013-.05015.032-.06846a.1124.1124 0 0 1 .071-.03109h1.613a.19358.19358 0 0 0 .081-.00988c.026-.00904.049-.02352.069-.0424.02-.01887.035-.04169.044-.06681.009-.02513.013-.05194.01-.07852V.54379c.003-.02658-.001-.05339-.01-.07851-.009-.02513-.024-.04794-.044-.06682-.02-.01888-.043-.03335-.069-.0424a.19352.19352 0 0 0-.081-.00988h-5.385a.19156.19156 0 0 0-.081.00989.19583.19583 0 0 0-.07.04239c-.019.01888-.034.0417-.043.06682-.01.02512-.013.05193-.011.0785v1.58234c-.002.02658.001.05339.011.07852.009.02512.024.04794.043.06681.02.01888.044.03336.07.0424a.19162.19162 0 0 0 .081.00988h1.511a.11473.11473 0 0 1 .07.03155c.018.01827.029.0424.031.068v5.05159c-.001.02647.004.05289.014.07744.01.02455.026.04664.046.06473.02.01809.044.03176.07.04004a.19611.19611 0 0 0 .081.00796h.003Zm4.992 0h1.64a.19627.19627 0 0 0 .082-.00988c.026-.00904.049-.02351.069-.04239a.19693.19693 0 0 0 .044-.06682c.009-.02513.013-.05193.01-.07851V3.93132c0-.22286.255-.22286.308-.02525l.946 3.58662a.20673.20673 0 0 0 .072.12105c.037.03132.084.04941.134.0513h1.077c.049-.00222.096-.02046.133-.05175.037-.03129.063-.07379.072-.1206l.947-3.58662c.051-.19761.308-.19761.308.02525v3.53612c-.002.02665.001.05349.011.0786.009.02512.024.04791.044.06675a.196.196 0 0 0 .07.04233.19227.19227 0 0 0 .081.00992h1.639a.19358.19358 0 0 0 .081-.00988c.026-.00904.049-.02351.069-.04239.02-.01888.035-.0417.044-.06682.009-.02513.013-.05193.01-.07851V.54379c.003-.02658-.001-.05339-.01-.07851-.009-.02513-.024-.04794-.044-.06682-.02-.01888-.043-.03335-.069-.0424a.19352.19352 0 0 0-.081-.00988h-2.417c-.054-.0022-.106.0139-.148.04544-.043.03154-.072.0765-.083.12691l-1.046 4.23591c-.051.1976-.257.1976-.308 0L222.723.50219c-.021-.04734-.057-.0871-.103-.11373a.2642.2642 0 0 0-.152-.03485h-2.357a.1962.1962 0 0 0-.082.00989c-.026.00903-.049.0235-.069.04239a.19688.19688 0 0 0-.044.06682c-.009.02512-.012.05193-.01.0785v6.92366c-.001.02612.003.05223.013.07655.01.02432.025.04627.045.06434.019.01807.043.03183.069.04033a.189.189 0 0 0 .079.00895h.003Z"/></g></g><defs><clipPath id="clip0_1_222"><path fill="#fff" d="M0 0h228v18H0z"/></clipPath></defs></svg>
