<svg xmlns="http://www.w3.org/2000/svg" width="22" height="22" fill="none" viewBox="0 0 22 22"><path fill="#000" fill-rule="evenodd" d="M11 0c-.6188 0-1.18859.15379-1.81247.41178-.60239.24912-1.302.6163-2.17323 1.07351L4.89872 2.5955c-1.06927.56111-1.92498 1.01016-2.58568 1.45138-.68449.45712-1.21169.93843-1.59562 1.59042-.38263.6498-.55476 1.35342-.6373 2.19134C-.00002 8.64199-.00002 9.64224 0 10.9003v.1994c-.00001 1.258-.00001 2.2583.08011 3.0717.08255.8379.25468 1.5415.63731 2.1913.38393.652.91113 1.1333 1.59562 1.5904.6607.4413 1.5164.8903 2.58566 1.4514l2.11551 1.1101c.87127.4573 1.57093.8245 2.17332 1.0736C9.81141 21.8462 10.3812 22 11 22s1.1885-.1538 1.8124-.4118c.6024-.2491 1.302-.6163 2.1732-1.0735l2.1157-1.1102c1.0692-.5611 1.9249-1.0101 2.5856-1.4514.6845-.4571 1.2117-.9384 1.5956-1.5904.3827-.6498.5548-1.3534.6374-2.1913C22 13.358 22 12.3578 22 11.0998v-.1996c0-1.25796 0-2.25822-.0801-3.07156-.0826-.83792-.2547-1.54154-.6374-2.19134-.3839-.65199-.9111-1.1333-1.5956-1.59042-.6607-.44122-1.5164-.89027-2.5856-1.45139L14.9857 1.4853c-.8712-.45721-1.5709-.82439-2.1733-1.07352C12.1885.15378 11.6188 0 11 0ZM7.69569 2.86111c.91043-.47777 1.54843-.81173 2.07847-1.03096.51594-.21336.87834-.29527 1.22584-.29527.3474 0 .7099.08191 1.2258.29527.5301.21923 1.168.55319 2.0785 1.03096l2.0465 1.07395c1.1151.58515 1.8984.99736 2.4837 1.38824.2887.19285.5157.37192.6988.55197l-3.4081 1.70407-8.69745-4.57763.26794-.1406Zm-1.86861.98059-.1779.09336c-1.11503.58514-1.89841.99736-2.48372 1.38824-.28878.19285-.51568.37192-.69887.55197L11 10.142l3.4352-1.71765-8.3973-4.41964a.7662.7662 0 0 1-.21082-.16301ZM1.72693 7.2215c-.05168.21885-.09074.46738-.11934.75762-.07185.7294-.07271 1.65422-.07271 2.96098v.1198c0 1.3068.00086 2.2316.07271 2.961.07028.7134.20379 1.1747.43244 1.563.22737.3861.55624.7127 1.12543 1.0928.58531.3909 1.36869.8031 2.48372 1.3883l2.04651 1.0739c.91043.4777 1.54843.8117 2.07847 1.0309.16741.0693.31854.1246.45844.1679v-8.8634L1.72693 7.2215ZM11.7675 20.3377c.1397-.0433.291-.0986.4583-.1679.5301-.2192 1.168-.5532 2.0785-1.0309l2.0465-1.0739c1.1151-.5852 1.8984-.9974 2.4837-1.3883.5692-.3801.8981-.7067 1.1254-1.0928.2286-.3883.3622-.8496.4325-1.563.0718-.7294.0727-1.6542.0727-2.961v-.1198c0-1.30676-.0009-2.23158-.0727-2.96098-.0286-.29025-.0677-.53877-.1193-.75764l-3.3894 1.69468v3.10714c0 .4238-.3436.7674-.7674.7674-.4239 0-.7675-.3436-.7675-.7674V9.68358l-3.5813 1.79072v8.8634Z" clip-rule="evenodd"/></svg>
