<svg xmlns="http://www.w3.org/2000/svg" width="81" height="16" fill="none" viewBox="0 0 81 16"><path fill="#219653" d="M15.1875 0H0v15.1875h15.1875V0ZM31.6401 0H16.4526v15.1875h15.1875V0ZM48.0942 0H32.9067v15.1875h15.1875V0ZM64.5469 0H49.3594v15.1875h15.1875V0ZM80.9995 0H65.812v15.1875h15.1875V0Z"/><path fill="#fff" d="m7.59375 10.2357 2.30977-.5853.96508 2.9742-3.27485-2.3889Zm5.31565-3.84429H8.84356L7.59375 2.5629l-1.2498 3.82851H2.27813l3.29062 2.37305-1.2498 3.82854 3.29062-2.3731 2.025-1.45544 3.27483-2.37305ZM24.0464 10.2357l2.3097-.5853.9651 2.9742-3.2748-2.3889Zm5.3156-3.84429h-4.0658L24.0464 2.5629l-1.2498 3.82851h-4.0658l3.2906 2.37305-1.2498 3.82854 3.2906-2.3731 2.025-1.45544 3.2748-2.37305ZM40.5005 10.2357l2.3098-.5853.965 2.9742-3.2748-2.3889Zm5.3156-3.84429h-4.0658L40.5005 2.5629l-1.2498 3.82851h-4.0658l3.2906 2.37305-1.2498 3.82854 3.2906-2.3731 2.025-1.45544 3.2748-2.37305ZM56.9531 10.2357l2.3098-.5853.965 2.9742-3.2748-2.3889Zm5.3156-3.84429h-4.0658L56.9531 2.5629l-1.2498 3.82851h-4.0658l3.2906 2.37305-1.2498 3.82854 3.2906-2.3731 2.025-1.45544 3.2748-2.37305ZM73.4058 10.2357l2.3097-.5853.9651 2.9742-3.2748-2.3889Zm5.3156-3.84429h-4.0658L73.4058 2.5629 72.156 6.39141h-4.0659l3.2907 2.37305L70.131 12.593l3.2906-2.3731 2.025-1.45544 3.2748-2.37305Z"/></svg>
