<svg xmlns="http://www.w3.org/2000/svg" width="40" height="40" fill="none" viewBox="0 0 40 40"><rect width="40" height="40" fill="#EEE8E4" rx="12"/><path fill="#E40022" d="M23.3817 12h-2.6965v10.8985c0 1.2986-1.037 2.3653-2.3277 2.3653-1.2906 0-2.3277-1.0667-2.3277-2.3653 0-1.2753 1.0141-2.3188 2.2586-2.3652v-2.7362c-2.7425.0464-4.955 2.2957-4.955 5.1014 0 2.8291 2.2585 5.1015 5.0472 5.1015 2.7886 0 5.0472-2.2956 5.0472-5.1015v-5.5884c1.0141.7421 2.2586 1.1827 3.5722 1.2059v-2.7363c-2.028-.0696-3.6183-1.7391-3.6183-3.7797Z"/></svg>
