<svg xmlns="http://www.w3.org/2000/svg" width="23" height="23" fill="none" viewBox="0 0 23 23"><path fill="#000" d="m10.9808 22.0806.2776-.4689-1.3809-.8173-.27754.4688 1.38084.8174Zm-3.51834-.4689.27753.4689 1.38088-.8174-.27753-.4688-1.38088.8173Zm2.1375-.3485c-.04857.0822-.13337.1303-.23954.1303-.10616 0-.19098-.0481-.23955-.1303l-1.38088.8174c.72417 1.2235 2.51671 1.2235 3.24081 0l-1.38084-.8174ZM8.07672 5.88199h2.56748V4.27734H8.07672v1.60465Zm9.03948 6.47211v.8559h1.6046v-.8559h-1.6046ZM1.60465 13.21v-.8559H0v.8559h1.60465ZM0 13.21c0 .9858-.00042 1.7654.04258 2.3959.0435.6375.13411 1.1809.34422 1.6881l1.4825-.614c-.11562-.2792-.18786-.6275-.2258-1.1834-.03842-.5631-.03885-1.2788-.03885-2.2866H0Zm5.41653 5.6004c-.84754-.0271-1.30814-.1007-1.66564-.2489l-.61406 1.4826c.63849.2644 1.34275.3418 2.22839.3702l.05131-1.6039ZM.3868 17.294a5.082 5.082 0 0 0 2.75003 2.7501l.61406-1.4826A3.47698 3.47698 0 0 1 1.8693 16.68l-1.4825.614Zm16.7294-4.084c0 1.0078-.0004 1.7235-.0388 2.2866-.038.5559-.1103.9042-.2258 1.1834l1.4824.614c.2102-.5072.3008-1.0506.3443-1.6881.043-.6305.0425-1.4101.0425-2.3959h-1.6046Zm-3.7605 7.2043c.8856-.0284 1.5898-.1058 2.2284-.3702l-.6142-1.4826c-.3574.1482-.8181.2218-1.6656.2489l.0514 1.6039Zm3.4959-3.7343a3.47695 3.47695 0 0 1-1.8817 1.8815l.6142 1.4826c1.245-.5158 2.2343-1.5051 2.7499-2.7501l-1.4824-.614ZM10.6442 5.88199c1.4162 0 2.4221.00085 3.2043.07521.7702.07324 1.2403.21207 1.6076.43712l.8384-1.36818c-.6618-.40552-1.4065-.58196-2.2942-.66637-.8757-.08327-1.971-.08243-3.3561-.08243v1.60465Zm8.0766 6.47211c0-1.3852.0009-2.48043-.0824-3.35621-.0843-.88772-.2608-1.63243-.6664-2.29417l-1.3682.83842c.2251.36725.364.83738.4371 1.60764.0745.78219.0753 1.78802.0753 3.20432h1.6046Zm-3.2647-5.95978a3.47589 3.47589 0 0 1 1.1477 1.14782l1.3682-.83842a5.07966 5.07966 0 0 0-1.6775-1.67758l-.8384 1.36818ZM8.07672 4.27734c-1.38518 0-2.48041-.00084-3.35619.08243-.8877.08441-1.63242.26085-2.29416.66637l.83843 1.36818c.36723-.22505.83737-.36388 1.60762-.43712.7822-.07436 1.78805-.07521 3.2043-.07521V4.27734ZM1.60465 12.3541c0-1.4163.00084-2.42213.07522-3.20432.07324-.77026.21207-1.24039.43711-1.60764L.74879 6.70372C.34328 7.36546.16683 8.11017.08243 8.99789-.00085 9.87367 0 10.9689 0 12.3541h1.60465Zm.82172-7.32796A5.08146 5.08146 0 0 0 .74879 6.70372l1.36819.83842A3.4769 3.4769 0 0 1 3.2648 6.39432l-.83843-1.36818ZM8.84334 20.7944c-.21482-.3629-.40323-.6829-.58595-.9344-.19226-.2647-.41251-.5039-.71746-.6842l-.81697 1.381c.04932.0293.1174.0828.23612.2462.12823.1765.2734.4202.50338.8087l1.38088-.8173Zm-3.47812-.3801c.47652.0153.78114.0258 1.01253.0539.21875.0267.30085.0624.34521.0886l.81697-1.381c-.30989-.1833-.63599-.2599-.96789-.3004-.31929-.0389-.70783-.0506-1.15551-.065l-.05131 1.6039Zm5.89318 1.1974c.2299-.3885.3751-.6322.5034-.8087.1186-.1634.1868-.2169.2361-.2462l-.817-1.381c-.3049.1803-.5252.4195-.7174.6842-.1828.2515-.3712.5715-.586.9344l1.3809.8173Zm2.0459-2.8013c-.4476.0144-.8362.0261-1.1555.065-.3319.0405-.658.1171-.9679.3004l.817 1.381c.0444-.0262.1264-.0619.3452-.0886.2314-.0281.536-.0386 1.0126-.0539l-.0514-1.6039Z"/><path fill="#000" d="M12.971 1.60465h2.407V0h-2.407v1.60465Zm8.4244 6.01744v.80232H23v-.80232h-1.6046Zm0 .80232c0 .94558-.0004 1.61459-.0363 2.14039-.0353.5186-.1025.839-.208 1.0936l1.4826.6141c.1998-.4827.2853-.9982.3263-1.5985.0405-.5931.04-1.32597.04-2.24959h-1.6046Zm-.2443 3.23399a3.20858 3.20858 0 0 1-1.7369 1.7368l.6142 1.4826c1.1794-.4886 2.1167-1.4258 2.6053-2.6053l-1.4826-.6141ZM15.378 1.60465c1.3287 0 2.2689.00084 2.9992.07029.7185.06831 1.1506.19728 1.4858.40263l.8384-1.36819c-.6295-.3858-1.3363-.5524-2.1723-.63188C17.7052-.00085 16.6757 0 15.378 0v1.60465ZM23 7.62209c0-1.29764.0009-2.32721-.0774-3.15118-.0796-.8359-.2461-1.54265-.632-2.17224l-1.3681.83842c.2054.33509.3344.76726.4027 1.4857.0694.7304.0702 1.67059.0702 2.9993H23Zm-3.137-5.54452c.4319.26462.7949.6277 1.0595 1.05952l1.3681-.83842A4.81277 4.81277 0 0 0 20.7014.70938l-.8384 1.36819ZM12.971 0c-1.2976 0-2.3272-.00085-3.15114.0775-.83589.07947-1.54264.24607-2.17223.63188l.83842 1.36819c.33509-.20535.76725-.33432 1.4857-.40263.73035-.06945 1.67065-.07029 2.99925-.07029V0ZM7.64763.70938a4.81375 4.81375 0 0 0-1.58928 1.58929l1.36819.83842a3.20923 3.20923 0 0 1 1.05951-1.05952L7.64763.70938Zm-.65952 4.41367c.05344-1.02738.18706-1.57578.43843-1.98596l-1.36819-.83842c-.46763.7631-.61575 1.64573-.67273 2.74103l1.60249.08335ZM17.9454 15.2279c.8202-.0272 1.481-.1008 2.083-.3501l-.6142-1.4826c-.323.1339-.7425.203-1.5221.2289l.0533 1.6038Z"/><path stroke="#000" stroke-linecap="round" stroke-linejoin="round" stroke-width="1.66667" d="M5.62634 12.5664h.00963m3.72461 0h.00963m3.72489 0h.0096"/></svg>
