<svg xmlns="http://www.w3.org/2000/svg" width="135" height="61" fill="none" viewBox="0 0 135 61"><g fill="#fff" filter="url(#filter0_f_1_379)"><path d="M20.1616 21.2774c.424 1.5229 5.0485 19.1844 5.0485 19.2635 0 .0396 2.0801.0792 4.6447.0792h4.6447l.1212-.5538c.0808-.2967 1.252-4.7665 2.6051-9.9285l2.4637-9.3944-2.2214-.0593c-1.2117-.0198-2.2618-.0198-2.3022.0395-.0605.0593-.9087 3.2831-1.9184 7.1793-.9895 3.8963-1.8781 7.4167-1.9993 7.8123l-.2019.7515H28.6634l-.202-.7515c-.1211-.3956-.9289-3.6194-1.8377-7.1596-.9087-3.5402-1.7165-6.764-1.8376-7.1793l-.202-.7318H20l.1616.6329ZM75.897 24.4023v1.5822h-2.0396l.0606 1.7207.0606 1.7404.9693.0593.9491.0594v11.0558h8.4817v-3.56h-4.4428v-7.5156h4.2408v-3.56h-4.2408v-3.1644H75.897v1.5822ZM45.6035 25.8644c-1.4137.3956-2.484 1.0087-3.5139 2.0173-1.8175 1.7603-2.605 4.2325-2.1406 6.7245.727 4.1533 4.3014 6.7047 8.8855 6.3289 2.7263-.2176 5.19-1.78 6.2199-3.916.2423-.5142.4443-.9889.4443-1.0482 0-.0594-.9895-.0989-2.181-.0989-2.1002 0-2.2012.0197-2.6859.5142-1.0097 1.0878-2.9685 1.4042-4.3821.6922-.8482-.4351-1.2723-.8504-1.7367-1.7404-.6665-1.3054-.929-1.246 5.4322-1.246h5.7554v-.7911c0-1.0878-.3837-2.7294-.8481-3.6392-.5453-1.068-2.1003-2.6502-3.0898-3.1248-1.8175-.9296-4.261-1.1867-6.1592-.6725Zm4.059 3.738c.6462.4153 1.5954 1.5822 1.5954 1.9382 0 .0989-1.5348.178-3.4331.178-3.8167 0-3.8975-.0395-2.8878-1.2064.8684-1.0087 1.6358-1.3647 2.908-1.3647.8482 0 1.3127.1187 1.8175.4549ZM62.9715 25.8827c-2.1608.5933-4.0388 2.1755-5.0284 4.2324-.4644.9691-.525 1.3449-.525 3.1842 0 1.8394.0606 2.2151.525 3.1843 1.454 3.0457 4.4832 4.7071 8.0778 4.4697 3.3118-.2175 5.8159-2.1755 6.7449-5.2411.1211-.4351.1211-.4351-2.0599-.4351l-2.1809.0198-.4039.6329c-.9088 1.3844-2.8878 1.958-4.3216 1.246-2.9484-1.5031-2.9484-6.2498 0-7.7529 1.4338-.712 3.4128-.1385 4.3216 1.246l.4039.6329 2.1809.0198c2.5243 0 2.4436.1186 1.2925-2.0372-1.2319-2.2942-3.2917-3.5006-6.1795-3.6193-1.1511-.0593-2.1002.0198-2.8474.2176ZM91.7711 25.7843c-2.2416.5538-4.362 2.2745-5.3313 4.3116-.4847.9889-.5453 1.3647-.5453 3.204 0 1.8393.0606 2.2151.5453 3.204 1.6559 3.4611 5.7352 5.2213 9.7336 4.2127 3.009-.7714 5.2906-3.1843 5.7756-6.1311.263-1.5427-.04-3.4414-.727-4.7863-.767-1.4437-2.5647-3.0655-4.059-3.6193-1.3329-.4944-4.1197-.6922-5.3919-.3956Zm4.0388 3.8765c1.3733.9295 1.8983 1.9382 1.8781 3.6193-.0202 1.3845-.3231 2.2151-1.0905 3.0062-2.4637 2.5712-6.5631.6923-6.5631-2.9864 0-1.6416.9895-3.3227 2.3223-3.8764 1.0501-.4549 2.5647-.356 3.4532.2373ZM110.468 26.1229c-.364.178-.99.6725-1.353 1.1076l-.707.8109V25.9845h-4.039v14.6356h4.019l.06-4.4105c.061-4.1533.081-4.4302.525-5.1027.606-.9691 1.495-1.3448 3.474-1.5031l1.615-.1186v-3.6985h-1.454c-.949 0-1.716.1187-2.14.3362Z"/></g><path fill="#fff" d="M20.1616 21.2774c.424 1.5229 5.0485 19.1844 5.0485 19.2635 0 .0396 2.0801.0792 4.6447.0792h4.6447l.1212-.5538c.0808-.2967 1.252-4.7665 2.6051-9.9285l2.4637-9.3944-2.2214-.0593c-1.2117-.0198-2.2618-.0198-2.3022.0395-.0605.0593-.9087 3.2831-1.9184 7.1793-.9895 3.8963-1.8781 7.4167-1.9993 7.8123l-.2019.7515H28.6634l-.202-.7515c-.1211-.3956-.9289-3.6194-1.8377-7.1596-.9087-3.5402-1.7165-6.764-1.8376-7.1793l-.202-.7318H20l.1616.6329ZM75.897 24.4023v1.5822h-2.0396l.0606 1.7207.0606 1.7404.9693.0593.9491.0594v11.0558h8.4817v-3.56h-4.4428v-7.5156h4.2408v-3.56h-4.2408v-3.1644H75.897v1.5822ZM45.6035 25.8644c-1.4137.3956-2.484 1.0087-3.5139 2.0173-1.8175 1.7603-2.605 4.2325-2.1406 6.7245.727 4.1533 4.3014 6.7047 8.8855 6.3289 2.7263-.2176 5.19-1.78 6.2199-3.916.2423-.5142.4443-.9889.4443-1.0482 0-.0594-.9895-.0989-2.181-.0989-2.1002 0-2.2012.0197-2.6859.5142-1.0097 1.0878-2.9685 1.4042-4.3821.6922-.8482-.4351-1.2723-.8504-1.7367-1.7404-.6665-1.3054-.929-1.246 5.4322-1.246h5.7554v-.7911c0-1.0878-.3837-2.7294-.8481-3.6392-.5453-1.068-2.1003-2.6502-3.0898-3.1248-1.8175-.9296-4.261-1.1867-6.1592-.6725Zm4.059 3.738c.6462.4153 1.5954 1.5822 1.5954 1.9382 0 .0989-1.5348.178-3.4331.178-3.8167 0-3.8975-.0395-2.8878-1.2064.8684-1.0087 1.6358-1.3647 2.908-1.3647.8482 0 1.3127.1187 1.8175.4549ZM62.9715 25.8827c-2.1608.5933-4.0388 2.1755-5.0284 4.2324-.4644.9691-.525 1.3449-.525 3.1842 0 1.8394.0606 2.2151.525 3.1843 1.454 3.0457 4.4832 4.7071 8.0778 4.4697 3.3118-.2175 5.8159-2.1755 6.7449-5.2411.1211-.4351.1211-.4351-2.0599-.4351l-2.1809.0198-.4039.6329c-.9088 1.3844-2.8878 1.958-4.3216 1.246-2.9484-1.5031-2.9484-6.2498 0-7.7529 1.4338-.712 3.4128-.1385 4.3216 1.246l.4039.6329 2.1809.0198c2.5243 0 2.4436.1186 1.2925-2.0372-1.2319-2.2942-3.2917-3.5006-6.1795-3.6193-1.1511-.0593-2.1002.0198-2.8474.2176ZM91.7711 25.7843c-2.2416.5538-4.362 2.2745-5.3313 4.3116-.4847.9889-.5453 1.3647-.5453 3.204 0 1.8393.0606 2.2151.5453 3.204 1.6559 3.4611 5.7352 5.2213 9.7336 4.2127 3.009-.7714 5.2906-3.1843 5.7756-6.1311.263-1.5427-.04-3.4414-.727-4.7863-.767-1.4437-2.5647-3.0655-4.059-3.6193-1.3329-.4944-4.1197-.6922-5.3919-.3956Zm4.0388 3.8765c1.3733.9295 1.8983 1.9382 1.8781 3.6193-.0202 1.3845-.3231 2.2151-1.0905 3.0062-2.4637 2.5712-6.5631.6923-6.5631-2.9864 0-1.6416.9895-3.3227 2.3223-3.8764 1.0501-.4549 2.5647-.356 3.4532.2373ZM110.468 26.1229c-.364.178-.99.6725-1.353 1.1076l-.707.8109V25.9845h-4.039v14.6356h4.019l.06-4.4105c.061-4.1533.081-4.4302.525-5.1027.606-.9691 1.495-1.3448 3.474-1.5031l1.615-.1186v-3.6985h-1.454c-.949 0-1.716.1187-2.14.3362Z"/><defs><filter id="filter0_f_1_379" width="134.062" height="60.3544" x="0" y=".64453" color-interpolation-filters="sRGB" filterUnits="userSpaceOnUse"><feFlood flood-opacity="0" result="BackgroundImageFix"/><feBlend in="SourceGraphic" in2="BackgroundImageFix" result="shape"/><feGaussianBlur result="effect1_foregroundBlur_1_379" stdDeviation="10"/></filter></defs></svg>
