<svg xmlns="http://www.w3.org/2000/svg" width="109" height="49" fill="none" viewBox="0 0 109 49"><path fill="#C10F27" d="M14.848 48.29C5.046 48.29.87 44.578.87 34.892V14.244C.87 4.964 4.814.44 14.79.44c9.222 0 13.282 3.712 13.282 11.426v3.828H19.72v-2.668c0-4.002-1.624-5.394-5.046-5.394-3.538 0-5.162 1.566-5.162 7.076v12.644c0-7.192 3.422-9.86 8.816-9.86 7.482 0 10.15 3.306 10.15 11.252v7.54c0 8.468-4.466 12.006-13.63 12.006Zm0-24.128c-3.654 0-5.336 1.276-5.336 5.046v6.148c0 4.002 1.566 5.22 5.22 5.22 3.77 0 5.104-1.218 5.104-5.046v-6.148c0-3.828-1.276-5.22-4.988-5.22ZM43.4434.44c9.802 0 13.978 3.712 13.978 13.34v20.706c0 9.338-3.944 13.804-13.92 13.804-9.222 0-13.282-3.77-13.282-11.426v-3.712h8.352v2.552c0 4.06 1.624 5.394 5.046 5.394 3.538 0 5.162-1.566 5.162-7.076V21.378c0 7.192-3.422 9.86-8.816 9.86-7.482 0-10.15-3.306-10.15-11.252v-7.598c0-8.41 4.466-11.948 13.63-11.948Zm0 24.128c3.654 0 5.336-1.276 5.336-5.046v-6.148c0-4.002-1.566-5.22-5.22-5.22-3.77 0-5.104 1.218-5.104 5.046v6.148c0 3.828 1.276 5.22 4.988 5.22Zm26.3818-18.56c3.248 0 5.7033 1.14066 7.366 3.422 1.7013 2.2427 2.552 5.4133 2.552 9.512 0 4.0987-.7927 7.308-2.378 9.628-1.5853 2.2813-4.0987 3.422-7.54 3.422-2.1267 0-3.9247-.522-5.394-1.566-1.4307-1.044-2.5133-2.5327-3.248-4.466-.7347-1.972-1.102-4.3113-1.102-7.018 0-4.0987.7733-7.2693 2.32-9.512 1.5467-2.28134 4.0213-3.422 7.424-3.422Zm.058 5.916c-.928 0-1.6047.58-2.03 1.74-.4253 1.16-.638 2.9387-.638 5.336 0 2.3587.2127 4.1373.638 5.336.4253 1.1987 1.102 1.798 2.03 1.798.928 0 1.6047-.5993 2.03-1.798.464-1.1987.696-2.9773.696-5.336 0-2.3973-.232-4.176-.696-5.336-.4253-1.16-1.102-1.74-2.03-1.74Zm29.348-5.336L76.2632 48h-6.786l22.968-41.412h6.786Zm-.406 15.95c2.1658 0 3.9828.522 5.4518 1.566 1.47 1.0053 2.572 2.4747 3.306 4.408.774 1.8947 1.16 4.2147 1.16 6.96 0 4.0987-.792 7.308-2.378 9.628-1.585 2.2813-4.098 3.422-7.5398 3.422-2.1267 0-3.9247-.522-5.394-1.566-1.4307-1.044-2.5133-2.5327-3.248-4.466-.7347-1.972-1.102-4.3113-1.102-7.018 0-4.0987.7733-7.2693 2.32-9.512 1.5467-2.2813 4.0213-3.422 7.424-3.422Zm.058 5.916c-.928 0-1.6047.58-2.03 1.74-.4253 1.16-.638 2.9387-.638 5.336 0 2.3587.2127 4.1373.638 5.336.4253 1.1987 1.102 1.798 2.03 1.798.928 0 1.6048-.58 2.0298-1.74.464-1.1987.696-2.9967.696-5.394s-.232-4.176-.696-5.336c-.425-1.16-1.1018-1.74-2.0298-1.74Z"/></svg>
