<svg xmlns="http://www.w3.org/2000/svg" width="101" height="49" fill="none" viewBox="0 0 101 49"><path fill="#C10F27" d="M14.5 48H5.278c.928-18.56 6.38-28.652 12.47-39.324H.406V.73h26.97v6.496C19.256 20.74 15.196 29.324 14.5 48Zm23.277 0V37.792H21.363v-5.278L32.441.73h13.978v30.218h2.842v6.844h-2.842V48h-8.642Zm-7.772-17.052h7.772V6.704l-7.772 24.244Zm31.1542-24.94c3.248 0 5.7033 1.14066 7.366 3.422 1.7013 2.2427 2.552 5.4133 2.552 9.512 0 4.0987-.7927 7.308-2.378 9.628-1.5853 2.2813-4.0987 3.422-7.54 3.422-2.1267 0-3.9247-.522-5.394-1.566-1.4307-1.044-2.5133-2.5327-3.248-4.466-.7347-1.972-1.102-4.3113-1.102-7.018 0-4.0987.7733-7.2693 2.32-9.512 1.5467-2.28134 4.0213-3.422 7.424-3.422Zm.058 5.916c-.928 0-1.6047.58-2.03 1.74-.4253 1.16-.638 2.9387-.638 5.336 0 2.3587.2127 4.1373.638 5.336.4253 1.1987 1.102 1.798 2.03 1.798.928 0 1.6047-.5993 2.03-1.798.464-1.1987.696-2.9773.696-5.336 0-2.3973-.232-4.176-.696-5.336-.4253-1.16-1.102-1.74-2.03-1.74Zm29.348-5.336L67.5972 48h-6.786l22.968-41.412h6.786Zm-.406 15.95c2.1653 0 3.9827.522 5.452 1.566 1.4693 1.0053 2.5713 2.4747 3.306 4.408.7733 1.8947 1.1598 4.2147 1.1598 6.96 0 4.0987-.7925 7.308-2.3778 9.628-1.5853 2.2813-4.0987 3.422-7.54 3.422-2.1267 0-3.9247-.522-5.394-1.566-1.4307-1.044-2.5133-2.5327-3.248-4.466-.7347-1.972-1.102-4.3113-1.102-7.018 0-4.0987.7733-7.2693 2.32-9.512 1.5467-2.2813 4.0213-3.422 7.424-3.422Zm.058 5.916c-.928 0-1.6047.58-2.03 1.74-.4253 1.16-.638 2.9387-.638 5.336 0 2.3587.2127 4.1373.638 5.336.4253 1.1987 1.102 1.798 2.03 1.798.928 0 1.6047-.58 2.03-1.74.464-1.1987.696-2.9967.696-5.394s-.232-4.176-.696-5.336c-.4253-1.16-1.102-1.74-2.03-1.74Z"/></svg>
