<svg xmlns="http://www.w3.org/2000/svg" width="109" height="49" fill="none" viewBox="0 0 109 49"><path fill="#C10F27" d="M14.79.44c9.338 0 13.34 2.9 13.34 9.86v4.466c0 3.654-1.45 6.67-6.844 7.946 5.626.812 7.714 4.234 7.714 9.164v5.742c0 7.308-4.466 10.672-14.21 10.672S.58 44.926.58 37.618v-5.742c0-4.93 2.088-8.352 7.714-9.164C2.9 21.436 1.45 18.42 1.45 14.766V10.3C1.45 3.34 5.452.44 14.79.44Zm0 19.72c3.654 0 4.698-1.044 4.698-4.408v-3.596c0-3.538-1.45-4.524-4.698-4.524-3.19 0-4.698.986-4.698 4.524v3.596c0 3.364 1.102 4.408 4.698 4.408Zm0 20.938c3.77 0 5.568-1.102 5.568-4.814v-4.698c0-3.538-1.45-4.524-5.568-4.524-4.06 0-5.568.986-5.568 4.524v4.698c0 3.712 1.798 4.814 5.568 4.814Zm33.2906-25.752v-2.784c0-3.132-1.392-4.408-4.698-4.408-3.48 0-5.22 1.682-5.22 5.742v3.074h-8.642v-3.596c0-8.758 4.06-12.934 13.746-12.934 9.628 0 13.456 3.306 13.456 10.962v2.9c0 5.22-1.972 8.12-16.24 25.752h16.356V48h-26.912v-7.656c17.632-21.054 18.154-21.866 18.154-24.998Zm21.0649-9.338c3.248 0 5.7033 1.14066 7.366 3.422 1.7013 2.2427 2.552 5.4133 2.552 9.512 0 4.0987-.7927 7.308-2.378 9.628-1.5853 2.2813-4.0987 3.422-7.54 3.422-2.1267 0-3.9247-.522-5.394-1.566-1.4307-1.044-2.5133-2.5327-3.248-4.466-.7347-1.972-1.102-4.3113-1.102-7.018 0-4.0987.7733-7.2693 2.32-9.512 1.5467-2.28134 4.0213-3.422 7.424-3.422Zm.058 5.916c-.928 0-1.6047.58-2.03 1.74-.4253 1.16-.638 2.9387-.638 5.336 0 2.3587.2127 4.1373.638 5.336.4253 1.1987 1.102 1.798 2.03 1.798.928 0 1.6047-.5993 2.03-1.798.464-1.1987.696-2.9773.696-5.336 0-2.3973-.232-4.176-.696-5.336-.4253-1.16-1.102-1.74-2.03-1.74Zm29.348-5.336L75.5835 48h-6.786l22.968-41.412h6.786Zm-.406 15.95c2.1655 0 3.9825.522 5.4525 1.566 1.469 1.0053 2.571 2.4747 3.306 4.408.773 1.8947 1.16 4.2147 1.16 6.96 0 4.0987-.793 7.308-2.378 9.628-1.586 2.2813-4.099 3.422-7.5405 3.422-2.1266 0-3.9246-.522-5.394-1.566-1.4307-1.044-2.5133-2.5327-3.248-4.466-.7347-1.972-1.102-4.3113-1.102-7.018 0-4.0987.7734-7.2693 2.32-9.512 1.5467-2.2813 4.0214-3.422 7.424-3.422Zm.058 5.916c-.928 0-1.6046.58-2.03 1.74-.4253 1.16-.638 2.9387-.638 5.336 0 2.3587.2127 4.1373.638 5.336.4254 1.1987 1.102 1.798 2.03 1.798.928 0 1.6047-.58 2.0305-1.74.464-1.1987.696-2.9967.696-5.394s-.232-4.176-.696-5.336c-.4258-1.16-1.1025-1.74-2.0305-1.74Z"/></svg>
