<svg xmlns="http://www.w3.org/2000/svg" width="105" height="26" fill="none" viewBox="0 0 105 26"><path fill="#219653" d="m11.5 17.7767 4.997-1.2798L18.5848 23 11.5 17.7767ZM23 9.37107h-8.7961L11.5 1 8.79613 9.37107H0l7.11905 5.18863-2.70387 8.3711 7.11902-5.1887 4.381-3.1824L23 9.37107Z"/><path fill="#000" d="M32.8643 6.20312V19h-2.628V6.20312h2.628Zm3.9375 0v2.06543H26.3604V6.20312h10.4414Zm3.2607 5.36138V19h-2.5313V9.49023h2.3819l.1494 2.07427Zm2.8652-2.13579-.0439 2.34669c-.1231-.0176-.2725-.0322-.4483-.044-.1699-.0175-.3251-.0263-.4658-.0263-.3574 0-.6679.0469-.9316.1406-.2578.0879-.4746.2197-.6504.3955-.1699.1758-.2988.3897-.3867.6416-.0821.252-.1289.5391-.1406.8613l-.5098-.1582c0-.6152.0615-1.1806.1846-1.6963.123-.5214.3017-.9755.5361-1.3623.2402-.3867.5332-.6855.8789-.89644.3457-.21094.7412-.31641 1.1865-.31641.1406 0 .2842.01172.4307.03516.1465.01758.2666.04394.3603.0791Zm6.8203 7.29489V9.49023h2.5313V19h-2.3818l-.1495-2.2764Zm.2813-1.9511.7471-.0176c0 .6328-.0733 1.2217-.2198 1.7666-.1464.539-.3662 1.0078-.6591 1.4062-.293.3926-.6621.7002-1.1075.9229-.4453.2168-.9697.3252-1.5732.3252-.4629 0-.8906-.0645-1.2832-.1934-.3867-.1347-.7207-.3428-1.002-.624-.2754-.2871-.4921-.6533-.6504-1.0986-.1523-.4512-.2285-.9932-.2285-1.626V9.49023h2.5313v6.16117c0 .2812.0322.5185.0967.7119.0703.1933.167.3515.29.4746.1231.123.2666.2109.4307.2637.1699.0527.3574.0791.5625.0791.5215 0 .9316-.1055 1.2304-.3164.3047-.211.5186-.4981.6416-.8614.1289-.3691.1934-.7793.1934-1.2304Zm9.3252 1.5996c0-.1817-.0527-.3457-.1582-.4922-.1055-.1465-.3018-.2813-.5889-.4043-.2812-.1289-.6885-.2461-1.2217-.3516-.4804-.1054-.9287-.2373-1.3447-.3955-.4101-.164-.7676-.3603-1.0722-.5889-.2989-.2285-.5333-.498-.7032-.8085-.1699-.3165-.2549-.6768-.2549-1.0811 0-.3984.085-.7734.2549-1.125.1758-.3516.4248-.6621.7471-.9316.3281-.27543.7266-.4893 1.1953-.64164.4746-.15821 1.0078-.23731 1.5996-.23731.8262 0 1.5352.13184 2.127.39551.5976.26367 1.0547.62694 1.3711 1.08984.3222.457.4834.9785.4834 1.5645h-2.5313c0-.2461-.0527-.4659-.1582-.6592-.0996-.1992-.2578-.3545-.4746-.4658-.2109-.1172-.4863-.1758-.8262-.1758-.2812 0-.5244.0498-.7295.1494-.205.0937-.3632.2226-.4746.3867-.1054.1582-.1582.334-.1582.5274 0 .1464.0293.2783.0879.3955.0645.1113.167.2138.3076.3076.1407.0937.3223.1816.545.2637.2285.0761.5097.1464.8437.2109.6855.1406 1.2979.3252 1.8369.5537.5391.2227.9668.5273 1.2832.9141.3164.3808.4746.8818.4746 1.5029 0 .4219-.0937.8086-.2812 1.1601-.1875.3516-.4571.6592-.8086.9229-.3516.2578-.7735.46-1.2656.6064-.4864.1407-1.0342.211-1.6436.211-.8848 0-1.6348-.1582-2.25-.4746-.6094-.3164-1.0723-.7178-1.3887-1.2041-.3105-.4922-.4658-.9961-.4658-1.5117h2.3994c.0117.3457.0996.624.2637.8349.1699.2109.3838.3633.6416.457.2637.0938.5479.1407.8525.1407.3282 0 .6006-.044.8174-.1319.2168-.0937.3809-.2168.4922-.3691.1172-.1582.1758-.3399.1758-.5449Zm8.7627-6.88187v1.79297h-5.5371V9.49023h5.5371Zm-4.166-2.34668h2.5312v8.99125c0 .2754.0352.4863.1055.6328.0762.1465.1875.249.334.3076.1465.0527.331.0791.5537.0791.1582 0 .2988-.0059.4219-.0176.1289-.0176.2373-.0351.3252-.0527l.0087 1.8633c-.2168.0703-.4511.1259-.7031.167-.2519.041-.5303.0615-.8349.0615-.5567 0-1.043-.0908-1.459-.2725-.4102-.1875-.7266-.4863-.9492-.8965-.2227-.4101-.334-.9492-.334-1.6172V7.14355Zm8.1386 4.17485v11.3378h-2.5312V9.49023h2.3467l.1845 1.82817Zm6.0206 2.8212v.1846c0 .6914-.0821 1.333-.2461 1.9248-.1582.5918-.3926 1.1074-.7032 1.5469-.3105.4336-.6972.7734-1.1601 1.0195-.4571.2403-.9844.3604-1.5821.3604-.58 0-1.0839-.1172-1.5117-.3516-.4277-.2344-.7881-.5625-1.081-.9844-.2871-.4277-.5186-.9228-.6944-1.4853-.1757-.5625-.3105-1.166-.4043-1.8106v-.4834c.0938-.6914.2286-1.3242.4043-1.8984.1758-.5801.4073-1.081.6944-1.5029.2929-.4278.6504-.75881 1.0722-.99318.4278-.23438.9287-.35157 1.503-.35157.6035 0 1.1338.11426 1.5908.34278.4629.22851.8496.55667 1.1601.98437.3165.4277.5538.9375.712 1.5293.164.5918.2461 1.248.2461 1.9687Zm-2.5401.1846v-.1846c0-.4042-.0351-.7763-.1055-1.1162-.0644-.3457-.1699-.6474-.3164-.9052-.1406-.2578-.3281-.4571-.5625-.5977-.2285-.1465-.5068-.2197-.8349-.2197-.3457 0-.6416.0556-.8877.167-.2403.1113-.4365.2724-.5889.4834-.1523.2109-.2666.4629-.3428.7558-.0761.293-.123.6241-.1406.9932v1.2217c.0293.4336.1113.8232.2461 1.1689.1348.3399.3428.6094.624.8086.2813.1992.6504.2988 1.1075.2988.3339 0 .6152-.0732.8437-.2197.2285-.1523.4131-.3603.5537-.624.1465-.2637.249-.5684.3076-.9141.0645-.3457.0967-.7177.0967-1.1162Zm6.7852-4.83397V19h-2.5401V9.49023h2.5401Zm-2.6983-2.47851c0-.36914.1289-.67383.3867-.91406.2579-.24024.6036-.36036 1.0372-.36036.4277 0 .7705.12012 1.0283.36036.2636.24023.3955.54492.3955.91406s-.1319.67383-.3955.91406c-.2578.24024-.6006.36035-1.0283.36035-.4336 0-.7793-.12011-1.0372-.36035-.2578-.24023-.3867-.54492-.3867-.91406ZM87.1191 5.5V19h-2.54V5.5h2.54Zm1.6875 8.8418v-.1846c0-.6972.0996-1.3388.2989-1.9248.1992-.5918.4892-1.1045.8701-1.5381.3808-.4336.8496-.77047 1.4062-1.01071.5567-.24609 1.1953-.36914 1.9161-.36914.7207 0 1.3623.12305 1.9248.36914.5625.24024 1.0341.57711 1.415 1.01071.3867.4336.6797.9463.8789 1.5381.1992.586.2988 1.2276.2988 1.9248v.1846c0 .6914-.0996 1.333-.2988 1.9248-.1992.5859-.4922 1.0986-.8789 1.5381-.3809.4336-.8496.7705-1.4063 1.0107-.5566.2403-1.1953.3604-1.916.3604-.7207 0-1.3623-.1201-1.9248-.3604-.5566-.2402-1.0283-.5771-1.415-1.0107-.3809-.4395-.6709-.9522-.8701-1.5381-.1993-.5918-.2989-1.2334-.2989-1.9248Zm2.5313-.1846v.1846c0 .3984.0351.7705.1055 1.1162.0703.3457.1816.6504.3339.9141.1582.2578.3633.4599.6153.6064.2519.1465.5595.2197.9228.2197.3516 0 .6534-.0732.9053-.2197.252-.1465.4541-.3486.6064-.6064.1524-.2637.2637-.5684.334-.9141.0762-.3457.1143-.7178.1143-1.1162v-.1846c0-.3867-.0381-.75-.1143-1.0898-.0703-.3457-.1845-.6504-.3427-.9141-.1524-.2695-.3545-.4804-.6065-.6328-.2519-.1523-.5566-.2285-.914-.2285-.3575 0-.6622.0762-.9141.2285-.2461.1524-.4483.3633-.6065.6328-.1523.2637-.2636.5684-.3339.9141-.0704.3398-.1055.7031-.1055 1.0898Zm12.6911-4.66697v1.79297h-5.5368V9.49023h5.5368Zm-4.1657-2.34668h2.5317v8.99125c0 .2754.035.4863.105.6328.076.1465.188.249.334.3076.146.0527.331.0791.554.0791.158 0 .299-.0059.422-.0176.128-.0176.237-.0351.325-.0527l.009 1.8633c-.217.0703-.452.1259-.704.167-.252.041-.53.0615-.835.0615-.556 0-1.043-.0908-1.459-.2725-.41-.1875-.726-.4863-.949-.8965-.2224-.4101-.3337-.9492-.3337-1.6172V7.14355Z"/></svg>
