<svg xmlns="http://www.w3.org/2000/svg" width="324" height="382" fill="none" viewBox="0 0 324 382"><path fill="#fff" stroke="#000" stroke-width="2" d="M1 82c0-4.9706 4.02944-9 9-9h313v299c0 4.971-4.029 9-9 9H9.99999C5.02943 381 1 376.971 1 372V82Z"/><circle cx="160.443" cy="103.443" r="13.4433" fill="#C10F27"/><path stroke="#fff" stroke-width="2" d="m155.699 103.047 3.427 3.558 6.853-7.1167"/><circle cx="160.443" cy="165.443" r="13.4433" fill="#C10F27"/><path stroke="#fff" stroke-width="2" d="m155.699 165.047 3.427 3.558 6.853-7.117"/><circle cx="160.443" cy="227.443" r="13.4433" fill="#C10F27"/><path stroke="#fff" stroke-width="2" d="m155.699 227.047 3.427 3.558 6.853-7.117"/><circle cx="272.443" cy="289.443" r="13.4433" fill="#C10F27"/><path stroke="#fff" stroke-width="2" d="m267.699 289.047 3.427 3.558 6.853-7.117"/><circle cx="160.443" cy="351.443" r="13.4433" fill="#C10F27"/><path stroke="#fff" stroke-width="2" d="m155.699 351.047 3.427 3.558 6.853-7.117"/><circle cx="272.443" cy="103.443" r="13.4433" fill="#000"/><path stroke="#fff" stroke-width="2" d="m276.793 98.6992-9.094 9.0938M267.699 98.699l9.094 9.094"/><circle cx="272.443" cy="165.443" r="13.4433" fill="#000"/><path stroke="#fff" stroke-width="2" d="m276.793 160.699-9.094 9.094M267.699 160.699l9.094 9.094"/><circle cx="272.443" cy="227.443" r="13.4433" fill="#000"/><path stroke="#fff" stroke-width="2" d="m276.793 222.699-9.094 9.094M267.699 222.699l9.094 9.094"/><circle cx="160.443" cy="289.443" r="13.4433" fill="#000"/><path stroke="#fff" stroke-width="2" d="m164.793 284.699-9.094 9.094M155.699 284.699l9.094 9.094"/><circle cx="272.443" cy="351.443" r="13.4433" fill="#000"/><path stroke="#fff" stroke-width="2" d="m276.793 346.699-9.094 9.094M267.699 346.699l9.094 9.094"/><path stroke="#000" stroke-width="2" d="M103 72v310"/><path fill="#fff" stroke="#000" stroke-width="2" d="M103 10c0-4.97056 4.029-9 9-9h202c4.971 0 9 4.02944 9 9v63H103V10Z"/><path stroke="#000" stroke-width="2" d="M217 0v382"/><path fill="#000" d="M218 0h98c4.418 0 8 3.58172 8 8v64H218V0Z"/><path fill="#C10F27" d="M104 10c0-4.41828 3.582-8 8-8h104v70H104V10Z"/><g clip-path="url(#clip0_155_584)"><mask id="mask0_155_584" width="9" height="8" x="107" y="33" maskUnits="userSpaceOnUse" style="mask-type:luminance"><path fill="#fff" d="M115.665 33H107v8h8.665v-8Z"/></mask><g fill="#fff" mask="url(#mask0_155_584)"><path d="M111.333 38.8768c.403 0 .796-.1103 1.131-.3169.335-.2066.596-.5003.75-.8438.154-.3436.194-.7216.115-1.0862-.079-.3646-.273-.6995-.558-.9622-.285-.2628-.648-.4415-1.043-.5137-.395-.0723-.804-.0347-1.176.108-.372.1426-.69.3839-.913.6933-.223.3094-.342.673-.342 1.0448.001.498.216.9753.598 1.3272.381.3519.899.5495 1.438.5495ZM111.333 39.7271c1.216 0 2.207.1525 2.207.5044 0 .352-.988.7687-2.207.7687-1.219 0-2.207-.4174-2.207-.7687 0-.3513.987-.5044 2.207-.5044ZM111.333 33c1.216 0 2.207.4173 2.207.7693s-.988.5038-2.207.5038c-1.219 0-2.207-.1505-2.207-.5038 0-.3533.987-.7693 2.207-.7693ZM108.379 37.0002c0 1.1226-.165 2.0378-.546 2.0378-.38 0-.833-.9126-.833-2.0378s.452-2.0378.833-2.0378c.381 0 .546.9119.546 2.0378ZM115.665 37.0002c0 1.1226-.452 2.0378-.832 2.0378-.381 0-.547-.9126-.547-2.0378s.165-2.0378.547-2.0378c.381 0 .832.9119.832 2.0378Z"/></g><mask id="mask1_155_584" width="94" height="8" x="119" y="33" maskUnits="userSpaceOnUse" style="mask-type:luminance"><path fill="#fff" d="M213 33h-93.242v8H213v-8Z"/></mask><g mask="url(#mask1_155_584)"><path fill="#fff" d="M119.996 40.8461h1.345c.064 0 .124-.023.169-.0641.044-.0411.069-.0969.07-.1551V38.187c-.001-.0147.001-.0294.007-.0431.005-.0138.014-.0262.025-.0366.011-.0104.025-.0184.04-.0236a.12011.12011 0 0 1 .046-.0064h.917c1.574 0 2.655-1.0109 2.655-2.4617s-1.083-2.4617-2.655-2.4617h-2.619c-.063.0001-.123.0234-.168.0646-.045.0412-.07.097-.07.1553v7.2531c0 .0582.025.114.07.1551.045.0411.105.0641.168.0641Zm1.584-4.5272V34.915c-.001-.0147.001-.0294.007-.0432.005-.0137.014-.0263.025-.0367.011-.0104.025-.0185.04-.0238.015-.0052.03-.0075.046-.0066h.869c.489 0 .834.352.834.8135 0 .4616-.345.8129-.834.8129h-.869a.11886.11886 0 0 1-.047-.0065c-.015-.0053-.029-.0136-.04-.0243s-.02-.0235-.025-.0375a.08309.08309 0 0 1-.006-.0439Zm4.583 4.5272h1.345c.063 0 .124-.023.169-.0641.044-.0411.069-.0969.07-.1551v-2.4835c-.001-.0147.001-.0293.007-.0431.005-.0137.014-.0262.025-.0366.011-.0104.025-.0185.04-.0238.015-.0052.03-.0076.046-.0068h.358c.033-.0048.067.0001.097.0139.03.0139.054.036.07.0634l1.14 2.5495c.048.0984.131.1862.25.1862h1.453c.036.0005.073-.0076.105-.0236.033-.0159.061-.0392.081-.0677.02-.0284.032-.0611.035-.095.003-.0339-.004-.0679-.019-.0989l-1.224-2.6374c-.048-.0991-.048-.1981.047-.2642.739-.5282 1.179-1.2084 1.179-2.0437 0-1.4527-1.083-2.4617-2.655-2.4617h-2.619c-.063.0001-.124.0234-.168.0646-.045.0412-.07.097-.07.1553v7.2531c0 .0582.025.114.07.1551.044.0411.105.0641.168.0641Zm1.584-4.5272V34.915c-.001-.0147.001-.0293.007-.0431.005-.0137.014-.0262.025-.0366.011-.0104.025-.0185.04-.0238.015-.0052.03-.0076.046-.0068h.87c.488 0 .833.352.833.8135 0 .4616-.345.8129-.833.8129h-.87a.12083.12083 0 0 1-.047-.0067c-.015-.0054-.029-.0137-.04-.0243-.011-.0107-.02-.0234-.025-.0375-.006-.014-.008-.0289-.006-.0437Zm4.595 4.5272h4.322c.063 0 .123-.023.168-.0641.044-.0411.07-.0969.07-.1551v-1.2091c0-.0582-.026-.1141-.07-.1553-.045-.0412-.105-.0644-.168-.0646h-2.62a.11744.11744 0 0 1-.046-.0063c-.015-.0052-.029-.0132-.04-.0236a.11333.11333 0 0 1-.026-.0366.10495.10495 0 0 1-.006-.0431v-1.1648a.10565.10565 0 0 1 .006-.0432.11374.11374 0 0 1 .026-.0367c.011-.0104.025-.0185.04-.0238.014-.0052.03-.0075.046-.0066h2.504c.063-.0002.123-.0234.168-.0646.045-.0412.07-.097.07-.1553v-1.2084c0-.0583-.025-.1141-.07-.1553-.045-.0412-.105-.0644-.168-.0646h-2.504c-.016.0009-.031-.0014-.046-.0066s-.029-.0132-.04-.0236c-.011-.0103-.02-.0228-.025-.0365-.006-.0137-.008-.0283-.007-.0429V34.915a.10565.10565 0 0 1 .006-.0432.11374.11374 0 0 1 .026-.0367c.011-.0104.025-.0185.04-.0238.014-.0052.03-.0075.046-.0066h2.62c.063-.0002.123-.0234.168-.0646.044-.0412.07-.097.07-.1553v-1.211c0-.0583-.026-.1141-.07-.1553-.045-.0412-.105-.0645-.168-.0646h-4.322c-.063.0005-.123.0239-.167.065-.045.0412-.07.0968-.07.1549v7.2531c0 .058.025.1135.07.1546.044.0411.104.0643.167.0646Zm7.939.1539c1.596 0 2.822-.9555 2.822-2.4723 0-1.2091-.679-1.915-1.976-2.2749l-.904-.2529c-.572-.1538-.845-.3843-.845-.7581 0-.3962.322-.6702.881-.6702.548 0 .93.2199.93.6702v.0773c0 .0582.025.114.07.1551.045.0411.105.0641.168.0641h1.369c.063 0 .124-.023.168-.0641.045-.0411.07-.0969.07-.1551v-.0739c-.001-1.3333-1.108-2.2452-2.68-2.2452-1.69 0-2.845.9905-2.845 2.3297 0 1.1225.774 1.9235 1.953 2.22l.881.2199c.595.1539.88.4174.88.8354 0 .4833-.38.8241-.964.8241-.523 0-.93-.319-.93-.8241v-.1103c0-.0583-.025-.1141-.07-.1553-.044-.0412-.105-.0644-.168-.0646h-1.415c-.063.0002-.124.0234-.169.0646-.044.0412-.069.097-.07.1553v.0521c0 1.4752 1.262 2.4532 2.846 2.4532h-.002Zm3.739-.1539h4.321c.063 0 .124-.023.169-.0641.044-.0411.069-.0969.07-.1551v-1.2091c-.001-.0582-.026-.1141-.07-.1553-.045-.0412-.105-.0644-.169-.0646h-2.617a.12247.12247 0 0 1-.047-.0063c-.015-.0052-.028-.0132-.04-.0236-.011-.0104-.02-.0229-.025-.0366-.006-.0137-.008-.0284-.007-.0431v-1.1648c-.001-.0147.001-.0294.007-.0432.005-.0137.014-.0263.025-.0367.012-.0104.025-.0185.04-.0238a.12266.12266 0 0 1 .047-.0066h2.503c.063-.0002.123-.0234.168-.0646.044-.0413.069-.0971.069-.1553v-1.2084c0-.0582-.025-.114-.069-.1553-.045-.0412-.105-.0644-.168-.0646h-2.503a.12266.12266 0 0 1-.047-.0066.10745.10745 0 0 1-.039-.0236c-.012-.0103-.02-.0228-.026-.0365-.006-.0137-.008-.0283-.007-.0429V34.915c-.001-.0147.001-.0294.007-.0432.005-.0137.014-.0263.025-.0367.012-.0104.025-.0185.04-.0238a.12266.12266 0 0 1 .047-.0066h2.617c.032.0001.063-.0055.092-.0165.029-.011.055-.0272.078-.0476.022-.0204.039-.0447.052-.0714a.20585.20585 0 0 0 .018-.0844v-1.211a.2055.2055 0 0 0-.018-.0844c-.013-.0267-.03-.051-.052-.0714-.023-.0204-.049-.0366-.078-.0476a.25635.25635 0 0 0-.092-.0165h-4.32c-.063.0001-.123.0234-.168.0646-.045.0412-.07.097-.07.1553v7.2531c0 .0582.026.114.07.1551.045.0411.105.0641.168.0641h-.001Zm5.512 0h1.345c.063 0 .124-.023.168-.0641.045-.0411.07-.0969.07-.1551v-3.583c0-.1869.167-.1981.238-.033l1.512 3.6266c.017.0569.052.1076.101.1451.049.0374.11.0597.173.0635h1.489c.063 0 .123-.023.168-.0641.045-.0411.07-.0969.07-.1551v-7.2531c0-.0583-.025-.1141-.07-.1553-.045-.0412-.105-.0645-.168-.0646h-1.344c-.063.0001-.124.0234-.168.0646-.045.0412-.07.097-.07.1553v3.5823c0 .1869-.167.1981-.239.033l-1.512-3.6266c-.016-.0568-.051-.1075-.1-.145-.049-.0374-.11-.0597-.174-.0636h-1.487c-.063.0001-.124.0234-.168.0646-.045.0412-.07.097-.07.1553v7.2531c0 .0582.025.114.07.1551.044.0411.105.0641.168.0641h-.002Zm8.239 0h1.359c.063 0 .123-.023.168-.0641.044-.0411.07-.0969.07-.1551V34.915c-.001-.0147.001-.0295.007-.0432.006-.0138.014-.0263.026-.0367a.10929.10929 0 0 1 .039-.0238.12266.12266 0 0 1 .047-.0066h1.657c.063-.0009.123-.0244.167-.0656.043-.0411.068-.0965.068-.1543v-1.211c0-.0577-.025-.1131-.069-.1542-.044-.0411-.103-.0647-.166-.0657h-5.384c-.063.0001-.124.0234-.168.0646-.045.0412-.07.097-.07.1553v1.211c0 .0583.025.1141.07.1553.044.0412.105.0644.168.0646h1.655c.016-.0008.032.0016.047.0068.014.0053.028.0134.039.0238.011.0104.02.0229.026.0366.005.0138.008.0284.007.0431v5.7119c0 .0582.025.114.07.1551.044.0411.105.0641.168.0641h-.001Zm6.881 0h1.345c.063 0 .124-.023.169-.0641.044-.0411.069-.0969.07-.1551V38.187c-.002-.0147.001-.0294.006-.0431.006-.0138.015-.0262.026-.0366s.025-.0184.04-.0236a.1175.1175 0 0 1 .046-.0064h.917c1.574 0 2.655-1.0109 2.655-2.4617s-1.083-2.4617-2.655-2.4617h-2.622c-.063.0001-.123.0234-.168.0646-.045.0412-.07.097-.07.1553v7.2531c.001.0587.027.1148.072.1559.046.0411.107.0639.17.0633h-.001Zm1.582-4.5272V34.915c-.001-.0147.002-.0295.007-.0432a.11267.11267 0 0 1 .026-.0367c.011-.0104.025-.0185.04-.0238a.12266.12266 0 0 1 .047-.0066h.87c.488 0 .833.352.833.8135 0 .4616-.345.8103-.833.8103h-.869a.12253.12253 0 0 1-.047-.0064c-.015-.0051-.028-.0132-.04-.0235-.011-.0104-.02-.0229-.025-.0366-.006-.0138-.008-.0285-.007-.0431h-.002Zm4.584 4.5272h4.322c.063 0 .123-.023.168-.0641.044-.0411.07-.0969.07-.1551v-1.2091c0-.0582-.025-.1141-.07-.1553-.045-.0412-.105-.0644-.168-.0646h-2.618a.12247.12247 0 0 1-.047-.0063c-.015-.0052-.028-.0132-.04-.0236-.011-.0104-.02-.0228-.025-.0366-.006-.0137-.009-.0284-.008-.0431v-1.1648c-.001-.0147.002-.0294.008-.0432.005-.0138.014-.0263.025-.0367.012-.0104.025-.0185.04-.0238a.12266.12266 0 0 1 .047-.0066h2.226c.063-.0002.123-.0234.168-.0646.045-.0412.07-.097.07-.1553v-1.2084c0-.0583-.025-.1141-.07-.1553-.045-.0412-.105-.0644-.168-.0646h-2.226a.12266.12266 0 0 1-.047-.0066.10745.10745 0 0 1-.039-.0236c-.012-.0103-.02-.0227-.026-.0364-.006-.0137-.008-.0284-.008-.043V34.915c-.001-.0147.002-.0295.008-.0432.005-.0138.014-.0263.025-.0367.012-.0104.025-.0185.04-.0238a.12266.12266 0 0 1 .047-.0066h2.619c.063-.0005.123-.0239.167-.0651.045-.0411.07-.0967.07-.1548v-1.211c0-.0583-.025-.1141-.07-.1553-.045-.0412-.105-.0645-.168-.0646h-4.32c-.064.0001-.124.0234-.169.0646-.044.0412-.069.097-.07.1553v7.2531c.001.0582.026.114.07.1551.045.0411.106.0641.169.0641h-.002Zm5.512 0h1.345c.063 0 .124-.023.168-.0641.045-.0411.07-.0969.07-.1551v-2.4835c-.001-.0147.002-.0293.008-.0431.005-.0137.014-.0262.025-.0366.011-.0104.025-.0185.04-.0238.014-.0052.03-.0076.046-.0068h.358c.033-.0048.067.0001.097.0139.029.0139.054.036.069.0634l1.145 2.5495c.047.0984.131.1862.249.1862h1.453c.037.0005.073-.0076.106-.0236.032-.0159.06-.0392.08-.0677.02-.0284.032-.0611.035-.095a.1882.1882 0 0 0-.018-.0989l-1.227-2.6374c-.047-.0991-.047-.1981.048-.2642.738-.5282 1.179-1.2084 1.179-2.0437 0-1.4527-1.084-2.4617-2.655-2.4617h-2.62c-.063.0001-.123.0234-.168.0646-.045.0412-.07.097-.07.1553v7.2531c0 .0582.025.114.07.1551.045.0411.105.0641.168.0641h-.001Zm1.583-4.5272V34.915c-.001-.0147.002-.0293.008-.0431.005-.0137.014-.0262.025-.0366.011-.0104.025-.0185.04-.0238.014-.0052.03-.0076.046-.0068h.869c.489 0 .834.352.834.8135 0 .4616-.345.8129-.834.8129h-.867c-.017.0009-.033-.0014-.048-.0067-.015-.0054-.028-.0137-.04-.0243-.011-.0107-.02-.0234-.025-.0375-.005-.014-.008-.0289-.006-.0437h-.002Zm4.596 4.5272h1.345c.063 0 .124-.023.168-.0641.045-.0411.07-.0969.07-.1551v-2.7034c-.001-.0147.002-.0294.007-.0432a.11374.11374 0 0 1 .026-.0367c.011-.0104.025-.0185.039-.0238a.12266.12266 0 0 1 .047-.0066h2.31c.063-.0002.123-.0234.168-.0646.045-.0412.07-.097.07-.1553v-1.2084c0-.0583-.025-.1141-.07-.1553-.045-.0412-.105-.0644-.168-.0646h-2.31c-.016.0009-.031-.0014-.046-.0066s-.029-.0132-.04-.0236c-.011-.0103-.02-.0228-.025-.0365-.006-.0137-.008-.0283-.008-.0429V34.915c-.001-.0147.002-.0294.007-.0432a.11374.11374 0 0 1 .026-.0367c.011-.0104.025-.0185.039-.0238a.12266.12266 0 0 1 .047-.0066h2.432c.063-.0002.124-.0234.168-.0646.045-.0412.07-.097.07-.1553v-1.211c0-.0583-.025-.1141-.07-.1553-.044-.0412-.105-.0645-.168-.0646h-4.131c-.063.0001-.124.0234-.168.0646-.045.0412-.07.097-.07.1553v7.2531c0 .058.025.1135.069.1546.044.0411.105.0643.167.0646h-.001Zm5.321 0h4.322c.063 0 .123-.023.168-.0641.045-.0411.07-.0969.07-.1551v-1.2091c0-.0582-.025-.1141-.07-.1553-.045-.0412-.105-.0644-.168-.0646h-2.619a.11744.11744 0 0 1-.046-.0063c-.015-.0052-.029-.0132-.04-.0236s-.02-.0228-.026-.0366c-.006-.0137-.008-.0284-.007-.0431v-1.1648c-.001-.0147.001-.0294.007-.0432a.11267.11267 0 0 1 .026-.0367c.011-.0104.025-.0185.04-.0238.014-.0052.03-.0075.046-.0066h2.226c.063-.0002.124-.0234.168-.0646.045-.0412.07-.097.07-.1553v-1.2084c0-.0583-.025-.1141-.07-.1553-.044-.0412-.105-.0644-.168-.0646h-2.226c-.015.0009-.031-.0014-.046-.0066s-.029-.0132-.04-.0236a.11147.11147 0 0 1-.026-.0364c-.005-.0137-.008-.0284-.007-.043V34.915c-.001-.0147.001-.0295.007-.0432a.11267.11267 0 0 1 .026-.0367c.011-.0104.025-.0185.04-.0238.014-.0052.03-.0075.046-.0066h2.619c.063 0 .124-.0232.168-.0644.045-.0412.07-.0972.07-.1555v-1.211c0-.0583-.025-.1141-.07-.1553-.045-.0412-.105-.0645-.168-.0646h-4.322c-.063.0001-.123.0234-.168.0646-.044.0412-.07.097-.07.1553v7.2531c0 .0289.007.0576.019.0843.012.0266.029.0509.052.0712.022.0204.048.0365.077.0474.029.011.06.0165.092.0163h-.002Zm8.004.1539c1.631 0 2.797-.8347 2.861-2.5601 0-.0583-.025-.1141-.07-.1553-.045-.0412-.105-.0645-.168-.0646h-1.393c-.064.0001-.124.0234-.169.0646-.044.0412-.069.097-.07.1553-.047.6042-.429.8789-.987.8789-.441 0-.762-.1539-.941-.4946-.19-.3731-.19-1.0328-.19-1.8239 0-.7911 0-1.4527.19-1.8245.167-.3407.501-.4946.941-.4946.547 0 .929.3077.987.8796.005.0587.034.1136.08.154.046.0405.107.0638.171.0652h1.381c.063 0 .123-.0231.168-.0641.045-.0411.07-.0969.07-.1551C198.63 33.8241 197.416 33 195.834 33c-1.096 0-1.881.3625-2.345.978-.536.6372-.655 1.6508-.655 3.0223 0 1.3716.143 2.3733.655 3.0217.475.6049 1.248.978 2.345.978Zm5.452-.1539h1.359c.063 0 .124-.023.168-.0641.045-.0411.07-.0969.071-.1551V34.915c-.002-.0147.001-.0294.006-.0432a.11374.11374 0 0 1 .026-.0367c.011-.0104.025-.0185.04-.0238.014-.0052.03-.0075.046-.0066h1.584c.063-.0002.123-.0234.168-.0646.045-.0412.07-.097.07-.1553v-1.211c0-.0583-.025-.1141-.07-.1553-.045-.0412-.105-.0645-.168-.0646h-5.239c-.063.0001-.123.0234-.168.0646-.045.0412-.07.097-.07.1553v1.211c0 .0583.025.1141.07.1553.045.0412.105.0644.168.0646h1.584c.016-.0009.032.0014.047.0066.014.0053.028.0134.039.0238.011.0104.02.023.026.0367.005.0138.008.0285.007.0432v5.7119c0 .0578.025.1131.069.1541.044.0411.103.0644.166.0651h.001Zm5.727-4.4394h.762c.013.0011.026-.0004.038-.0044s.023-.0105.032-.0188c.009-.0084.016-.0186.02-.0297.005-.0112.006-.0231.005-.0349V34.077a.04576.04576 0 0 1 .015-.0304.05491.05491 0 0 1 .033-.0138h.75c.013.0011.025-.0004.038-.0044.012-.004.023-.0105.032-.0189.009-.0084.016-.0185.02-.0297.004-.0111.006-.023.005-.0349v-.7032c.001-.0118-.001-.0237-.005-.0349-.004-.0112-.011-.0213-.02-.0297a.0874.0874 0 0 0-.032-.0188c-.013-.0041-.025-.0056-.038-.0044h-2.504a.0889.0889 0 0 0-.037.0044c-.013.004-.024.0104-.033.0188-.009.0084-.016.0185-.02.0297-.004.0112-.006.0231-.005.0349v.7032c-.001.0119.001.0238.005.0349.004.0112.011.0213.02.0297.009.0084.02.0149.033.0189.012.004.025.0055.037.0044h.703c.012.0009.024.0059.032.014.009.0081.014.0188.015.0302v2.2452c-.001.0117.002.0235.006.0344.005.0109.012.0207.022.0288.009.008.02.0141.032.0177a.0967.0967 0 0 0 .038.0036h.001Zm2.321 0h.763c.013.0011.025-.0004.038-.0044.012-.004.023-.0105.032-.0188.009-.0084.016-.0186.02-.0297.005-.0112.006-.0231.005-.0349v-1.5716c0-.0991.119-.0991.143-.0113l.44 1.5941c.004.0209.016.0399.033.0538.018.0139.04.0219.063.0228h.5c.023-.001.045-.0091.062-.023a.08788.08788 0 0 0 .033-.0536l.441-1.5941c.024-.0878.143-.0878.143.0113v1.5716c-.001.0118.001.0237.005.0349.005.0112.012.0213.021.0297.009.0083.02.0148.032.0188s.025.0055.038.0044h.762c.013.0011.025-.0004.038-.0044.012-.004.023-.0105.032-.0188.009-.0084.016-.0186.02-.0297.004-.0112.006-.0231.005-.0349v-3.0772c.001-.0118-.001-.0237-.005-.0349-.004-.0112-.011-.0213-.02-.0297a.0874.0874 0 0 0-.032-.0188c-.013-.0041-.025-.0056-.038-.0044h-1.124a.11137.11137 0 0 0-.069.0202c-.019.014-.033.034-.038.0564l-.487 1.8826c-.023.0878-.119.0878-.143 0l-.5-1.8899c-.01-.021-.027-.0387-.048-.0505-.022-.0119-.046-.0173-.071-.0155h-1.096a.09167.09167 0 0 0-.038.0044.0874.0874 0 0 0-.032.0188c-.009.0084-.016.0185-.02.0297-.005.0112-.006.0231-.005.0349v3.0772c-.001.0116.001.0232.006.034.005.0108.012.0206.021.0286.009.008.02.0141.032.0179.012.0038.024.0051.037.004h.001Z"/></g></g><path fill="#fff" d="M255.156 39.726c-.989.98-2.193 1.47-3.612 1.47s-2.623-.49-3.612-1.47c-.98-.9893-1.47-2.198-1.47-3.626s.49-2.632 1.47-3.612c.989-.9893 2.193-1.484 3.612-1.484s2.623.4947 3.612 1.484c.989.98 1.484 2.184 1.484 3.612s-.495 2.6367-1.484 3.626Zm-5.866-1.316c.607.5973 1.358.896 2.254.896.896 0 1.647-.2987 2.254-.896.607-.6067.91-1.3767.91-2.31s-.303-1.7033-.91-2.31-1.358-.91-2.254-.91c-.896 0-1.647.3033-2.254.91s-.91 1.3767-.91 2.31.303 1.7033.91 2.31Zm14.349-7.21v1.848h-2.646V41h-1.932v-7.952h-2.632V31.2h7.21Zm6.371 0h1.918V41h-1.918v-4.06h-3.64V41h-1.932v-9.8h1.932v3.892h3.64V31.2Zm5.39 7.952h4.13V41h-6.062v-9.8h5.992v1.848h-4.06v2.086h3.71v1.82h-3.71v2.198ZM285.988 41l-1.974-3.402h-1.47V41h-1.932v-9.8h3.92c.906 0 1.676.3173 2.31.952.635.6347.952 1.4.952 2.296 0 .6067-.172 1.1713-.518 1.694-.345.5133-.802.9007-1.372 1.162l2.17 3.696h-2.086Zm-3.444-7.994v2.898h1.988c.364 0 .677-.14.938-.42.262-.2893.392-.6347.392-1.036s-.13-.742-.392-1.022c-.261-.28-.574-.42-.938-.42h-1.988Zm9.583 8.19c-.97 0-1.787-.2147-2.45-.644-.662-.4387-1.129-1.0313-1.4-1.778l1.652-.966c.383.9987 1.134 1.498 2.254 1.498.542 0 .938-.098 1.19-.294.252-.196.378-.4433.378-.742 0-.3453-.154-.6113-.462-.798-.308-.196-.858-.406-1.652-.63-.438-.1307-.812-.2613-1.12-.392-.298-.1307-.602-.3033-.91-.518-.298-.224-.527-.504-.686-.84-.158-.336-.238-.728-.238-1.176 0-.8867.313-1.5913.938-2.114.635-.532 1.396-.798 2.282-.798.794 0 1.489.196 2.086.588.607.3827 1.078.9193 1.414 1.61l-1.624.938c-.392-.84-1.017-1.26-1.876-1.26-.401 0-.718.0933-.952.28-.224.1773-.336.4107-.336.7 0 .308.126.56.378.756.262.1867.756.392 1.484.616.299.0933.523.168.672.224.159.0467.369.126.63.238.271.1027.476.2007.616.294.15.0933.318.2193.504.378.187.1587.327.322.42.49.103.168.187.3733.252.616.075.2333.112.49.112.77 0 .9053-.331 1.624-.994 2.156-.653.532-1.507.798-2.562.798Z"/><path fill="#000" d="M17.58 98.2h1.932v9.8h-1.47l-4.2-5.992V108H11.91v-9.8h1.47l4.2 5.978V98.2Zm8.8459 2.8h1.806v7h-1.806v-.826c-.5413.681-1.302 1.022-2.282 1.022-.9333 0-1.736-.355-2.408-1.064-.6626-.719-.994-1.596-.994-2.632s.3314-1.909.994-2.618c.672-.719 1.4747-1.078 2.408-1.078.98 0 1.7407.341 2.282 1.022V101Zm-3.332 4.928c.364.364.826.546 1.386.546.56 0 1.022-.182 1.386-.546.3734-.373.56-.849.56-1.428s-.1866-1.05-.56-1.414c-.364-.373-.826-.56-1.386-.56-.56 0-1.022.187-1.386.56-.364.364-.546.835-.546 1.414s.182 1.055.546 1.428Zm10.6397-3.192h-1.582v2.912c0 .243.0607.42.182.532.1213.112.2987.177.532.196.2333.009.5227.005.868-.014V108c-1.2413.14-2.1187.023-2.632-.35-.504-.373-.756-1.041-.756-2.002v-2.912h-1.218V101h1.218v-1.414l1.806-.546V101h1.582v1.736ZM39.5963 101h1.806v7h-1.806v-.784c-.4387.653-1.134.98-2.086.98-.7653 0-1.4-.257-1.904-.77-.4947-.513-.742-1.223-.742-2.128V101h1.806v4.074c0 .467.126.826.378 1.078.252.243.588.364 1.008.364.4667 0 .84-.145 1.12-.434.28-.289.42-.723.42-1.302V101Zm5.1261 1.204c.168-.448.4433-.784.826-1.008.392-.224.826-.336 1.302-.336v2.016c-.5507-.065-1.0453.047-1.484.336-.4293.289-.644.77-.644 1.442V108h-1.806v-7h1.806v1.204ZM52.8269 101h1.806v7h-1.806v-.826c-.5414.681-1.302 1.022-2.282 1.022-.9334 0-1.736-.355-2.408-1.064-.6627-.719-.994-1.596-.994-2.632s.3313-1.909.994-2.618c.672-.719 1.4746-1.078 2.408-1.078.98 0 1.7406.341 2.282 1.022V101Zm-3.332 4.928c.364.364.826.546 1.386.546.56 0 1.022-.182 1.386-.546.3733-.373.56-.849.56-1.428s-.1867-1.05-.56-1.414c-.364-.373-.826-.56-1.386-.56-.56 0-1.022.187-1.386.56-.364.364-.546.835-.546 1.414s.182 1.055.546 1.428ZM56.1305 108V97.78h1.806V108h-1.806ZM17.58 153.2h1.932v9.8h-1.47l-4.2-5.992V163H11.91v-9.8h1.47l4.2 5.978V153.2Zm9.4899 8.932c-.7186.709-1.596 1.064-2.632 1.064s-1.9133-.355-2.632-1.064c-.7093-.719-1.064-1.596-1.064-2.632s.3547-1.909 1.064-2.618c.7187-.719 1.596-1.078 2.632-1.078s1.9134.359 2.632 1.078c.7187.709 1.078 1.582 1.078 2.618 0 1.036-.3593 1.913-1.078 2.632Zm-3.99-1.246c.364.364.8167.546 1.358.546.5414 0 .994-.182 1.358-.546.364-.364.546-.826.546-1.386 0-.56-.182-1.022-.546-1.386-.364-.364-.8166-.546-1.358-.546-.5413 0-.994.182-1.358.546-.3546.364-.532.826-.532 1.386 0 .56.1774 1.022.532 1.386Zm12.8905 2.31c-1.0546 0-1.9366-.355-2.646-1.064-.7-.709-1.05-1.587-1.05-2.632 0-1.045.35-1.923 1.05-2.632.7094-.709 1.5914-1.064 2.646-1.064.6814 0 1.302.163 1.862.49.56.327.9847.765 1.274 1.316l-1.554.91c-.14-.289-.3546-.518-.644-.686-.28-.168-.5973-.252-.952-.252-.5413 0-.9893.182-1.344.546-.3546.355-.532.812-.532 1.372 0 .551.1774 1.008.532 1.372.3547.355.8027.532 1.344.532.364 0 .686-.079.966-.238.2894-.168.504-.397.644-.686l1.568.896c-.308.551-.742.994-1.302 1.33-.56.327-1.1806.49-1.862.49Zm5.8399-5.992c.168-.448.4433-.784.826-1.008.392-.224.826-.336 1.302-.336v2.016c-.5507-.065-1.0454.047-1.484.336-.4294.289-.644.77-.644 1.442V163h-1.806v-7h1.806v1.204ZM49.4745 156h1.806v7h-1.806v-.784c-.4387.653-1.134.98-2.086.98-.7653 0-1.4-.257-1.904-.77-.4947-.513-.742-1.223-.742-2.128V156h1.806v4.074c0 .467.126.826.378 1.078.252.243.588.364 1.008.364.4667 0 .84-.145 1.12-.434.28-.289.42-.723.42-1.302V156Zm4.9314 1.988c0 .187.1213.341.364.462.252.112.5553.215.91.308.3547.084.7093.196 1.064.336.3547.131.6533.355.896.672.252.317.378.714.378 1.19 0 .719-.2707 1.274-.812 1.666-.532.383-1.1993.574-2.002.574-1.4373 0-2.4173-.555-2.94-1.666l1.568-.882c.2053.607.6627.91 1.372.91.644 0 .966-.201.966-.602 0-.187-.126-.336-.378-.448-.2427-.121-.5413-.229-.896-.322s-.7093-.21-1.064-.35c-.3547-.14-.658-.359-.91-.658-.2427-.308-.364-.691-.364-1.148 0-.691.252-1.232.756-1.624.5133-.401 1.148-.602 1.904-.602.5693 0 1.0873.131 1.554.392.4667.252.8353.616 1.106 1.092l-1.54.84c-.224-.476-.5973-.714-1.12-.714-.2333 0-.4293.051-.588.154-.1493.103-.224.243-.224.42Zm8.5255-2.184c.7653 0 1.3953.257 1.89.77.504.513.756 1.223.756 2.128V163h-1.806v-4.074c0-.467-.126-.821-.378-1.064-.252-.252-.588-.378-1.008-.378-.4667 0-.84.145-1.12.434-.28.289-.42.723-.42 1.302V163h-1.806v-9.8h1.806v3.584c.4386-.653 1.134-.98 2.086-.98Zm13.372 6.328c-.7186.709-1.596 1.064-2.632 1.064s-1.9133-.355-2.632-1.064c-.7093-.719-1.064-1.596-1.064-2.632s.3547-1.909 1.064-2.618c.7187-.719 1.596-1.078 2.632-1.078s1.9134.359 2.632 1.078c.7187.709 1.078 1.582 1.078 2.618 0 1.036-.3593 1.913-1.078 2.632Zm-3.99-1.246c.364.364.8167.546 1.358.546.5414 0 .994-.182 1.358-.546.364-.364.546-.826.546-1.386 0-.56-.182-1.022-.546-1.386-.364-.364-.8166-.546-1.358-.546-.5413 0-.994.182-1.358.546-.3546.364-.532.826-.532 1.386 0 .56.1774 1.022.532 1.386Zm8.0045-3.682c.168-.448.4434-.784.826-1.008.392-.224.826-.336 1.302-.336v2.016c-.5506-.065-1.0453.047-1.484.336-.4293.289-.644.77-.644 1.442V163h-1.806v-7h1.806v1.204ZM17.146 170h1.806v7h-1.806v-.826c-.5413.681-1.302 1.022-2.282 1.022-.9333 0-1.736-.355-2.408-1.064-.6627-.719-.994-1.596-.994-2.632s.3313-1.909.994-2.618c.672-.719 1.4747-1.078 2.408-1.078.98 0 1.7407.341 2.282 1.022V170Zm-3.332 4.928c.364.364.826.546 1.386.546.56 0 1.022-.182 1.386-.546.3733-.373.56-.849.56-1.428s-.1867-1.05-.56-1.414c-.364-.373-.826-.56-1.386-.56-.56 0-1.022.187-1.386.56-.364.364-.546.835-.546 1.414s.182 1.055.546 1.428Zm11.9417-7.728h1.806v9.8h-1.806v-.826c-.532.681-1.288 1.022-2.268 1.022-.9427 0-1.75-.355-2.422-1.064-.6627-.719-.994-1.596-.994-2.632s.3313-1.909.994-2.618c.672-.719 1.4793-1.078 2.422-1.078.98 0 1.736.341 2.268 1.022V167.2Zm-3.332 7.728c.3733.364.84.546 1.4.546.56 0 1.022-.182 1.386-.546.364-.373.546-.849.546-1.428s-.182-1.05-.546-1.414c-.364-.373-.826-.56-1.386-.56-.56 0-1.0267.187-1.4.56-.364.364-.546.835-.546 1.414s.182 1.055.546 1.428Zm11.9556-7.728h1.806v9.8h-1.806v-.826c-.532.681-1.288 1.022-2.268 1.022-.9426 0-1.75-.355-2.422-1.064-.6626-.719-.994-1.596-.994-2.632s.3314-1.909.994-2.618c.672-.719 1.4794-1.078 2.422-1.078.98 0 1.736.341 2.268 1.022V167.2Zm-3.332 7.728c.3734.364.84.546 1.4.546.56 0 1.022-.182 1.386-.546.364-.373.546-.849.546-1.428s-.182-1.05-.546-1.414c-.364-.373-.826-.56-1.386-.56-.56 0-1.0266.187-1.4.56-.364.364-.546.835-.546 1.414s.182 1.055.546 1.428Zm7.5457-5.768c-.2987 0-.56-.107-.784-.322-.2147-.224-.322-.485-.322-.784 0-.299.1073-.56.322-.784.224-.224.4853-.336.784-.336.308 0 .5693.112.784.336.224.224.336.485.336.784 0 .299-.112.56-.336.784-.2147.215-.476.322-.784.322Zm-.896 7.84v-7h1.806v7h-1.806Zm6.651.196c-1.0547 0-1.9367-.355-2.646-1.064-.7-.709-1.05-1.587-1.05-2.632 0-1.045.35-1.923 1.05-2.632.7093-.709 1.5913-1.064 2.646-1.064.6813 0 1.302.163 1.862.49.56.327.9847.765 1.274 1.316l-1.554.91c-.14-.289-.3547-.518-.644-.686-.28-.168-.5973-.252-.952-.252-.5413 0-.9893.182-1.344.546-.3547.355-.532.812-.532 1.372 0 .551.1773 1.008.532 1.372.3547.355.8027.532 1.344.532.364 0 .686-.079.966-.238.2893-.168.504-.397.644-.686l1.568.896c-.308.551-.742.994-1.302 1.33-.56.327-1.1807.49-1.862.49Zm4.8752-8.036c-.2987 0-.56-.107-.784-.322-.2147-.224-.322-.485-.322-.784 0-.299.1073-.56.322-.784.224-.224.4853-.336.784-.336.308 0 .5693.112.784.336.224.224.336.485.336.784 0 .299-.112.56-.336.784-.2147.215-.476.322-.784.322Zm-.896 7.84v-7h1.806v7h-1.806Zm6.651.196c-1.0547 0-1.9367-.355-2.646-1.064-.7-.709-1.05-1.587-1.05-2.632 0-1.045.35-1.923 1.05-2.632.7093-.709 1.5913-1.064 2.646-1.064.6813 0 1.302.163 1.862.49.56.327.9846.765 1.274 1.316l-1.554.91c-.14-.289-.3547-.518-.644-.686-.28-.168-.5974-.252-.952-.252-.5414 0-.9894.182-1.344.546-.3547.355-.532.812-.532 1.372 0 .551.1773 1.008.532 1.372.3546.355.8026.532 1.344.532.364 0 .686-.079.966-.238.2893-.168.504-.397.644-.686l1.568.896c-.308.551-.742.994-1.302 1.33-.56.327-1.1807.49-1.862.49Zm7.9831-5.46h-1.582v2.912c0 .243.0607.42.182.532.1214.112.2987.177.532.196.2334.009.5227.005.868-.014V177c-1.2413.14-2.1186.023-2.632-.35-.504-.373-.756-1.041-.756-2.002v-2.912h-1.218V170h1.218v-1.414l1.806-.546V170h1.582v1.736Zm2.0294-2.576c-.2987 0-.56-.107-.784-.322-.2147-.224-.322-.485-.322-.784 0-.299.1073-.56.322-.784.224-.224.4853-.336.784-.336.308 0 .5693.112.784.336.224.224.336.485.336.784 0 .299-.112.56-.336.784-.2147.215-.476.322-.784.322Zm-.896 7.84v-7h1.806v7h-1.806Zm9.283-.868c-.7187.709-1.596 1.064-2.632 1.064s-1.9134-.355-2.632-1.064c-.7094-.719-1.064-1.596-1.064-2.632s.3546-1.909 1.064-2.618c.7186-.719 1.596-1.078 2.632-1.078s1.9133.359 2.632 1.078c.7186.709 1.078 1.582 1.078 2.618 0 1.036-.3594 1.913-1.078 2.632Zm-3.99-1.246c.364.364.8166.546 1.358.546.5413 0 .994-.182 1.358-.546.364-.364.546-.826.546-1.386 0-.56-.182-1.022-.546-1.386-.364-.364-.8167-.546-1.358-.546-.5414 0-.994.182-1.358.546-.3547.364-.532.826-.532 1.386 0 .56.1773 1.022.532 1.386Zm10.0905-5.082c.7653 0 1.3953.257 1.89.77.504.513.756 1.223.756 2.128V177h-1.806v-4.074c0-.467-.126-.821-.378-1.064-.252-.252-.588-.378-1.008-.378-.4667 0-.84.145-1.12.434-.28.289-.42.723-.42 1.302V177h-1.806v-7h1.806v.784c.4386-.653 1.134-.98 2.086-.98ZM13.842 223.152h3.738V225h-5.67v-9.8h1.932v7.952Zm10.4389.98c-.7187.709-1.596 1.064-2.632 1.064s-1.9134-.355-2.632-1.064c-.7094-.719-1.064-1.596-1.064-2.632s.3546-1.909 1.064-2.618c.7186-.719 1.596-1.078 2.632-1.078s1.9133.359 2.632 1.078c.7186.709 1.078 1.582 1.078 2.618 0 1.036-.3594 1.913-1.078 2.632Zm-3.99-1.246c.364.364.8166.546 1.358.546.5413 0 .994-.182 1.358-.546.364-.364.546-.826.546-1.386 0-.56-.182-1.022-.546-1.386-.364-.364-.8167-.546-1.358-.546-.5414 0-.994.182-1.358.546-.3547.364-.532.826-.532 1.386 0 .56.1773 1.022.532 1.386Zm10.0905-5.082c.7653 0 1.3953.257 1.89.77.504.513.756 1.223.756 2.128V225h-1.806v-4.074c0-.467-.126-.821-.378-1.064-.252-.252-.588-.378-1.008-.378-.4667 0-.84.145-1.12.434-.28.289-.42.723-.42 1.302V225h-1.806v-7h1.806v.784c.4386-.653 1.134-.98 2.086-.98Zm9.41.196h1.764v6.664c0 1.083-.3593 1.909-1.078 2.478-.7093.569-1.568.854-2.576.854-.756 0-1.4233-.145-2.002-.434-.5693-.289-1.008-.714-1.316-1.274l1.54-.882c.3547.653.966.98 1.834.98.5694 0 1.0174-.149 1.344-.448.3267-.299.49-.723.49-1.274v-.756c-.532.709-1.2786 1.064-2.24 1.064-.9893 0-1.82-.345-2.492-1.036-.6626-.7-.994-1.549-.994-2.548 0-.989.336-1.834 1.008-2.534.672-.7 1.498-1.05 2.478-1.05.9614 0 1.708.355 2.24 1.064V218Zm-3.374 4.774c.3734.355.8447.532 1.414.532.5694 0 1.036-.177 1.4-.532.3734-.364.56-.826.56-1.386 0-.551-.1866-1.003-.56-1.358-.364-.364-.8306-.546-1.4-.546-.5693 0-1.0406.182-1.414.546-.364.355-.546.807-.546 1.358 0 .56.182 1.022.546 1.386Zm6.7197-1.134v-1.736h5.25v1.736h-5.25Zm10.698-1.904h-1.582v2.912c0 .243.0606.42.182.532.1213.112.2986.177.532.196.2333.009.5226.005.868-.014V225c-1.2414.14-2.1187.023-2.632-.35-.504-.373-.756-1.041-.756-2.002v-2.912h-1.218V218h1.218v-1.414l1.806-.546V218h1.582v1.736Zm2.4406 2.506c.2426.877.9006 1.316 1.974 1.316.6906 0 1.2133-.233 1.568-.7l1.456.84c-.6907.999-1.708 1.498-3.052 1.498-1.1574 0-2.086-.35-2.786-1.05-.7-.7-1.05-1.582-1.05-2.646 0-1.055.3453-1.932 1.036-2.632.6906-.709 1.5773-1.064 2.66-1.064 1.0266 0 1.8713.355 2.534 1.064.672.709 1.008 1.587 1.008 2.632 0 .233-.0234.481-.07.742h-5.278Zm-.028-1.4h3.57c-.1027-.476-.3174-.831-.644-1.064-.3174-.233-.6814-.35-1.092-.35-.4854 0-.8867.126-1.204.378-.3174.243-.5274.588-.63 1.036Zm8.3027-1.638c.168-.448.4434-.784.826-1.008.392-.224.826-.336 1.302-.336v2.016c-.5506-.065-1.0453.047-1.484.336-.4293.289-.644.77-.644 1.442V225h-1.806v-7h1.806v1.204Zm10.7863-1.4c.8026 0 1.442.261 1.918.784.4853.523.728 1.223.728 2.1V225h-1.806v-4.186c0-.42-.1027-.747-.308-.98-.2054-.233-.4947-.35-.868-.35-.4107 0-.7327.135-.966.406-.224.271-.336.663-.336 1.176V225h-1.806v-4.186c0-.42-.1027-.747-.308-.98-.2054-.233-.4947-.35-.868-.35-.4014 0-.7234.135-.966.406-.2334.271-.35.663-.35 1.176V225h-1.806v-7h1.806v.742c.42-.625 1.0686-.938 1.946-.938.8586 0 1.4933.336 1.904 1.008.4666-.672 1.162-1.008 2.086-1.008Zm-59.4367 14c.9427 0 1.7453.359 2.408 1.078.672.709 1.008 1.582 1.008 2.618 0 1.036-.336 1.913-1.008 2.632-.6627.709-1.4653 1.064-2.408 1.064-.98 0-1.736-.341-2.268-1.022V239h-1.806v-9.8h1.806v3.626c.532-.681 1.288-1.022 2.268-1.022Zm-1.722 5.124c.364.364.826.546 1.386.546.56 0 1.022-.182 1.386-.546.3733-.373.56-.849.56-1.428s-.1867-1.05-.56-1.414c-.364-.373-.826-.56-1.386-.56-.56 0-1.022.187-1.386.56-.364.364-.546.835-.546 1.414s.182 1.055.546 1.428Zm7.7977-.686c.2426.877.9006 1.316 1.974 1.316.6906 0 1.2133-.233 1.568-.7l1.456.84c-.6907.999-1.708 1.498-3.052 1.498-1.1574 0-2.086-.35-2.786-1.05-.7-.7-1.05-1.582-1.05-2.646 0-1.055.3453-1.932 1.036-2.632.6906-.709 1.5773-1.064 2.66-1.064 1.0266 0 1.8713.355 2.534 1.064.672.709 1.008 1.587 1.008 2.632 0 .233-.0234.481-.07.742h-5.278Zm-.028-1.4h3.57c-.1027-.476-.3174-.831-.644-1.064-.3174-.233-.6814-.35-1.092-.35-.4854 0-.8867.126-1.204.378-.3174.243-.5274.588-.63 1.036Zm10.3887-3.038c.7654 0 1.3954.257 1.89.77.504.513.756 1.223.756 2.128V239h-1.806v-4.074c0-.467-.126-.821-.378-1.064-.252-.252-.588-.378-1.008-.378-.4666 0-.84.145-1.12.434-.28.289-.42.723-.42 1.302V239h-1.806v-7h1.806v.784c.4387-.653 1.134-.98 2.086-.98Zm5.5741 4.438c.2427.877.9007 1.316 1.974 1.316.6907 0 1.2133-.233 1.568-.7l1.456.84c-.6907.999-1.708 1.498-3.052 1.498-1.1573 0-2.086-.35-2.786-1.05-.7-.7-1.05-1.582-1.05-2.646 0-1.055.3453-1.932 1.036-2.632.6907-.709 1.5773-1.064 2.66-1.064 1.0267 0 1.8713.355 2.534 1.064.672.709 1.008 1.587 1.008 2.632 0 .233-.0233.481-.07.742h-5.278Zm-.028-1.4h3.57c-.1027-.476-.3173-.831-.644-1.064-.3173-.233-.6813-.35-1.092-.35-.4853 0-.8867.126-1.204.378-.3173.243-.5273.588-.63 1.036ZM50.3202 232v7h-1.806v-5.264h-2.058V239h-1.806v-5.264h-1.008V232h1.008v-.07c0-1.951 1.0967-2.926 3.29-2.926.4947 0 1.0407.065 1.638.196v1.652c-.6253-.075-1.1713-.112-1.638-.112-.504 0-.8773.089-1.12.266-.2427.168-.364.476-.364.924v.07h3.864Zm5.511 1.736h-1.582v2.912c0 .243.0606.42.182.532.1213.112.2986.177.532.196.2333.009.5226.005.868-.014V239c-1.2414.14-2.1187.023-2.632-.35-.504-.373-.756-1.041-.756-2.002v-2.912h-1.218V232h1.218v-1.414l1.806-.546V232h1.582v1.736Zm2.6489.252c0 .187.1214.341.364.462.252.112.5554.215.91.308.3547.084.7094.196 1.064.336.3547.131.6534.355.896.672.252.317.378.714.378 1.19 0 .719-.2706 1.274-.812 1.666-.532.383-1.1993.574-2.002.574-1.4373 0-2.4173-.555-2.94-1.666l1.568-.882c.2054.607.6627.91 1.372.91.644 0 .966-.201.966-.602 0-.187-.126-.336-.378-.448-.2426-.121-.5413-.229-.896-.322-.3546-.093-.7093-.21-1.064-.35-.3546-.14-.658-.359-.91-.658-.2426-.308-.364-.691-.364-1.148 0-.691.252-1.232.756-1.624.5134-.401 1.148-.602 1.904-.602.5694 0 1.0874.131 1.554.392.4667.252.8354.616 1.106 1.092l-1.54.84c-.224-.476-.5973-.714-1.12-.714-.2333 0-.4293.051-.588.154-.1493.103-.224.243-.224.42ZM13.842 347.152h3.738V349h-5.67v-9.8h1.932v7.952Zm5.5076-5.992c-.2987 0-.56-.107-.784-.322-.2147-.224-.322-.485-.322-.784 0-.299.1073-.56.322-.784.224-.224.4853-.336.784-.336.308 0 .5693.112.784.336.224.224.336.485.336.784 0 .299-.112.56-.336.784-.2147.215-.476.322-.784.322Zm-.896 7.84v-7h1.806v7h-1.806Zm8.681-7h1.764v6.664c0 1.083-.3594 1.909-1.078 2.478-.7094.569-1.568.854-2.576.854-.756 0-1.4234-.145-2.002-.434-.5694-.289-1.008-.714-1.316-1.274l1.54-.882c.3546.653.966.98 1.834.98.5693 0 1.0173-.149 1.344-.448.3266-.299.49-.723.49-1.274v-.756c-.532.709-1.2787 1.064-2.24 1.064-.9894 0-1.82-.345-2.492-1.036-.6627-.7-.994-1.549-.994-2.548 0-.989.336-1.834 1.008-2.534.672-.7 1.498-1.05 2.478-1.05.9613 0 1.708.355 2.24 1.064V342Zm-3.374 4.774c.3733.355.8446.532 1.414.532.5693 0 1.036-.177 1.4-.532.3733-.364.56-.826.56-1.386 0-.551-.1867-1.003-.56-1.358-.364-.364-.8307-.546-1.4-.546-.5694 0-1.0407.182-1.414.546-.364.355-.546.807-.546 1.358 0 .56.182 1.022.546 1.386Zm10.5276-4.97c.7654 0 1.3954.257 1.89.77.504.513.756 1.223.756 2.128V349h-1.806v-4.074c0-.467-.126-.821-.378-1.064-.252-.252-.588-.378-1.008-.378-.4666 0-.84.145-1.12.434-.28.289-.42.723-.42 1.302V349h-1.806v-9.8h1.806v3.584c.4387-.653 1.134-.98 2.086-.98Zm8.0521 1.932h-1.582v2.912c0 .243.0607.42.182.532.1213.112.2987.177.532.196.2333.009.5227.005.868-.014V349c-1.2413.14-2.1187.023-2.632-.35-.504-.373-.756-1.041-.756-2.002v-2.912h-1.218V342h1.218v-1.414l1.806-.546V342h1.582v1.736ZM15.718 355.804c.7653 0 1.3953.257 1.89.77.504.513.756 1.223.756 2.128V363h-1.806v-4.074c0-.467-.126-.821-.378-1.064-.252-.252-.588-.378-1.008-.378-.4667 0-.84.145-1.12.434-.28.289-.42.723-.42 1.302V363h-1.806v-9.8h1.806v3.584c.4387-.653 1.134-.98 2.086-.98Zm5.5741 4.438c.2426.877.9006 1.316 1.974 1.316.6906 0 1.2133-.233 1.568-.7l1.456.84c-.6907.999-1.708 1.498-3.052 1.498-1.1574 0-2.086-.35-2.786-1.05-.7-.7-1.05-1.582-1.05-2.646 0-1.055.3453-1.932 1.036-2.632.6906-.709 1.5773-1.064 2.66-1.064 1.0266 0 1.8713.355 2.534 1.064.672.709 1.008 1.587 1.008 2.632 0 .233-.0234.481-.07.742h-5.278Zm-.028-1.4h3.57c-.1027-.476-.3174-.831-.644-1.064-.3174-.233-.6814-.35-1.092-.35-.4854 0-.8867.126-1.204.378-.3174.243-.5274.588-.63 1.036ZM33.0262 356h1.806v7h-1.806v-.826c-.5414.681-1.302 1.022-2.282 1.022-.9334 0-1.736-.355-2.408-1.064-.6627-.719-.994-1.596-.994-2.632s.3313-1.909.994-2.618c.672-.719 1.4746-1.078 2.408-1.078.98 0 1.7406.341 2.282 1.022V356Zm-3.332 4.928c.364.364.826.546 1.386.546.56 0 1.022-.182 1.386-.546.3733-.373.56-.849.56-1.428s-.1867-1.05-.56-1.414c-.364-.373-.826-.56-1.386-.56-.56 0-1.022.187-1.386.56-.364.364-.546.835-.546 1.414s.182 1.055.546 1.428Zm11.9416-7.728h1.806v9.8h-1.806v-.826c-.532.681-1.288 1.022-2.268 1.022-.9426 0-1.75-.355-2.422-1.064-.6626-.719-.994-1.596-.994-2.632s.3314-1.909.994-2.618c.672-.719 1.4794-1.078 2.422-1.078.98 0 1.736.341 2.268 1.022V353.2Zm-3.332 7.728c.3734.364.84.546 1.4.546.56 0 1.022-.182 1.386-.546.364-.373.546-.849.546-1.428s-.182-1.05-.546-1.414c-.364-.373-.826-.56-1.386-.56-.56 0-1.0266.187-1.4.56-.364.364-.546.835-.546 1.414s.182 1.055.546 1.428Zm8.1757-.686c.2427.877.9007 1.316 1.974 1.316.6907 0 1.2133-.233 1.568-.7l1.456.84c-.6907.999-1.708 1.498-3.052 1.498-1.1573 0-2.086-.35-2.786-1.05-.7-.7-1.05-1.582-1.05-2.646 0-1.055.3453-1.932 1.036-2.632.6907-.709 1.5773-1.064 2.66-1.064 1.0267 0 1.8713.355 2.534 1.064.672.709 1.008 1.587 1.008 2.632 0 .233-.0233.481-.07.742h-5.278Zm-.028-1.4h3.57c-.1027-.476-.3173-.831-.644-1.064-.3173-.233-.6813-.35-1.092-.35-.4853 0-.8867.126-1.204.378-.3173.243-.5273.588-.63 1.036Zm11.7481-5.642h1.806v9.8h-1.806v-.826c-.532.681-1.288 1.022-2.268 1.022-.9427 0-1.75-.355-2.422-1.064-.6627-.719-.994-1.596-.994-2.632s.3313-1.909.994-2.618c.672-.719 1.4793-1.078 2.422-1.078.98 0 1.736.341 2.268 1.022V353.2Zm-3.332 7.728c.3733.364.84.546 1.4.546.56 0 1.022-.182 1.386-.546.364-.373.546-.849.546-1.428s-.182-1.05-.546-1.414c-.364-.373-.826-.56-1.386-.56-.56 0-1.0267.187-1.4.56-.364.364-.546.835-.546 1.414s.182 1.055.546 1.428Zm10.5417-5.124c.7653 0 1.3953.257 1.89.77.504.513.756 1.223.756 2.128V363h-1.806v-4.074c0-.467-.126-.821-.3781-1.064-.2519-.252-.5879-.378-1.008-.378-.4666 0-.84.145-1.12.434-.28.289-.42.723-.42 1.302V363h-1.806v-7h1.806v.784c.4387-.653 1.1341-.98 2.0861-.98Zm5.574 4.438c.2427.877.9007 1.316 1.974 1.316.6907 0 1.2134-.233 1.568-.7l1.456.84c-.6906.999-1.708 1.498-3.052 1.498-1.1573 0-2.086-.35-2.786-1.05-.7-.7-1.05-1.582-1.05-2.646 0-1.055.3454-1.932 1.036-2.632.6907-.709 1.5774-1.064 2.66-1.064 1.0267 0 1.8714.355 2.534 1.064.672.709 1.008 1.587 1.008 2.632 0 .233-.0233.481-.07.742h-5.278Zm-.028-1.4h3.57c-.1026-.476-.3173-.831-.644-1.064-.3173-.233-.6813-.35-1.092-.35-.4853 0-.8866.126-1.204.378-.3173.243-.5273.588-.63 1.036Zm7.8894-.854c0 .187.1213.341.364.462.252.112.5553.215.91.308.3546.084.7093.196 1.064.336.3546.131.6533.355.896.672.252.317.378.714.378 1.19 0 .719-.2707 1.274-.812 1.666-.532.383-1.1994.574-2.002.574-1.4374 0-2.4174-.555-2.94-1.666l1.568-.882c.2053.607.6626.91 1.372.91.644 0 .966-.201.966-.602 0-.187-.126-.336-.378-.448-.2427-.121-.5414-.229-.896-.322-.3547-.093-.7094-.21-1.064-.35-.3547-.14-.658-.359-.91-.658-.2427-.308-.364-.691-.364-1.148 0-.691.252-1.232.756-1.624.5133-.401 1.148-.602 1.904-.602.5693 0 1.0873.131 1.554.392.4666.252.8353.616 1.106 1.092l-1.54.84c-.224-.476-.5974-.714-1.12-.714-.2334 0-.4294.051-.588.154-.1494.103-.224.243-.224.42Zm5.9303 0c0 .187.1213.341.364.462.252.112.5553.215.91.308.3546.084.7093.196 1.064.336.3546.131.6533.355.896.672.252.317.378.714.378 1.19 0 .719-.2707 1.274-.812 1.666-.532.383-1.1994.574-2.002.574-1.4374 0-2.4174-.555-2.94-1.666l1.568-.882c.2053.607.6626.91 1.372.91.644 0 .966-.201.966-.602 0-.187-.126-.336-.378-.448-.2427-.121-.5414-.229-.896-.322-.3547-.093-.7094-.21-1.064-.35-.3547-.14-.658-.359-.91-.658-.2427-.308-.364-.691-.364-1.148 0-.691.252-1.232.756-1.624.5133-.401 1.148-.602 1.904-.602.5693 0 1.0873.131 1.554.392.4666.252.8353.616 1.106 1.092l-1.54.84c-.224-.476-.5974-.714-1.12-.714-.2334 0-.4294.051-.588.154-.1494.103-.224.243-.224.42ZM15.802 284.2c1.344 0 2.464.471 3.36 1.414.9053.943 1.358 2.105 1.358 3.486 0 1.381-.4527 2.543-1.358 3.486-.896.943-2.016 1.414-3.36 1.414H11.91v-9.8h3.892Zm0 7.952c.8493 0 1.54-.28 2.072-.84.532-.569.798-1.307.798-2.212 0-.905-.266-1.638-.798-2.198-.532-.569-1.2227-.854-2.072-.854h-1.96v6.104h1.96Zm7.6705-3.948c.168-.448.4433-.784.826-1.008.392-.224.826-.336 1.302-.336v2.016c-.5507-.065-1.0454.047-1.484.336-.4294.289-.644.77-.644 1.442V294h-1.806v-7h1.806v1.204Zm8.7484 4.928c-.7186.709-1.596 1.064-2.632 1.064s-1.9133-.355-2.632-1.064c-.7093-.719-1.064-1.596-1.064-2.632s.3547-1.909 1.064-2.618c.7187-.719 1.596-1.078 2.632-1.078s1.9134.359 2.632 1.078c.7187.709 1.078 1.582 1.078 2.618 0 1.036-.3593 1.913-1.078 2.632Zm-3.99-1.246c.364.364.8167.546 1.358.546.5414 0 .994-.182 1.358-.546.364-.364.546-.826.546-1.386 0-.56-.182-1.022-.546-1.386-.364-.364-.8166-.546-1.358-.546-.5413 0-.994.182-1.358.546-.3546.364-.532.826-.532 1.386 0 .56.1774 1.022.532 1.386ZM42.038 287h1.918l-2.226 7h-1.722l-1.288-4.242L37.432 294H35.71l-2.226-7h1.918l1.19 4.298L37.866 287h1.708l1.274 4.312 1.19-4.312Zm3.9799 1.988c0 .187.1214.341.364.462.252.112.5554.215.91.308.3547.084.7094.196 1.064.336.3547.131.6534.355.896.672.252.317.378.714.378 1.19 0 .719-.2706 1.274-.812 1.666-.532.383-1.1993.574-2.002.574-1.4373 0-2.4173-.555-2.94-1.666l1.568-.882c.2054.607.6627.91 1.372.91.644 0 .966-.201.966-.602 0-.187-.126-.336-.378-.448-.2426-.121-.5413-.229-.896-.322-.3546-.093-.7093-.21-1.064-.35-.3546-.14-.658-.359-.91-.658-.2426-.308-.364-.691-.364-1.148 0-.691.252-1.232.756-1.624.5134-.401 1.148-.602 1.904-.602.5694 0 1.0874.131 1.554.392.4667.252.8354.616 1.106 1.092l-1.54.84c-.224-.476-.5973-.714-1.12-.714-.2333 0-.4293.051-.588.154-.1493.103-.224.243-.224.42Zm5.5295-2.828c-.2987 0-.56-.107-.784-.322-.2147-.224-.322-.485-.322-.784 0-.299.1073-.56.322-.784.224-.224.4853-.336.784-.336.308 0 .5693.112.784.336.224.224.336.485.336.784 0 .299-.112.56-.336.784-.2147.215-.476.322-.784.322Zm-.896 7.84v-7h1.806v7h-1.806Zm7.211-7.196c.7653 0 1.3953.257 1.89.77.504.513.756 1.223.756 2.128V294h-1.806v-4.074c0-.467-.126-.821-.378-1.064-.252-.252-.588-.378-1.008-.378-.4667 0-.84.145-1.12.434-.28.289-.42.723-.42 1.302V294h-1.806v-7h1.806v.784c.4386-.653 1.134-.98 2.086-.98Zm5.5741 4.438c.2426.877.9006 1.316 1.974 1.316.6906 0 1.2133-.233 1.568-.7l1.456.84c-.6907.999-1.708 1.498-3.052 1.498-1.1574 0-2.086-.35-2.786-1.05-.7-.7-1.05-1.582-1.05-2.646 0-1.055.3453-1.932 1.036-2.632.6906-.709 1.5773-1.064 2.66-1.064 1.0266 0 1.8713.355 2.534 1.064.672.709 1.008 1.587 1.008 2.632 0 .233-.0234.481-.07.742h-5.278Zm-.028-1.4h3.57c-.1027-.476-.3174-.831-.644-1.064-.3174-.233-.6814-.35-1.092-.35-.4854 0-.8867.126-1.204.378-.3174.243-.5274.588-.63 1.036Zm7.8893-.854c0 .187.1213.341.364.462.252.112.5553.215.91.308.3546.084.7093.196 1.064.336.3546.131.6533.355.896.672.252.317.378.714.378 1.19 0 .719-.2707 1.274-.812 1.666-.532.383-1.1994.574-2.002.574-1.4374 0-2.4174-.555-2.94-1.666l1.568-.882c.2053.607.6626.91 1.372.91.644 0 .966-.201.966-.602 0-.187-.126-.336-.378-.448-.2427-.121-.5414-.229-.896-.322-.3547-.093-.7094-.21-1.064-.35-.3547-.14-.658-.359-.91-.658-.2427-.308-.364-.691-.364-1.148 0-.691.252-1.232.756-1.624.5133-.401 1.148-.602 1.904-.602.5693 0 1.0873.131 1.554.392.4666.252.8353.616 1.106 1.092l-1.54.84c-.224-.476-.5974-.714-1.12-.714-.2334 0-.4294.051-.588.154-.1494.103-.224.243-.224.42Zm5.9303 0c0 .187.1213.341.364.462.252.112.5553.215.91.308.3547.084.7093.196 1.064.336.3547.131.6533.355.896.672.252.317.378.714.378 1.19 0 .719-.2707 1.274-.812 1.666-.532.383-1.1993.574-2.002.574-1.4373 0-2.4173-.555-2.94-1.666l1.568-.882c.2053.607.6627.91 1.372.91.644 0 .966-.201.966-.602 0-.187-.126-.336-.378-.448-.2427-.121-.5413-.229-.896-.322s-.7093-.21-1.064-.35c-.3547-.14-.658-.359-.91-.658-.2427-.308-.364-.691-.364-1.148 0-.691.252-1.232.756-1.624.5133-.401 1.148-.602 1.904-.602.5693 0 1.0873.131 1.554.392.4667.252.8353.616 1.106 1.092l-1.54.84c-.224-.476-.5973-.714-1.12-.714-.2333 0-.4293.051-.588.154-.1493.103-.224.243-.224.42Z"/><path stroke="#000" stroke-width="2" d="M0 133h324M0 195h324M0 257h324M0 319h324"/><defs><clipPath id="clip0_155_584"><path fill="#fff" d="M107 33h106v8H107z"/></clipPath></defs></svg>
