<svg xmlns="http://www.w3.org/2000/svg" width="487" height="382" fill="none" viewBox="0 0 487 382"><path fill="#fff" stroke="#000" stroke-width="2" d="M183 10c0-4.97056 4.029-9 9-9h285c4.971 0 9 4.02944 9 9v63H183V10Z"/><path fill="#000" d="M327 0h152c4.418 0 8 3.58172 8 8v64H327V0Z"/><path fill="#C10F27" d="M184 10c0-4.41828 3.582-8 8-8h135v70H184V10Z"/><path fill="#fff" d="M390.156 39.726c-.989.98-2.193 1.47-3.612 1.47s-2.623-.49-3.612-1.47c-.98-.9893-1.47-2.198-1.47-3.626s.49-2.632 1.47-3.612c.989-.9893 2.193-1.484 3.612-1.484s2.623.4947 3.612 1.484c.989.98 1.484 2.184 1.484 3.612s-.495 2.6367-1.484 3.626Zm-5.866-1.316c.607.5973 1.358.896 2.254.896.896 0 1.647-.2987 2.254-.896.607-.6067.91-1.3767.91-2.31s-.303-1.7033-.91-2.31-1.358-.91-2.254-.91c-.896 0-1.647.3033-2.254.91s-.91 1.3767-.91 2.31.303 1.7033.91 2.31Zm14.349-7.21v1.848h-2.646V41h-1.932v-7.952h-2.632V31.2h7.21Zm6.371 0h1.918V41h-1.918v-4.06h-3.64V41h-1.932v-9.8h1.932v3.892h3.64V31.2Zm5.39 7.952h4.13V41h-6.062v-9.8h5.992v1.848h-4.06v2.086h3.71v1.82h-3.71v2.198ZM420.988 41l-1.974-3.402h-1.47V41h-1.932v-9.8h3.92c.906 0 1.676.3173 2.31.952.635.6347.952 1.4.952 2.296 0 .6067-.172 1.1713-.518 1.694-.345.5133-.802.9007-1.372 1.162l2.17 3.696h-2.086Zm-3.444-7.994v2.898h1.988c.364 0 .677-.14.938-.42.262-.2893.392-.6347.392-1.036s-.13-.742-.392-1.022c-.261-.28-.574-.42-.938-.42h-1.988Zm9.583 8.19c-.97 0-1.787-.2147-2.45-.644-.662-.4387-1.129-1.0313-1.4-1.778l1.652-.966c.383.9987 1.134 1.498 2.254 1.498.542 0 .938-.098 1.19-.294.252-.196.378-.4433.378-.742 0-.3453-.154-.6113-.462-.798-.308-.196-.858-.406-1.652-.63-.438-.1307-.812-.2613-1.12-.392-.298-.1307-.602-.3033-.91-.518-.298-.224-.527-.504-.686-.84-.158-.336-.238-.728-.238-1.176 0-.8867.313-1.5913.938-2.114.635-.532 1.396-.798 2.282-.798.794 0 1.489.196 2.086.588.607.3827 1.078.9193 1.414 1.61l-1.624.938c-.392-.84-1.017-1.26-1.876-1.26-.401 0-.718.0933-.952.28-.224.1773-.336.4107-.336.7 0 .308.126.56.378.756.262.1867.756.392 1.484.616.299.0933.523.168.672.224.159.0467.369.126.63.238.271.1027.476.2007.616.294.15.0933.318.2193.504.378.187.1587.327.322.42.49.103.168.187.3733.252.616.075.2333.112.49.112.77 0 .9053-.331 1.624-.994 2.156-.653.532-1.507.798-2.562.798Z"/><g clip-path="url(#clip0_155_583)"><mask id="mask0_155_583" width="10" height="9" x="196" y="33" maskUnits="userSpaceOnUse" style="mask-type:luminance"><path fill="#fff" d="M205.728 33H196v9h9.728v-9Z"/></mask><g fill="#fff" mask="url(#mask0_155_583)"><path d="M200.864 39.6113c.452 0 .894-.1241 1.27-.3565.376-.2325.669-.5629.842-.9494.173-.3865.218-.8117.129-1.2219-.088-.4102-.306-.7869-.626-1.0825s-.727-.4967-1.171-.5779c-.443-.0813-.903-.039-1.32.1215-.418.1605-.775.4319-1.025.78-.251.3481-.385.7571-.384 1.1754.001.5602.242 1.0972.671 1.4931.428.3958 1.009.6182 1.614.6182ZM200.864 40.5674c1.365 0 2.478.1716 2.478.5675 0 .396-1.109.8648-2.478.8648-1.368 0-2.478-.4695-2.478-.8648 0-.3952 1.109-.5675 2.478-.5675ZM200.864 33c1.365 0 2.478.4695 2.478.8655 0 .3959-1.109.5668-2.478.5668-1.368 0-2.478-.1694-2.478-.5668 0-.3975 1.109-.8655 2.478-.8655ZM197.548 37.5005c0 1.2629-.185 2.2926-.613 2.2926-.427 0-.935-1.0267-.935-2.2926 0-1.2658.507-2.2925.935-2.2925.428 0 .613 1.0259.613 2.2925ZM205.728 37.5005c0 1.2629-.508 2.2926-.935 2.2926-.427 0-.613-1.0267-.613-2.2926 0-1.2658.185-2.2925.613-2.2925s.935 1.0259.935 2.2925Z"/></g><mask id="mask1_155_583" width="105" height="9" x="210" y="33" maskUnits="userSpaceOnUse" style="mask-type:luminance"><path fill="#fff" d="M315 33H210.323v9H315v-9Z"/></mask><g mask="url(#mask1_155_583)"><path fill="#fff" d="M210.59 41.8269h1.51c.071 0 .139-.026.189-.0722.05-.0462.078-.1089.079-.1744v-2.745c-.002-.0164.001-.033.007-.0484.007-.0155.016-.0295.029-.0412a.12912.12912 0 0 1 .045-.0265c.016-.0058.034-.0083.052-.0072h1.029c1.767 0 2.981-1.1373 2.981-2.7694 0-1.6322-1.217-2.7695-2.981-2.7695h-2.94c-.071.0002-.139.0263-.189.0727-.05.0463-.078.1091-.078.1747v8.1598c0 .0655.028.1282.078.1744.05.0462.118.0722.189.0722Zm1.778-5.0932v-1.5793c-.001-.0166.001-.0331.007-.0486.007-.0155.016-.0296.029-.0413a.13139.13139 0 0 1 .045-.0268c.016-.0059.034-.0084.052-.0074h.976c.548 0 .936.3959.936.9152 0 .5193-.388.9145-.936.9145h-.976a.13262.13262 0 0 1-.053-.0073c-.017-.006-.033-.0153-.045-.0273-.013-.0121-.023-.0265-.029-.0423-.006-.0158-.008-.0327-.006-.0494Zm5.145 5.0932h1.51c.071 0 .139-.026.189-.0722.05-.0462.079-.1089.079-.1744v-2.794c-.001-.0165.002-.033.008-.0484.006-.0155.016-.0295.029-.0412.012-.0117.027-.0208.044-.0268a.13724.13724 0 0 1 .052-.0077h.402c.037-.0054.075.0001.108.0157.034.0156.061.0405.079.0713l1.28 2.8682c.053.1107.147.2095.281.2095h1.631c.041.0005.082-.0086.118-.0266.037-.0179.068-.0441.09-.0761.023-.032.037-.0688.04-.1069a.21462.21462 0 0 0-.021-.1113l-1.374-2.9671c-.054-.1114-.054-.2228.053-.2971.829-.5943 1.323-1.3595 1.323-2.2992 0-1.6344-1.216-2.7695-2.98-2.7695h-2.941c-.071.0002-.139.0263-.189.0727-.05.0463-.078.1091-.078.1747v8.1598c0 .0655.028.1282.078.1744.05.0462.118.0722.189.0722Zm1.778-5.0932v-1.5793c-.001-.0165.002-.033.008-.0485.006-.0154.016-.0294.029-.0411.012-.0117.027-.0209.044-.0268.017-.0059.034-.0086.052-.0077h.977c.547 0 .935.3959.935.9152 0 .5193-.388.9145-.935.9145h-.977a.13647.13647 0 0 1-.053-.0076.12952.12952 0 0 1-.045-.0273c-.012-.012-.022-.0264-.028-.0421-.006-.0158-.009-.0326-.007-.0493Zm5.159 5.0932h4.851c.071 0 .139-.026.189-.0722.05-.0462.079-.1089.079-.1744v-1.3602c0-.0656-.029-.1284-.079-.1747-.05-.0464-.118-.0725-.189-.0727h-2.94c-.018.0011-.036-.0014-.052-.0072a.12912.12912 0 0 1-.045-.0265.136.136 0 0 1-.029-.0412c-.006-.0154-.008-.032-.007-.0484v-1.3105c-.001-.0165.001-.033.007-.0485.007-.0155.016-.0296.029-.0413a.12983.12983 0 0 1 .045-.0268c.016-.0059.034-.0084.052-.0074h2.81c.071-.0002.139-.0264.189-.0727.05-.0464.079-.1092.079-.1747V36.808c0-.0655-.029-.1284-.079-.1747-.05-.0464-.118-.0725-.189-.0727h-2.81c-.018.001-.036-.0015-.052-.0074a.13067.13067 0 0 1-.045-.0265c-.012-.0117-.022-.0257-.028-.0411-.007-.0154-.009-.0318-.008-.0483v-1.2829c-.001-.0166.001-.0331.007-.0486.007-.0155.016-.0296.029-.0413a.13139.13139 0 0 1 .045-.0268c.016-.0059.034-.0084.052-.0074h2.94c.071-.0002.139-.0263.189-.0727.05-.0463.079-.1091.079-.1747v-1.3624c0-.0656-.029-.1284-.079-.1747-.05-.0464-.118-.0725-.189-.0727h-4.851c-.071.0006-.138.0269-.188.0732-.05.0463-.078.1089-.078.1742v8.1598c0 .0652.028.1277.078.1739.05.0462.117.0723.188.0727Zm8.913.1731c1.791 0 3.168-1.0749 3.168-2.7813 0-1.3603-.762-2.1544-2.219-2.5593l-1.014-.2845c-.643-.1731-.949-.4323-.949-.8528 0-.4457.361-.754.989-.754.615 0 1.044.2473 1.044.754v.0869c0 .0655.028.1282.078.1744.051.0463.118.0722.189.0722h1.537c.071 0 .139-.0259.189-.0722.05-.0462.078-.1089.079-.1744v-.0832C236.452 34.0259 235.209 33 233.445 33c-1.898 0-3.194 1.1143-3.194 2.6209 0 1.2629.868 2.164 2.192 2.4975l.989.2474c.668.1731.988.4695.988.9398 0 .5438-.427.9271-1.082.9271-.588 0-1.044-.3588-1.044-.9271v-.1241c0-.0655-.028-.1283-.078-.1747-.05-.0463-.118-.0725-.189-.0727h-1.589c-.071.0002-.139.0264-.189.0727-.05.0464-.078.1092-.079.1747v.0587c0 1.6596 1.417 2.7598 3.195 2.7598h-.002Zm4.197-.1731h4.852c.07 0 .138-.026.188-.0722.05-.0462.079-.1089.079-.1744v-1.3602c0-.0656-.029-.1284-.079-.1747-.05-.0464-.118-.0725-.188-.0727h-2.939a.13809.13809 0 0 1-.053-.0072c-.016-.0058-.032-.0148-.044-.0265-.013-.0117-.023-.0257-.029-.0412-.006-.0154-.009-.032-.008-.0484v-1.3105c-.001-.0165.002-.033.008-.0485s.016-.0296.029-.0413c.012-.0118.028-.0209.044-.0268a.13822.13822 0 0 1 .053-.0074h2.81c.071-.0002.139-.0264.189-.0728.05-.0463.078-.1091.078-.1746V36.808c0-.0655-.028-.1283-.078-.1747-.05-.0463-.118-.0725-.189-.0727h-2.81a.13822.13822 0 0 1-.053-.0074.13617.13617 0 0 1-.044-.0265.1368.1368 0 0 1-.029-.0411c-.006-.0154-.009-.0318-.008-.0483v-1.2829c-.001-.0166.002-.0331.008-.0486s.016-.0296.029-.0413c.012-.0117.028-.0209.044-.0268a.13822.13822 0 0 1 .053-.0074h2.939c.035.0001.07-.0062.102-.0186a.26572.26572 0 0 0 .087-.0536.25457.25457 0 0 0 .059-.0803c.013-.0301.02-.0623.021-.0949v-1.3624a.25877.25877 0 0 0-.021-.0949.2561.2561 0 0 0-.059-.0804.26716.26716 0 0 0-.087-.0535c-.032-.0124-.067-.0187-.102-.0186h-4.85c-.071.0002-.139.0263-.189.0727-.05.0463-.079.1091-.079.1747v8.1598c0 .0655.029.1282.079.1744.05.0462.118.0722.189.0722h-.002Zm6.189 0h1.509c.071 0 .139-.026.189-.0722.05-.0462.078-.1089.078-.1744v-4.0309c0-.2102.188-.2229.268-.0371l1.697 4.0799c.019.064.058.1211.113.1632.055.0421.123.0671.195.0715h1.671c.071 0 .139-.026.189-.0722.05-.0462.078-.1089.078-.1744v-8.1598c0-.0656-.028-.1284-.078-.1747-.05-.0464-.118-.0725-.189-.0727h-1.509c-.071.0002-.139.0263-.189.0727-.05.0463-.078.1091-.078.1747v4.0301c0 .2102-.187.2229-.268.0371l-1.697-4.0799c-.018-.0639-.058-.121-.113-.1631s-.123-.0671-.195-.0716h-1.67c-.071.0002-.139.0263-.189.0727-.05.0463-.078.1091-.078.1747v8.1598c0 .0655.028.1282.078.1744.05.0462.118.0722.189.0722h-.001Zm9.248 0h1.526c.071 0 .138-.026.189-.0722.05-.0462.078-.1089.078-.1744v-6.4259c-.001-.0166.002-.0332.008-.0486.007-.0155.016-.0296.029-.0413a.12808.12808 0 0 1 .045-.0267c.016-.0059.034-.0085.052-.0075h1.861c.07-.001.137-.0275.186-.0738.049-.0463.077-.1086.077-.1736v-1.3624c0-.0649-.028-.1272-.077-.1734-.049-.0463-.116-.0728-.186-.074h-6.045c-.071.0002-.139.0263-.189.0727-.05.0463-.078.1091-.078.1747v1.3624c0 .0656.028.1284.078.1747.05.0464.118.0725.189.0727h1.858c.018-.0009.036.0018.052.0077.017.0059.032.0151.045.0268.012.0117.022.0257.028.0411.007.0155.009.032.008.0485v6.4259c.001.0655.029.1282.079.1744.05.0462.118.0722.189.0722h-.002Zm7.725 0h1.511c.071 0 .139-.026.189-.0722.05-.0462.078-.1089.078-.1744v-2.745c-.001-.0164.002-.033.008-.0484.006-.0155.016-.0295.029-.0412.012-.0117.027-.0207.044-.0265a.13809.13809 0 0 1 .053-.0072h1.029c1.766 0 2.981-1.1373 2.981-2.7694 0-1.6322-1.217-2.7695-2.981-2.7695h-2.944c-.071.0002-.138.0263-.189.0727-.05.0463-.078.1091-.078.1747v8.1598c.001.066.03.1291.081.1753.051.0463.12.0719.191.0713h-.002Zm1.777-5.0932v-1.5793c-.001-.0166.001-.0332.008-.0486.006-.0155.016-.0296.029-.0413.012-.0118.027-.0209.044-.0267a.1383.1383 0 0 1 .053-.0075h.977c.548 0 .935.3959.935.9152 0 .5193-.387.9115-.935.9115h-.976a.133.133 0 0 1-.052-.0071.13067.13067 0 0 1-.045-.0265.136.136 0 0 1-.029-.0412c-.006-.0154-.009-.032-.008-.0485h-.001Zm5.146 5.0932h4.851c.071 0 .139-.026.189-.0722.05-.0462.079-.1089.079-.1744v-1.3602c0-.0656-.029-.1284-.079-.1747-.05-.0464-.118-.0725-.189-.0727h-2.938a.13809.13809 0 0 1-.053-.0072.12912.12912 0 0 1-.045-.0265.13556.13556 0 0 1-.029-.0411c-.006-.0155-.009-.032-.008-.0485v-1.3105c-.001-.0165.002-.0331.008-.0486a.13768.13768 0 0 1 .029-.0413.13115.13115 0 0 1 .045-.0267.13822.13822 0 0 1 .053-.0074h2.498c.071-.0002.139-.0264.189-.0727.05-.0464.079-.1092.079-.1747V36.808c0-.0655-.029-.1284-.079-.1747-.05-.0464-.118-.0725-.189-.0727h-2.498a.13822.13822 0 0 1-.053-.0074c-.016-.0058-.032-.0149-.044-.0265-.013-.0116-.023-.0256-.029-.041-.007-.0154-.009-.0319-.009-.0484v-1.2829c-.001-.0166.002-.0332.008-.0486a.13644.13644 0 0 1 .029-.0413.12808.12808 0 0 1 .045-.0267.1383.1383 0 0 1 .053-.0075h2.94c.071-.0006.138-.0269.188-.0732.05-.0463.078-.1089.078-.1742v-1.3624c0-.0656-.029-.1284-.079-.1747-.05-.0464-.118-.0725-.189-.0727h-4.85c-.07.0002-.138.0263-.188.0727-.05.0463-.079.1091-.079.1747v8.1598c0 .0655.029.1282.079.1744.05.0462.118.0722.188.0722h-.001Zm6.188 0h1.51c.071 0 .139-.026.189-.0722.05-.0462.078-.1089.078-.1744v-2.794c-.001-.0165.002-.033.008-.0484.007-.0155.016-.0295.029-.0412a.13883.13883 0 0 1 .044-.0268.1424.1424 0 0 1 .053-.0077h.401c.037-.0054.075.0001.109.0157.033.0156.061.0405.078.0713l1.285 2.8682c.053.1107.147.2095.28.2095h1.631a.2654.2654 0 0 0 .119-.0266c.036-.0179.067-.0441.09-.0761.023-.032.036-.0688.039-.1069.004-.0382-.004-.0765-.021-.1113l-1.377-2.9671c-.053-.1114-.053-.2228.054-.2971.829-.5943 1.323-1.3595 1.323-2.2992 0-1.6344-1.216-2.7695-2.98-2.7695h-2.941c-.071.0002-.139.0263-.189.0727-.05.0463-.078.1091-.078.1747v8.1598c0 .0655.028.1282.078.1744.05.0462.118.0722.189.0722h-.001Zm1.777-5.0932v-1.5793c-.001-.0165.002-.033.008-.0485.007-.0154.016-.0294.029-.0411a.13704.13704 0 0 1 .044-.0268.1404.1404 0 0 1 .053-.0077h.975c.549 0 .936.3959.936.9152 0 .5193-.387.9145-.936.9145h-.974a.13647.13647 0 0 1-.053-.0076.12952.12952 0 0 1-.045-.0273c-.012-.012-.022-.0264-.028-.0421-.006-.0158-.009-.0326-.007-.0493h-.002Zm5.159 5.0932h1.511c.071 0 .138-.026.189-.0722.05-.0462.078-.1089.078-.1744v-3.0414c-.001-.0165.002-.033.008-.0485s.016-.0296.029-.0413c.012-.0118.027-.0209.044-.0268a.13587.13587 0 0 1 .052-.0074h2.593c.071-.0002.139-.0264.189-.0727.05-.0464.078-.1092.079-.1747V36.808c-.001-.0655-.029-.1284-.079-.1747-.05-.0464-.118-.0725-.189-.0727h-2.593a.13587.13587 0 0 1-.052-.0074c-.016-.0058-.032-.0149-.044-.0265-.013-.0117-.023-.0257-.029-.0411-.006-.0154-.009-.0318-.008-.0483v-1.2829c-.001-.0166.002-.0331.008-.0486s.016-.0296.029-.0413c.012-.0117.027-.0209.044-.0268a.13587.13587 0 0 1 .052-.0074h2.731c.07-.0002.138-.0263.188-.0727.05-.0463.079-.1091.079-.1747v-1.3624c0-.0656-.029-.1284-.079-.1747-.05-.0464-.118-.0725-.188-.0727h-4.638c-.071.0002-.139.0263-.189.0727-.05.0463-.079.1091-.079.1747v8.1598c0 .0652.028.1277.078.1739.05.0462.117.0723.188.0727h-.002Zm5.974 0h4.852c.071 0 .139-.026.189-.0722.05-.0462.078-.1089.078-.1744v-1.3602c0-.0656-.028-.1284-.078-.1747-.05-.0464-.118-.0725-.189-.0727h-2.94c-.017.0011-.035-.0014-.052-.0072a.12912.12912 0 0 1-.045-.0265.13556.13556 0 0 1-.029-.0411c-.006-.0155-.009-.032-.008-.0485v-1.3105c-.001-.0165.002-.0331.008-.0486a.13768.13768 0 0 1 .029-.0413.13115.13115 0 0 1 .045-.0267.1332.1332 0 0 1 .052-.0074h2.499c.071-.0002.139-.0264.189-.0727.05-.0464.078-.1092.079-.1747V36.808c-.001-.0655-.029-.1284-.079-.1747-.05-.0464-.118-.0725-.189-.0727h-2.499a.13587.13587 0 0 1-.052-.0074c-.017-.0058-.032-.0149-.044-.0265-.013-.0116-.023-.0256-.029-.041a.10166.10166 0 0 1-.009-.0484v-1.2829c-.001-.0166.002-.0332.008-.0486a.13644.13644 0 0 1 .029-.0413.12808.12808 0 0 1 .045-.0267c.017-.0059.034-.0085.052-.0075h2.94c.071 0 .139-.0261.189-.0725.05-.0464.078-.1093.078-.1749v-1.3624c0-.0656-.028-.1284-.078-.1747-.05-.0464-.118-.0725-.189-.0727h-4.852c-.07.0002-.138.0263-.188.0727-.05.0463-.079.1091-.079.1747v8.1598c0 .0325.007.0647.021.0948.013.03.033.0572.058.0801.025.023.055.0411.087.0534.033.0123.068.0185.103.0183h-.002Zm8.986.1731c1.83 0 3.14-.939 3.212-2.8801-.001-.0656-.029-.1284-.079-.1748-.05-.0463-.118-.0724-.189-.0726h-1.564c-.071.0002-.139.0263-.189.0726-.05.0464-.078.1092-.078.1748-.053.6797-.482.9887-1.109.9887-.495 0-.855-.1731-1.056-.5564-.214-.4197-.214-1.1619-.214-2.0518 0-.89 0-1.6344.214-2.0526.187-.3833.562-.5564 1.056-.5564.614 0 1.044.3462 1.109.9895.005.066.037.1277.089.1733s.12.0717.192.0733h1.55c.071 0 .139-.0259.189-.0722.05-.0462.078-.1089.079-.1744-.073-1.9538-1.436-2.8809-3.212-2.8809-1.23 0-2.112.4078-2.633 1.1002-.602.7169-.736 1.8572-.736 3.4002 0 1.5429.161 2.6699.736 3.3994.533.6805 1.401 1.1002 2.633 1.1002Zm6.121-.1731h1.525c.071 0 .139-.026.189-.0722.05-.0462.079-.1089.079-.1744v-6.4259c-.001-.0166.001-.0331.007-.0486a.13644.13644 0 0 1 .029-.0413.13139.13139 0 0 1 .045-.0268c.016-.0059.034-.0084.052-.0074h1.778c.071-.0002.139-.0263.189-.0727.05-.0463.078-.1091.078-.1747v-1.3624c0-.0656-.028-.1284-.078-.1747-.05-.0464-.118-.0725-.189-.0727h-5.881c-.071.0002-.139.0263-.189.0727-.05.0463-.078.1091-.079.1747v1.3624c.001.0656.029.1284.079.1747.05.0464.118.0725.189.0727h1.778a.1332.1332 0 0 1 .052.0074c.017.0059.032.0151.045.0268.012.0117.022.0258.028.0413.006.0155.009.032.008.0486v6.4259c0 .0649.028.1272.077.1734.05.0461.117.0724.187.0732h.002Zm6.429-4.9944h.855c.015.0013.029-.0004.043-.0049.013-.0045.026-.0118.036-.0212.01-.0095.018-.0209.023-.0334.005-.0126.006-.026.005-.0393v-2.5221c.001-.0129.007-.025.017-.0342.01-.0091.023-.0147.037-.0155h.841a.1092.1092 0 0 0 .043-.005c.013-.0045.026-.0117.036-.0212a.0935.0935 0 0 0 .023-.0334c.005-.0125.007-.0259.005-.0392v-.7912c.002-.0133 0-.0267-.005-.0393-.005-.0125-.013-.0239-.023-.0334-.01-.0094-.023-.0166-.036-.0212a.10735.10735 0 0 0-.043-.0049h-2.81c-.014-.0013-.029.0004-.042.0049-.014.0046-.026.0118-.037.0212-.01.0095-.018.0209-.022.0334a.0884.0884 0 0 0-.006.0393v.7912c-.001.0133.001.0267.006.0392.004.0126.012.024.022.0334.011.0095.023.0167.037.0212.013.0045.028.0062.042.005h.788c.014.001.027.0066.037.0157.01.0092.016.0212.016.034v2.5258c0 .0133.002.0265.008.0388a.0815.0815 0 0 0 .024.0323c.01.0091.023.0159.036.02.014.0042.028.0055.042.004h.002Zm2.606 0h.856c.014.0013.029-.0004.042-.0049a.0942.0942 0 0 0 .036-.0212c.01-.0095.018-.0209.023-.0334.005-.0126.007-.026.005-.0393v-1.768c0-.1115.134-.1115.161-.0127l.494 1.7933c.005.0236.018.0449.037.0606.02.0156.045.0247.071.0256h.562c.025-.0011.05-.0102.069-.0259.02-.0156.033-.0368.037-.0603l.495-1.7933c.027-.0988.161-.0988.161.0127v1.768c-.002.0133 0 .0268.005.0393.005.0126.013.024.023.0334.011.0094.023.0166.037.0212.013.0045.028.0062.042.0049h.855c.015.0013.029-.0004.043-.0049.013-.0045.026-.0118.036-.0212.01-.0095.018-.0209.023-.0334.005-.0126.007-.026.005-.0393v-3.4618c.002-.0133 0-.0267-.005-.0393-.005-.0125-.013-.0239-.023-.0334-.01-.0094-.023-.0166-.036-.0212a.10735.10735 0 0 0-.043-.0049h-1.261c-.028-.0011-.055.0069-.077.0227s-.038.0383-.044.0635l-.546 2.1179c-.026.0988-.134.0988-.16 0l-.562-2.1261c-.011-.0237-.03-.0436-.054-.0569s-.052-.0194-.08-.0174h-1.23c-.014-.0013-.029.0004-.042.0049a.09549.09549 0 0 0-.036.0212c-.01.0095-.018.0209-.023.0335-.005.0125-.007.0259-.005.0392v3.4618a.0835.0835 0 0 0 .006.0383c.005.0122.013.0231.024.0322.01.009.022.0159.035.0201.014.0043.028.0058.042.0045h.002Z"/></g></g><path fill="#fff" stroke="#000" stroke-width="2" d="M1 82c0-4.9706 4.02944-9 9-9h476v299c0 4.971-4.029 9-9 9H9.99999C5.02943 381 1 376.971 1 372V82Z"/><path stroke="#000" stroke-width="2" d="M183 72v310M327 72v310"/><circle cx="256.443" cy="103.443" r="13.4433" fill="#C10F27"/><path stroke="#fff" stroke-width="2" d="m251.699 103.047 3.427 3.558 6.853-7.1167"/><circle cx="407.443" cy="103.443" r="13.4433" fill="#000"/><path stroke="#fff" stroke-width="2" d="m411.793 98.6992-9.094 9.0938M402.699 98.699l9.094 9.094"/><path fill="#000" d="M30.58 98.2h1.932v9.8h-1.47l-4.2-5.992V108H24.91v-9.8h1.47l4.2 5.978V98.2Zm8.8459 2.8h1.806v7h-1.806v-.826c-.5413.681-1.302 1.022-2.282 1.022-.9333 0-1.736-.355-2.408-1.064-.6626-.719-.994-1.596-.994-2.632s.3314-1.909.994-2.618c.672-.719 1.4747-1.078 2.408-1.078.98 0 1.7407.341 2.282 1.022V101Zm-3.332 4.928c.364.364.826.546 1.386.546.56 0 1.022-.182 1.386-.546.3734-.373.56-.849.56-1.428s-.1866-1.05-.56-1.414c-.364-.373-.826-.56-1.386-.56-.56 0-1.022.187-1.386.56-.364.364-.546.835-.546 1.414s.182 1.055.546 1.428Zm10.6397-3.192h-1.582v2.912c0 .243.0607.42.182.532.1213.112.2987.177.532.196.2333.009.5227.005.868-.014V108c-1.2413.14-2.1187.023-2.632-.35-.504-.373-.756-1.041-.756-2.002v-2.912h-1.218V101h1.218v-1.414l1.806-.546V101h1.582v1.736ZM52.5963 101h1.806v7h-1.806v-.784c-.4387.653-1.134.98-2.086.98-.7653 0-1.4-.257-1.904-.77-.4947-.513-.742-1.223-.742-2.128V101h1.806v4.074c0 .467.126.826.378 1.078.252.243.588.364 1.008.364.4667 0 .84-.145 1.12-.434.28-.289.42-.723.42-1.302V101Zm5.1261 1.204c.168-.448.4433-.784.826-1.008.392-.224.826-.336 1.302-.336v2.016c-.5507-.065-1.0453.047-1.484.336-.4293.289-.644.77-.644 1.442V108h-1.806v-7h1.806v1.204ZM65.8269 101h1.806v7h-1.806v-.826c-.5414.681-1.302 1.022-2.282 1.022-.9334 0-1.736-.355-2.408-1.064-.6627-.719-.994-1.596-.994-2.632s.3313-1.909.994-2.618c.672-.719 1.4746-1.078 2.408-1.078.98 0 1.7406.341 2.282 1.022V101Zm-3.332 4.928c.364.364.826.546 1.386.546.56 0 1.022-.182 1.386-.546.3733-.373.56-.849.56-1.428s-.1867-1.05-.56-1.414c-.364-.373-.826-.56-1.386-.56-.56 0-1.022.187-1.386.56-.364.364-.546.835-.546 1.414s.182 1.055.546 1.428ZM69.1305 108V97.78h1.806V108h-1.806Z"/><path stroke="#000" stroke-width="2" d="M0 133h487"/><path fill="#000" d="M30.58 153.2h1.932v9.8h-1.47l-4.2-5.992V163H24.91v-9.8h1.47l4.2 5.978V153.2Zm9.4899 8.932c-.7186.709-1.596 1.064-2.632 1.064s-1.9133-.355-2.632-1.064c-.7093-.719-1.064-1.596-1.064-2.632s.3547-1.909 1.064-2.618c.7187-.719 1.596-1.078 2.632-1.078s1.9134.359 2.632 1.078c.7187.709 1.078 1.582 1.078 2.618 0 1.036-.3593 1.913-1.078 2.632Zm-3.99-1.246c.364.364.8167.546 1.358.546.5414 0 .994-.182 1.358-.546.364-.364.546-.826.546-1.386 0-.56-.182-1.022-.546-1.386-.364-.364-.8166-.546-1.358-.546-.5413 0-.994.182-1.358.546-.3546.364-.532.826-.532 1.386 0 .56.1774 1.022.532 1.386Zm12.8905 2.31c-1.0546 0-1.9366-.355-2.646-1.064-.7-.709-1.05-1.587-1.05-2.632 0-1.045.35-1.923 1.05-2.632.7094-.709 1.5914-1.064 2.646-1.064.6814 0 1.302.163 1.862.49.56.327.9847.765 1.274 1.316l-1.554.91c-.14-.289-.3546-.518-.644-.686-.28-.168-.5973-.252-.952-.252-.5413 0-.9893.182-1.344.546-.3546.355-.532.812-.532 1.372 0 .551.1774 1.008.532 1.372.3547.355.8027.532 1.344.532.364 0 .686-.079.966-.238.2894-.168.504-.397.644-.686l1.568.896c-.308.551-.742.994-1.302 1.33-.56.327-1.1806.49-1.862.49Zm5.8399-5.992c.168-.448.4433-.784.826-1.008.392-.224.826-.336 1.302-.336v2.016c-.5507-.065-1.0454.047-1.484.336-.4294.289-.644.77-.644 1.442V163h-1.806v-7h1.806v1.204ZM62.4745 156h1.806v7h-1.806v-.784c-.4387.653-1.134.98-2.086.98-.7653 0-1.4-.257-1.904-.77-.4947-.513-.742-1.223-.742-2.128V156h1.806v4.074c0 .467.126.826.378 1.078.252.243.588.364 1.008.364.4667 0 .84-.145 1.12-.434.28-.289.42-.723.42-1.302V156Zm4.9314 1.988c0 .187.1213.341.364.462.252.112.5553.215.91.308.3547.084.7093.196 1.064.336.3547.131.6533.355.896.672.252.317.378.714.378 1.19 0 .719-.2707 1.274-.812 1.666-.532.383-1.1993.574-2.002.574-1.4373 0-2.4173-.555-2.94-1.666l1.568-.882c.2053.607.6627.91 1.372.91.644 0 .966-.201.966-.602 0-.187-.126-.336-.378-.448-.2427-.121-.5413-.229-.896-.322s-.7093-.21-1.064-.35c-.3547-.14-.658-.359-.91-.658-.2427-.308-.364-.691-.364-1.148 0-.691.252-1.232.756-1.624.5133-.401 1.148-.602 1.904-.602.5693 0 1.0873.131 1.554.392.4667.252.8353.616 1.106 1.092l-1.54.84c-.224-.476-.5973-.714-1.12-.714-.2333 0-.4293.051-.588.154-.1493.103-.224.243-.224.42Zm8.5255-2.184c.7653 0 1.3953.257 1.89.77.504.513.756 1.223.756 2.128V163h-1.806v-4.074c0-.467-.126-.821-.378-1.064-.252-.252-.588-.378-1.008-.378-.4667 0-.84.145-1.12.434-.28.289-.42.723-.42 1.302V163h-1.806v-9.8h1.806v3.584c.4386-.653 1.134-.98 2.086-.98Zm13.372 6.328c-.7186.709-1.596 1.064-2.632 1.064s-1.9133-.355-2.632-1.064c-.7093-.719-1.064-1.596-1.064-2.632s.3547-1.909 1.064-2.618c.7187-.719 1.596-1.078 2.632-1.078s1.9134.359 2.632 1.078c.7187.709 1.078 1.582 1.078 2.618 0 1.036-.3593 1.913-1.078 2.632Zm-3.99-1.246c.364.364.8167.546 1.358.546.5414 0 .994-.182 1.358-.546.364-.364.546-.826.546-1.386 0-.56-.182-1.022-.546-1.386-.364-.364-.8166-.546-1.358-.546-.5413 0-.994.182-1.358.546-.3546.364-.532.826-.532 1.386 0 .56.1774 1.022.532 1.386Zm8.0045-3.682c.168-.448.4434-.784.826-1.008.392-.224.826-.336 1.302-.336v2.016c-.5506-.065-1.0453.047-1.484.336-.4293.289-.644.77-.644 1.442V163h-1.806v-7h1.806v1.204ZM30.146 170h1.806v7h-1.806v-.826c-.5413.681-1.302 1.022-2.282 1.022-.9333 0-1.736-.355-2.408-1.064-.6627-.719-.994-1.596-.994-2.632s.3313-1.909.994-2.618c.672-.719 1.4747-1.078 2.408-1.078.98 0 1.7407.341 2.282 1.022V170Zm-3.332 4.928c.364.364.826.546 1.386.546.56 0 1.022-.182 1.386-.546.3733-.373.56-.849.56-1.428s-.1867-1.05-.56-1.414c-.364-.373-.826-.56-1.386-.56-.56 0-1.022.187-1.386.56-.364.364-.546.835-.546 1.414s.182 1.055.546 1.428Zm11.9417-7.728h1.806v9.8h-1.806v-.826c-.532.681-1.288 1.022-2.268 1.022-.9427 0-1.75-.355-2.422-1.064-.6627-.719-.994-1.596-.994-2.632s.3313-1.909.994-2.618c.672-.719 1.4793-1.078 2.422-1.078.98 0 1.736.341 2.268 1.022V167.2Zm-3.332 7.728c.3733.364.84.546 1.4.546.56 0 1.022-.182 1.386-.546.364-.373.546-.849.546-1.428s-.182-1.05-.546-1.414c-.364-.373-.826-.56-1.386-.56-.56 0-1.0267.187-1.4.56-.364.364-.546.835-.546 1.414s.182 1.055.546 1.428Zm11.9556-7.728h1.806v9.8h-1.806v-.826c-.532.681-1.288 1.022-2.268 1.022-.9426 0-1.75-.355-2.422-1.064-.6626-.719-.994-1.596-.994-2.632s.3314-1.909.994-2.618c.672-.719 1.4794-1.078 2.422-1.078.98 0 1.736.341 2.268 1.022V167.2Zm-3.332 7.728c.3734.364.84.546 1.4.546.56 0 1.022-.182 1.386-.546.364-.373.546-.849.546-1.428s-.182-1.05-.546-1.414c-.364-.373-.826-.56-1.386-.56-.56 0-1.0266.187-1.4.56-.364.364-.546.835-.546 1.414s.182 1.055.546 1.428Zm7.5457-5.768c-.2987 0-.56-.107-.784-.322-.2147-.224-.322-.485-.322-.784 0-.299.1073-.56.322-.784.224-.224.4853-.336.784-.336.308 0 .5693.112.784.336.224.224.336.485.336.784 0 .299-.112.56-.336.784-.2147.215-.476.322-.784.322Zm-.896 7.84v-7h1.806v7h-1.806Zm6.651.196c-1.0547 0-1.9367-.355-2.646-1.064-.7-.709-1.05-1.587-1.05-2.632 0-1.045.35-1.923 1.05-2.632.7093-.709 1.5913-1.064 2.646-1.064.6813 0 1.302.163 1.862.49.56.327.9847.765 1.274 1.316l-1.554.91c-.14-.289-.3547-.518-.644-.686-.28-.168-.5973-.252-.952-.252-.5413 0-.9893.182-1.344.546-.3547.355-.532.812-.532 1.372 0 .551.1773 1.008.532 1.372.3547.355.8027.532 1.344.532.364 0 .686-.079.966-.238.2893-.168.504-.397.644-.686l1.568.896c-.308.551-.742.994-1.302 1.33-.56.327-1.1807.49-1.862.49Zm4.8752-8.036c-.2987 0-.56-.107-.784-.322-.2147-.224-.322-.485-.322-.784 0-.299.1073-.56.322-.784.224-.224.4853-.336.784-.336.308 0 .5693.112.784.336.224.224.336.485.336.784 0 .299-.112.56-.336.784-.2147.215-.476.322-.784.322Zm-.896 7.84v-7h1.806v7h-1.806Zm6.651.196c-1.0547 0-1.9367-.355-2.646-1.064-.7-.709-1.05-1.587-1.05-2.632 0-1.045.35-1.923 1.05-2.632.7093-.709 1.5913-1.064 2.646-1.064.6813 0 1.302.163 1.862.49.56.327.9846.765 1.274 1.316l-1.554.91c-.14-.289-.3547-.518-.644-.686-.28-.168-.5974-.252-.952-.252-.5414 0-.9894.182-1.344.546-.3547.355-.532.812-.532 1.372 0 .551.1773 1.008.532 1.372.3546.355.8026.532 1.344.532.364 0 .686-.079.966-.238.2893-.168.504-.397.644-.686l1.568.896c-.308.551-.742.994-1.302 1.33-.56.327-1.1807.49-1.862.49Zm7.9831-5.46h-1.582v2.912c0 .243.0607.42.182.532.1214.112.2987.177.532.196.2334.009.5227.005.868-.014V177c-1.2413.14-2.1186.023-2.632-.35-.504-.373-.756-1.041-.756-2.002v-2.912h-1.218V170h1.218v-1.414l1.806-.546V170h1.582v1.736Zm2.0294-2.576c-.2987 0-.56-.107-.784-.322-.2147-.224-.322-.485-.322-.784 0-.299.1073-.56.322-.784.224-.224.4853-.336.784-.336.308 0 .5693.112.784.336.224.224.336.485.336.784 0 .299-.112.56-.336.784-.2147.215-.476.322-.784.322Zm-.896 7.84v-7h1.806v7h-1.806Zm9.283-.868c-.7187.709-1.596 1.064-2.632 1.064s-1.9134-.355-2.632-1.064c-.7094-.719-1.064-1.596-1.064-2.632s.3546-1.909 1.064-2.618c.7186-.719 1.596-1.078 2.632-1.078s1.9133.359 2.632 1.078c.7186.709 1.078 1.582 1.078 2.618 0 1.036-.3594 1.913-1.078 2.632Zm-3.99-1.246c.364.364.8166.546 1.358.546.5413 0 .994-.182 1.358-.546.364-.364.546-.826.546-1.386 0-.56-.182-1.022-.546-1.386-.364-.364-.8167-.546-1.358-.546-.5414 0-.994.182-1.358.546-.3547.364-.532.826-.532 1.386 0 .56.1773 1.022.532 1.386Zm10.0905-5.082c.7653 0 1.3953.257 1.89.77.504.513.756 1.223.756 2.128V177h-1.806v-4.074c0-.467-.126-.821-.378-1.064-.252-.252-.588-.378-1.008-.378-.4667 0-.84.145-1.12.434-.28.289-.42.723-.42 1.302V177h-1.806v-7h1.806v.784c.4386-.653 1.134-.98 2.086-.98Z"/><circle cx="256.443" cy="165.443" r="13.4433" fill="#C10F27"/><path stroke="#fff" stroke-width="2" d="m251.699 165.047 3.427 3.558 6.853-7.117"/><circle cx="407.443" cy="165.443" r="13.4433" fill="#000"/><path stroke="#fff" stroke-width="2" d="m411.793 160.699-9.094 9.094M402.699 160.699l9.094 9.094"/><path stroke="#000" stroke-width="2" d="M0 195h487"/><path fill="#000" d="M26.842 223.152h3.738V225h-5.67v-9.8h1.932v7.952Zm10.4389.98c-.7187.709-1.596 1.064-2.632 1.064s-1.9134-.355-2.632-1.064c-.7094-.719-1.064-1.596-1.064-2.632s.3546-1.909 1.064-2.618c.7186-.719 1.596-1.078 2.632-1.078s1.9133.359 2.632 1.078c.7186.709 1.078 1.582 1.078 2.618 0 1.036-.3594 1.913-1.078 2.632Zm-3.99-1.246c.364.364.8166.546 1.358.546.5413 0 .994-.182 1.358-.546.364-.364.546-.826.546-1.386 0-.56-.182-1.022-.546-1.386-.364-.364-.8167-.546-1.358-.546-.5414 0-.994.182-1.358.546-.3547.364-.532.826-.532 1.386 0 .56.1773 1.022.532 1.386Zm10.0905-5.082c.7653 0 1.3953.257 1.89.77.504.513.756 1.223.756 2.128V225h-1.806v-4.074c0-.467-.126-.821-.378-1.064-.252-.252-.588-.378-1.008-.378-.4667 0-.84.145-1.12.434-.28.289-.42.723-.42 1.302V225h-1.806v-7h1.806v.784c.4386-.653 1.134-.98 2.086-.98Zm9.41.196h1.764v6.664c0 1.083-.3593 1.909-1.078 2.478-.7093.569-1.568.854-2.576.854-.756 0-1.4233-.145-2.002-.434-.5693-.289-1.008-.714-1.316-1.274l1.54-.882c.3547.653.966.98 1.834.98.5694 0 1.0174-.149 1.344-.448.3267-.299.49-.723.49-1.274v-.756c-.532.709-1.2786 1.064-2.24 1.064-.9893 0-1.82-.345-2.492-1.036-.6626-.7-.994-1.549-.994-2.548 0-.989.336-1.834 1.008-2.534.672-.7 1.498-1.05 2.478-1.05.9614 0 1.708.355 2.24 1.064V218Zm-3.374 4.774c.3734.355.8447.532 1.414.532.5694 0 1.036-.177 1.4-.532.3734-.364.56-.826.56-1.386 0-.551-.1866-1.003-.56-1.358-.364-.364-.8306-.546-1.4-.546-.5693 0-1.0406.182-1.414.546-.364.355-.546.807-.546 1.358 0 .56.182 1.022.546 1.386Zm6.7197-1.134v-1.736h5.25v1.736h-5.25Zm10.698-1.904h-1.582v2.912c0 .243.0606.42.182.532.1213.112.2986.177.532.196.2333.009.5226.005.868-.014V225c-1.2414.14-2.1187.023-2.632-.35-.504-.373-.756-1.041-.756-2.002v-2.912h-1.218V218h1.218v-1.414l1.806-.546V218h1.582v1.736Zm2.4406 2.506c.2426.877.9006 1.316 1.974 1.316.6906 0 1.2133-.233 1.568-.7l1.456.84c-.6907.999-1.708 1.498-3.052 1.498-1.1574 0-2.086-.35-2.786-1.05-.7-.7-1.05-1.582-1.05-2.646 0-1.055.3453-1.932 1.036-2.632.6906-.709 1.5773-1.064 2.66-1.064 1.0266 0 1.8713.355 2.534 1.064.672.709 1.008 1.587 1.008 2.632 0 .233-.0234.481-.07.742h-5.278Zm-.028-1.4h3.57c-.1027-.476-.3174-.831-.644-1.064-.3174-.233-.6814-.35-1.092-.35-.4854 0-.8867.126-1.204.378-.3174.243-.5274.588-.63 1.036Zm8.3027-1.638c.168-.448.4434-.784.826-1.008.392-.224.826-.336 1.302-.336v2.016c-.5506-.065-1.0453.047-1.484.336-.4293.289-.644.77-.644 1.442V225h-1.806v-7h1.806v1.204Zm10.7863-1.4c.8026 0 1.442.261 1.918.784.4853.523.728 1.223.728 2.1V225h-1.806v-4.186c0-.42-.1027-.747-.308-.98-.2054-.233-.4947-.35-.868-.35-.4107 0-.7327.135-.966.406-.224.271-.336.663-.336 1.176V225h-1.806v-4.186c0-.42-.1027-.747-.308-.98-.2054-.233-.4947-.35-.868-.35-.4014 0-.7234.135-.966.406-.2334.271-.35.663-.35 1.176V225h-1.806v-7h1.806v.742c.42-.625 1.0686-.938 1.946-.938.8586 0 1.4933.336 1.904 1.008.4666-.672 1.162-1.008 2.086-1.008Zm-59.4367 14c.9427 0 1.7453.359 2.408 1.078.672.709 1.008 1.582 1.008 2.618 0 1.036-.336 1.913-1.008 2.632-.6627.709-1.4653 1.064-2.408 1.064-.98 0-1.736-.341-2.268-1.022V239h-1.806v-9.8h1.806v3.626c.532-.681 1.288-1.022 2.268-1.022Zm-1.722 5.124c.364.364.826.546 1.386.546.56 0 1.022-.182 1.386-.546.3733-.373.56-.849.56-1.428s-.1867-1.05-.56-1.414c-.364-.373-.826-.56-1.386-.56-.56 0-1.022.187-1.386.56-.364.364-.546.835-.546 1.414s.182 1.055.546 1.428Zm7.7977-.686c.2426.877.9006 1.316 1.974 1.316.6906 0 1.2133-.233 1.568-.7l1.456.84c-.6907.999-1.708 1.498-3.052 1.498-1.1574 0-2.086-.35-2.786-1.05-.7-.7-1.05-1.582-1.05-2.646 0-1.055.3453-1.932 1.036-2.632.6906-.709 1.5773-1.064 2.66-1.064 1.0266 0 1.8713.355 2.534 1.064.672.709 1.008 1.587 1.008 2.632 0 .233-.0234.481-.07.742h-5.278Zm-.028-1.4h3.57c-.1027-.476-.3174-.831-.644-1.064-.3174-.233-.6814-.35-1.092-.35-.4854 0-.8867.126-1.204.378-.3174.243-.5274.588-.63 1.036Zm10.3887-3.038c.7654 0 1.3954.257 1.89.77.504.513.756 1.223.756 2.128V239h-1.806v-4.074c0-.467-.126-.821-.378-1.064-.252-.252-.588-.378-1.008-.378-.4666 0-.84.145-1.12.434-.28.289-.42.723-.42 1.302V239h-1.806v-7h1.806v.784c.4387-.653 1.134-.98 2.086-.98Zm5.5741 4.438c.2427.877.9007 1.316 1.974 1.316.6907 0 1.2133-.233 1.568-.7l1.456.84c-.6907.999-1.708 1.498-3.052 1.498-1.1573 0-2.086-.35-2.786-1.05-.7-.7-1.05-1.582-1.05-2.646 0-1.055.3453-1.932 1.036-2.632.6907-.709 1.5773-1.064 2.66-1.064 1.0267 0 1.8713.355 2.534 1.064.672.709 1.008 1.587 1.008 2.632 0 .233-.0233.481-.07.742h-5.278Zm-.028-1.4h3.57c-.1027-.476-.3173-.831-.644-1.064-.3173-.233-.6813-.35-1.092-.35-.4853 0-.8867.126-1.204.378-.3173.243-.5273.588-.63 1.036ZM63.3202 232v7h-1.806v-5.264h-2.058V239h-1.806v-5.264h-1.008V232h1.008v-.07c0-1.951 1.0967-2.926 3.29-2.926.4947 0 1.0407.065 1.638.196v1.652c-.6253-.075-1.1713-.112-1.638-.112-.504 0-.8773.089-1.12.266-.2427.168-.364.476-.364.924v.07h3.864Zm5.511 1.736h-1.582v2.912c0 .243.0606.42.182.532.1213.112.2986.177.532.196.2333.009.5226.005.868-.014V239c-1.2414.14-2.1187.023-2.632-.35-.504-.373-.756-1.041-.756-2.002v-2.912h-1.218V232h1.218v-1.414l1.806-.546V232h1.582v1.736Zm2.6489.252c0 .187.1214.341.364.462.252.112.5554.215.91.308.3547.084.7094.196 1.064.336.3547.131.6534.355.896.672.252.317.378.714.378 1.19 0 .719-.2706 1.274-.812 1.666-.532.383-1.1993.574-2.002.574-1.4373 0-2.4173-.555-2.94-1.666l1.568-.882c.2054.607.6627.91 1.372.91.644 0 .966-.201.966-.602 0-.187-.126-.336-.378-.448-.2426-.121-.5413-.229-.896-.322-.3546-.093-.7093-.21-1.064-.35-.3546-.14-.658-.359-.91-.658-.2426-.308-.364-.691-.364-1.148 0-.691.252-1.232.756-1.624.5134-.401 1.148-.602 1.904-.602.5694 0 1.0874.131 1.554.392.4667.252.8354.616 1.106 1.092l-1.54.84c-.224-.476-.5973-.714-1.12-.714-.2333 0-.4293.051-.588.154-.1493.103-.224.243-.224.42Z"/><circle cx="256.443" cy="227.443" r="13.4433" fill="#C10F27"/><path stroke="#fff" stroke-width="2" d="m251.699 227.047 3.427 3.558 6.853-7.117"/><circle cx="407.443" cy="227.443" r="13.4433" fill="#000"/><path stroke="#fff" stroke-width="2" d="m411.793 222.699-9.094 9.094M402.699 222.699l9.094 9.094"/><path stroke="#000" stroke-width="2" d="M0 257h487"/><circle cx="256.443" cy="289.443" r="13.4433" fill="#000"/><path stroke="#fff" stroke-width="2" d="m260.793 284.699-9.094 9.094M251.699 284.699l9.094 9.094"/><circle cx="407.443" cy="289.443" r="13.4433" fill="#C10F27"/><path stroke="#fff" stroke-width="2" d="m402.699 289.047 3.427 3.558 6.853-7.117"/><path fill="#000" d="M28.802 284.2c1.344 0 2.464.471 3.36 1.414.9053.943 1.358 2.105 1.358 3.486 0 1.381-.4527 2.543-1.358 3.486-.896.943-2.016 1.414-3.36 1.414H24.91v-9.8h3.892Zm0 7.952c.8493 0 1.54-.28 2.072-.84.532-.569.798-1.307.798-2.212 0-.905-.266-1.638-.798-2.198-.532-.569-1.2227-.854-2.072-.854h-1.96v6.104h1.96Zm7.6705-3.948c.168-.448.4433-.784.826-1.008.392-.224.826-.336 1.302-.336v2.016c-.5507-.065-1.0454.047-1.484.336-.4294.289-.644.77-.644 1.442V294h-1.806v-7h1.806v1.204Zm8.7484 4.928c-.7186.709-1.596 1.064-2.632 1.064s-1.9133-.355-2.632-1.064c-.7093-.719-1.064-1.596-1.064-2.632s.3547-1.909 1.064-2.618c.7187-.719 1.596-1.078 2.632-1.078s1.9134.359 2.632 1.078c.7187.709 1.078 1.582 1.078 2.618 0 1.036-.3593 1.913-1.078 2.632Zm-3.99-1.246c.364.364.8167.546 1.358.546.5414 0 .994-.182 1.358-.546.364-.364.546-.826.546-1.386 0-.56-.182-1.022-.546-1.386-.364-.364-.8166-.546-1.358-.546-.5413 0-.994.182-1.358.546-.3546.364-.532.826-.532 1.386 0 .56.1774 1.022.532 1.386ZM55.038 287h1.918l-2.226 7h-1.722l-1.288-4.242L50.432 294H48.71l-2.226-7h1.918l1.19 4.298L50.866 287h1.708l1.274 4.312 1.19-4.312Zm3.9799 1.988c0 .187.1214.341.364.462.252.112.5554.215.91.308.3547.084.7094.196 1.064.336.3547.131.6534.355.896.672.252.317.378.714.378 1.19 0 .719-.2706 1.274-.812 1.666-.532.383-1.1993.574-2.002.574-1.4373 0-2.4173-.555-2.94-1.666l1.568-.882c.2054.607.6627.91 1.372.91.644 0 .966-.201.966-.602 0-.187-.126-.336-.378-.448-.2426-.121-.5413-.229-.896-.322-.3546-.093-.7093-.21-1.064-.35-.3546-.14-.658-.359-.91-.658-.2426-.308-.364-.691-.364-1.148 0-.691.252-1.232.756-1.624.5134-.401 1.148-.602 1.904-.602.5694 0 1.0874.131 1.554.392.4667.252.8354.616 1.106 1.092l-1.54.84c-.224-.476-.5973-.714-1.12-.714-.2333 0-.4293.051-.588.154-.1493.103-.224.243-.224.42Zm5.5295-2.828c-.2987 0-.56-.107-.784-.322-.2147-.224-.322-.485-.322-.784 0-.299.1073-.56.322-.784.224-.224.4853-.336.784-.336.308 0 .5693.112.784.336.224.224.336.485.336.784 0 .299-.112.56-.336.784-.2147.215-.476.322-.784.322Zm-.896 7.84v-7h1.806v7h-1.806Zm7.211-7.196c.7653 0 1.3953.257 1.89.77.504.513.756 1.223.756 2.128V294h-1.806v-4.074c0-.467-.126-.821-.378-1.064-.252-.252-.588-.378-1.008-.378-.4667 0-.84.145-1.12.434-.28.289-.42.723-.42 1.302V294h-1.806v-7h1.806v.784c.4386-.653 1.134-.98 2.086-.98Zm5.5741 4.438c.2426.877.9006 1.316 1.974 1.316.6906 0 1.2133-.233 1.568-.7l1.456.84c-.6907.999-1.708 1.498-3.052 1.498-1.1574 0-2.086-.35-2.786-1.05-.7-.7-1.05-1.582-1.05-2.646 0-1.055.3453-1.932 1.036-2.632.6906-.709 1.5773-1.064 2.66-1.064 1.0266 0 1.8713.355 2.534 1.064.672.709 1.008 1.587 1.008 2.632 0 .233-.0234.481-.07.742h-5.278Zm-.028-1.4h3.57c-.1027-.476-.3174-.831-.644-1.064-.3174-.233-.6814-.35-1.092-.35-.4854 0-.8867.126-1.204.378-.3174.243-.5274.588-.63 1.036Zm7.8893-.854c0 .187.1213.341.364.462.252.112.5553.215.91.308.3546.084.7093.196 1.064.336.3546.131.6533.355.896.672.252.317.378.714.378 1.19 0 .719-.2707 1.274-.812 1.666-.532.383-1.1994.574-2.002.574-1.4374 0-2.4174-.555-2.94-1.666l1.568-.882c.2053.607.6626.91 1.372.91.644 0 .966-.201.966-.602 0-.187-.126-.336-.378-.448-.2427-.121-.5414-.229-.896-.322-.3547-.093-.7094-.21-1.064-.35-.3547-.14-.658-.359-.91-.658-.2427-.308-.364-.691-.364-1.148 0-.691.252-1.232.756-1.624.5133-.401 1.148-.602 1.904-.602.5693 0 1.0873.131 1.554.392.4666.252.8353.616 1.106 1.092l-1.54.84c-.224-.476-.5974-.714-1.12-.714-.2334 0-.4294.051-.588.154-.1494.103-.224.243-.224.42Zm5.9303 0c0 .187.1213.341.364.462.252.112.5553.215.91.308.3547.084.7093.196 1.064.336.3547.131.6533.355.896.672.252.317.378.714.378 1.19 0 .719-.2707 1.274-.812 1.666-.532.383-1.1993.574-2.002.574-1.4373 0-2.4173-.555-2.94-1.666l1.568-.882c.2053.607.6627.91 1.372.91.644 0 .966-.201.966-.602 0-.187-.126-.336-.378-.448-.2427-.121-.5413-.229-.896-.322s-.7093-.21-1.064-.35c-.3547-.14-.658-.359-.91-.658-.2427-.308-.364-.691-.364-1.148 0-.691.252-1.232.756-1.624.5133-.401 1.148-.602 1.904-.602.5693 0 1.0873.131 1.554.392.4667.252.8353.616 1.106 1.092l-1.54.84c-.224-.476-.5973-.714-1.12-.714-.2333 0-.4293.051-.588.154-.1493.103-.224.243-.224.42Z"/><path stroke="#000" stroke-width="2" d="M0 319h487"/><path fill="#000" d="M26.842 347.152h3.738V349h-5.67v-9.8h1.932v7.952Zm5.5076-5.992c-.2987 0-.56-.107-.784-.322-.2147-.224-.322-.485-.322-.784 0-.299.1073-.56.322-.784.224-.224.4853-.336.784-.336.308 0 .5693.112.784.336.224.224.336.485.336.784 0 .299-.112.56-.336.784-.2147.215-.476.322-.784.322Zm-.896 7.84v-7h1.806v7h-1.806Zm8.681-7h1.764v6.664c0 1.083-.3594 1.909-1.078 2.478-.7094.569-1.568.854-2.576.854-.756 0-1.4234-.145-2.002-.434-.5694-.289-1.008-.714-1.316-1.274l1.54-.882c.3546.653.966.98 1.834.98.5693 0 1.0173-.149 1.344-.448.3266-.299.49-.723.49-1.274v-.756c-.532.709-1.2787 1.064-2.24 1.064-.9894 0-1.82-.345-2.492-1.036-.6627-.7-.994-1.549-.994-2.548 0-.989.336-1.834 1.008-2.534.672-.7 1.498-1.05 2.478-1.05.9613 0 1.708.355 2.24 1.064V342Zm-3.374 4.774c.3733.355.8446.532 1.414.532.5693 0 1.036-.177 1.4-.532.3733-.364.56-.826.56-1.386 0-.551-.1867-1.003-.56-1.358-.364-.364-.8307-.546-1.4-.546-.5694 0-1.0407.182-1.414.546-.364.355-.546.807-.546 1.358 0 .56.182 1.022.546 1.386Zm10.5276-4.97c.7654 0 1.3954.257 1.89.77.504.513.756 1.223.756 2.128V349h-1.806v-4.074c0-.467-.126-.821-.378-1.064-.252-.252-.588-.378-1.008-.378-.4666 0-.84.145-1.12.434-.28.289-.42.723-.42 1.302V349h-1.806v-9.8h1.806v3.584c.4387-.653 1.134-.98 2.086-.98Zm8.0521 1.932h-1.582v2.912c0 .243.0607.42.182.532.1213.112.2987.177.532.196.2333.009.5227.005.868-.014V349c-1.2413.14-2.1187.023-2.632-.35-.504-.373-.756-1.041-.756-2.002v-2.912h-1.218V342h1.218v-1.414l1.806-.546V342h1.582v1.736Zm8.4947-1.932c.7654 0 1.3954.257 1.89.77.504.513.756 1.223.756 2.128V349h-1.806v-4.074c0-.467-.126-.821-.378-1.064-.252-.252-.588-.378-1.008-.378-.4666 0-.84.145-1.12.434-.28.289-.42.723-.42 1.302V349h-1.806v-9.8h1.806v3.584c.4387-.653 1.134-.98 2.086-.98Zm5.5741 4.438c.2427.877.9007 1.316 1.974 1.316.6907 0 1.2133-.233 1.568-.7l1.456.84c-.6907.999-1.708 1.498-3.052 1.498-1.1573 0-2.086-.35-2.786-1.05-.7-.7-1.05-1.582-1.05-2.646 0-1.055.3453-1.932 1.036-2.632.6907-.709 1.5773-1.064 2.66-1.064 1.0267 0 1.8713.355 2.534 1.064.672.709 1.008 1.587 1.008 2.632 0 .233-.0233.481-.07.742h-5.278Zm-.028-1.4h3.57c-.1027-.476-.3173-.831-.644-1.064-.3173-.233-.6813-.35-1.092-.35-.4853 0-.8867.126-1.204.378-.3173.243-.5273.588-.63 1.036ZM81.1432 342h1.806v7h-1.806v-.826c-.5413.681-1.302 1.022-2.282 1.022-.9333 0-1.736-.355-2.408-1.064-.6627-.719-.994-1.596-.994-2.632s.3313-1.909.994-2.618c.672-.719 1.4747-1.078 2.408-1.078.98 0 1.7407.341 2.282 1.022V342Zm-3.332 4.928c.364.364.826.546 1.386.546.56 0 1.022-.182 1.386-.546.3733-.373.56-.849.56-1.428s-.1867-1.05-.56-1.414c-.364-.373-.826-.56-1.386-.56-.56 0-1.022.187-1.386.56-.364.364-.546.835-.546 1.414s.182 1.055.546 1.428Zm11.9417-7.728h1.806v9.8h-1.806v-.826c-.532.681-1.288 1.022-2.268 1.022-.9427 0-1.75-.355-2.422-1.064-.6627-.719-.994-1.596-.994-2.632s.3313-1.909.994-2.618c.672-.719 1.4793-1.078 2.422-1.078.98 0 1.736.341 2.268 1.022V339.2Zm-3.332 7.728c.3733.364.84.546 1.4.546.56 0 1.022-.182 1.386-.546.364-.373.546-.849.546-1.428s-.182-1.05-.546-1.414c-.364-.373-.826-.56-1.386-.56-.56 0-1.0267.187-1.4.56-.364.364-.546.835-.546 1.414s.182 1.055.546 1.428Zm8.1756-.686c.2427.877.9007 1.316 1.974 1.316.6907 0 1.2134-.233 1.568-.7l1.456.84c-.6906.999-1.708 1.498-3.052 1.498-1.1573 0-2.086-.35-2.786-1.05-.7-.7-1.05-1.582-1.05-2.646 0-1.055.3454-1.932 1.036-2.632.6907-.709 1.5774-1.064 2.66-1.064 1.0267 0 1.8714.355 2.534 1.064.672.709 1.008 1.587 1.008 2.632 0 .233-.0233.481-.07.742h-5.278Zm-.028-1.4h3.57c-.1026-.476-.3173-.831-.644-1.064-.3173-.233-.6813-.35-1.092-.35-.4853 0-.8866.126-1.204.378-.3173.243-.5273.588-.63 1.036Zm11.7485-5.642h1.806v9.8h-1.806v-.826c-.532.681-1.288 1.022-2.268 1.022-.943 0-1.75-.355-2.422-1.064-.663-.719-.994-1.596-.994-2.632s.331-1.909.994-2.618c.672-.719 1.479-1.078 2.422-1.078.98 0 1.736.341 2.268 1.022V339.2Zm-3.332 7.728c.373.364.84.546 1.4.546.56 0 1.022-.182 1.386-.546.364-.373.546-.849.546-1.428s-.182-1.05-.546-1.414c-.364-.373-.826-.56-1.386-.56-.56 0-1.027.187-1.4.56-.364.364-.546.835-.546 1.414s.182 1.055.546 1.428Zm10.541-5.124c.766 0 1.396.257 1.89.77.504.513.756 1.223.756 2.128V349h-1.806v-4.074c0-.467-.126-.821-.378-1.064-.252-.252-.588-.378-1.008-.378-.466 0-.84.145-1.12.434-.28.289-.42.723-.42 1.302V349h-1.806v-7h1.806v.784c.439-.653 1.134-.98 2.086-.98Zm5.574 4.438c.243.877.901 1.316 1.974 1.316.691 0 1.214-.233 1.568-.7l1.456.84c-.69.999-1.708 1.498-3.052 1.498-1.157 0-2.086-.35-2.786-1.05-.7-.7-1.05-1.582-1.05-2.646 0-1.055.346-1.932 1.036-2.632.691-.709 1.578-1.064 2.66-1.064 1.027 0 1.872.355 2.534 1.064.672.709 1.008 1.587 1.008 2.632 0 .233-.023.481-.07.742H119.1Zm-.028-1.4h3.57c-.102-.476-.317-.831-.644-1.064-.317-.233-.681-.35-1.092-.35-.485 0-.886.126-1.204.378-.317.243-.527.588-.63 1.036Zm7.89-.854c0 .187.121.341.364.462.252.112.555.215.91.308.354.084.709.196 1.064.336.354.131.653.355.896.672.252.317.378.714.378 1.19 0 .719-.271 1.274-.812 1.666-.532.383-1.2.574-2.002.574-1.438 0-2.418-.555-2.94-1.666l1.568-.882c.205.607.662.91 1.372.91.644 0 .966-.201.966-.602 0-.187-.126-.336-.378-.448-.243-.121-.542-.229-.896-.322-.355-.093-.71-.21-1.064-.35-.355-.14-.658-.359-.91-.658-.243-.308-.364-.691-.364-1.148 0-.691.252-1.232.756-1.624.513-.401 1.148-.602 1.904-.602.569 0 1.087.131 1.554.392.466.252.835.616 1.106 1.092l-1.54.84c-.224-.476-.598-.714-1.12-.714-.234 0-.43.051-.588.154-.15.103-.224.243-.224.42Zm5.93 0c0 .187.121.341.364.462.252.112.555.215.91.308.355.084.709.196 1.064.336.355.131.653.355.896.672.252.317.378.714.378 1.19 0 .719-.271 1.274-.812 1.666-.532.383-1.199.574-2.002.574-1.437 0-2.417-.555-2.94-1.666l1.568-.882c.205.607.663.91 1.372.91.644 0 .966-.201.966-.602 0-.187-.126-.336-.378-.448-.243-.121-.541-.229-.896-.322s-.709-.21-1.064-.35c-.355-.14-.658-.359-.91-.658-.243-.308-.364-.691-.364-1.148 0-.691.252-1.232.756-1.624.513-.401 1.148-.602 1.904-.602.569 0 1.087.131 1.554.392.467.252.835.616 1.106 1.092l-1.54.84c-.224-.476-.597-.714-1.12-.714-.233 0-.429.051-.588.154-.149.103-.224.243-.224.42Z"/><circle cx="256.443" cy="351.443" r="13.4433" fill="#C10F27"/><path stroke="#fff" stroke-width="2" d="m251.699 351.047 3.427 3.558 6.853-7.117"/><circle cx="407.443" cy="351.443" r="13.4433" fill="#000"/><path stroke="#fff" stroke-width="2" d="m411.793 346.699-9.094 9.094M402.699 346.699l9.094 9.094"/><defs><clipPath id="clip0_155_583"><path fill="#fff" d="M196 33h119v9H196z"/></clipPath></defs></svg>
