<svg xmlns="http://www.w3.org/2000/svg" width="21" height="21" fill="none" viewBox="0 0 21 21"><path fill="#fff" d="M10.5011 15.4292a4.93327 4.93327 0 0 0 4.5584-3.047 4.93388 4.93388 0 0 0 .2795-2.85121 4.93317 4.93317 0 0 0-1.352-2.52579 4.93362 4.93362 0 0 0-2.5277-1.34851 4.93329 4.93329 0 0 0-5.0634 2.10357 4.93321 4.93321 0 0 0-.82802 2.74264 4.93295 4.93295 0 0 0 1.44735 3.4838 4.93311 4.93311 0 0 0 3.48587 1.4425ZM10.5018 17.6572c2.9468 0 5.3493.4004 5.3493 1.3243s-2.3956 2.0177-5.3493 2.0177c-2.95367 0-5.34921-1.0955-5.34921-2.0177 0-.9221 2.39381-1.3243 5.34921-1.3243ZM10.5018 0c2.9468 0 5.3493 1.0955 5.3493 2.0194 0 .92389-2.3956 1.32257-5.3493 1.32257-2.95367 0-5.34921-.39521-5.34921-1.32257C5.15259 1.09203 7.5464 0 10.5018 0ZM3.34197 10.5018c0 2.9468-.40041 5.3493-1.32257 5.3493C1.09723 15.8511 0 13.4555 0 10.5018c0-2.95367 1.0955-5.34921 2.0194-5.34921.92389 0 1.32257 2.39381 1.32257 5.34921ZM20.9992 10.5018c0 2.9468-1.0955 5.3493-2.0177 5.3493-.9221 0-1.3243-2.3956-1.3243-5.3493 0-2.95367.4004-5.34921 1.3243-5.34921s2.0177 2.39381 2.0177 5.34921Z"/></svg>
